SplineFontDB: 3.0
FontName: Driftjunky13
FullName: Driftjunky13
FamilyName: Driftjunky13
Weight: Medium
Copyright: Created by Sterling Gee using glyphs by Bruce Mercado with FontForge 2.0 (http://fontforge.sf.net)
Version: 0.1
ItalicAngle: 0
UnderlinePosition: -102.4
UnderlineWidth: 51.2
Ascent: 819
Descent: 205
LayerCount: 2
Layer: 0 1 "Back"  1
Layer: 1 1 "Fore"  0
XUID: [1021 175 822079741 15582845]
FSType: 0
OS2Version: 1
OS2_WeightWidthSlopeOnly: 0
OS2_UseTypoMetrics: 1
CreationTime: 1297022711
ModificationTime: 1300043858
PfmFamily: 17
TTFWeight: 500
TTFWidth: 5
LineGap: 92
VLineGap: 0
Panose: 2 0 6 3 0 0 0 0 0 0
OS2TypoAscent: 0
OS2TypoAOffset: 1
OS2TypoDescent: 0
OS2TypoDOffset: 1
OS2TypoLinegap: 92
OS2WinAscent: -1
OS2WinAOffset: 1
OS2WinDescent: 0
OS2WinDOffset: 1
HheadAscent: 0
HheadAOffset: 1
HheadDescent: 0
HheadDOffset: 1
OS2SubXSize: 666
OS2SubYSize: 716
OS2SubXOff: 0
OS2SubYOff: 143
OS2SupXSize: 666
OS2SupYSize: 716
OS2SupXOff: 0
OS2SupYOff: 490
OS2StrikeYSize: 50
OS2StrikeYPos: 264
OS2Vendor: 'PfEd'
OS2CodePages: 00000001.00000000
OS2UnicodeRanges: 00000001.00000000.00000000.00000000
DEI: 91125
ShortTable: cvt  2
  33
  633
EndShort
ShortTable: maxp 16
  1
  0
  82
  74
  3
  0
  0
  2
  0
  1
  1
  0
  64
  46
  0
  0
EndShort
LangName: 1033 "" "" "" "FontForge 2.0 : Driftjunky13 : 6-2-2011" 
GaspTable: 1 65535 2
Encoding: UnicodeBmp
UnicodeInterp: none
NameList: Adobe Glyph List
DisplaySize: -24
AntiAlias: 1
FitToEm: 1
WinInfo: 32 16 14
BeginChars: 65539 148

StartChar: .notdef
Encoding: 65536 -1 0
Width: 372
Flags: HW
LayerCount: 2
Fore
SplineSet
34 0 m 1,0,-1
 34 682 l 1,1,-1
 305 682 l 1,2,-1
 305 0 l 1,3,-1
 34 0 l 1,0,-1
68 34 m 1,4,-1
 271 34 l 1,5,-1
 271 648 l 1,6,-1
 68 648 l 1,7,-1
 68 34 l 1,4,-1
EndSplineSet
EndChar

StartChar: exclam
Encoding: 33 33 4
Width: 335
Flags: HW
LayerCount: 2
Fore
SplineSet
254 106 m 1,0,1
 261 84 261 84 262 66 c 128,-1,2
 263 48 263 48 261 36.5 c 128,-1,3
 259 25 259 25 248 9 c 128,-1,4
 237 -7 237 -7 230 -14.5 c 128,-1,5
 223 -22 223 -22 205 -40 c 1,6,7
 186 -34 186 -34 159.5 -14.5 c 128,-1,8
 133 5 133 5 124 9 c 1,9,10
 121 68 121 68 153.5 92 c 128,-1,11
 186 116 186 116 254 106 c 1,0,1
205 950 m 1,12,13
 201 874 201 874 210.5 773 c 128,-1,14
 220 672 220 672 232.5 593.5 c 128,-1,15
 245 515 245 515 244.5 421 c 128,-1,16
 244 327 244 327 221 253 c 1,17,18
 195 247 195 247 180 253.5 c 128,-1,19
 165 260 165 260 161 276 c 128,-1,20
 157 292 157 292 156 313 c 128,-1,21
 155 334 155 334 157 356.5 c 128,-1,22
 159 379 159 379 157 398 c 1,23,24
 140 438 140 438 131.5 506.5 c 128,-1,25
 123 575 123 575 121 639 c 128,-1,26
 119 703 119 703 108 777.5 c 128,-1,27
 97 852 97 852 76 901 c 1,28,29
 81 921 81 921 100.5 947.5 c 128,-1,30
 120 974 120 974 124 983 c 1,31,32
 141 987 141 987 151 981.5 c 128,-1,33
 161 976 161 976 165 966.5 c 128,-1,34
 169 957 169 957 179 951.5 c 128,-1,35
 189 946 189 946 205 950 c 1,12,13
EndSplineSet
EndChar

StartChar: quotedbl
Encoding: 34 34 5
Width: 512
Flags: HW
LayerCount: 2
Fore
SplineSet
157 897 m 1,0,1
 168 848 168 848 161.5 754 c 128,-1,2
 155 660 155 660 147 589 c 128,-1,3
 139 518 139 518 151 445 c 1,4,5
 131 421 131 421 122 414.5 c 128,-1,6
 113 408 113 408 86 391 c 1,7,8
 76 438 76 438 77.5 504 c 128,-1,9
 79 570 79 570 85.5 625 c 128,-1,10
 92 680 92 680 94 743 c 128,-1,11
 96 806 96 806 88 847 c 1,12,13
 104 858 104 858 118 874 c 128,-1,14
 132 890 132 890 139.5 895.5 c 128,-1,15
 147 901 147 901 157 897 c 1,0,1
416 893 m 1,16,17
 427 844 427 844 421 750 c 128,-1,18
 415 656 415 656 406.5 585 c 128,-1,19
 398 514 398 514 411 441 c 1,20,21
 389 417 389 417 380.5 410 c 128,-1,22
 372 403 372 403 345 387 c 1,23,24
 336 434 336 434 337 500 c 128,-1,25
 338 566 338 566 345 621 c 128,-1,26
 352 676 352 676 354 739 c 128,-1,27
 356 802 356 802 347 843 c 1,28,29
 363 854 363 854 377 869.5 c 128,-1,30
 391 885 391 885 398.5 891 c 128,-1,31
 406 897 406 897 416 893 c 1,16,17
EndSplineSet
EndChar

StartChar: quotesingle
Encoding: 39 39 6
Width: 348
Flags: HW
LayerCount: 2
Fore
SplineSet
157 805 m 1,0,-1
 245 683 l 1,1,2
 260 629 260 629 261 584 c 128,-1,3
 262 539 262 539 253 512 c 128,-1,4
 244 485 244 485 232.5 465.5 c 128,-1,5
 221 446 221 446 211 439 c 2,6,-1
 202 432 l 1,7,8
 208 471 208 471 209 501 c 128,-1,9
 210 531 210 531 204.5 552.5 c 128,-1,10
 199 574 199 574 193.5 585.5 c 128,-1,11
 188 597 188 597 177 614.5 c 128,-1,12
 166 632 166 632 163 639 c 1,13,14
 105 639 105 639 51 692 c 1,15,16
 43 727 43 727 78 761.5 c 128,-1,17
 113 796 113 796 157 805 c 1,0,-1
EndSplineSet
EndChar

StartChar: parenleft
Encoding: 40 40 7
Width: 524
Flags: HW
LayerCount: 2
Fore
SplineSet
404 861 m 1,0,1
 346 819 346 819 296 738.5 c 128,-1,2
 246 658 246 658 214 563 c 128,-1,3
 182 468 182 468 174.5 363 c 128,-1,4
 167 258 167 258 185 167 c 128,-1,5
 203 76 203 76 259 4 c 128,-1,6
 315 -68 315 -68 404 -96 c 1,7,8
 238 -116 238 -116 150 42 c 0,9,10
 71 184 71 184 82 404 c 0,11,12
 92 622 92 622 184 777 c 0,13,14
 249 887 249 887 340 926 c 1,15,16
 362 923 362 923 377.5 895 c 128,-1,17
 393 867 393 867 404 861 c 1,0,1
EndSplineSet
EndChar

StartChar: parenright
Encoding: 41 41 8
Width: 565
Flags: HW
LayerCount: 2
Fore
SplineSet
245 -87 m 1,0,1
 257 -49 257 -49 283.5 23 c 128,-1,2
 310 95 310 95 329 147.5 c 128,-1,3
 348 200 348 200 365 274 c 128,-1,4
 382 348 382 348 384.5 409 c 128,-1,5
 387 470 387 470 370.5 540 c 128,-1,6
 354 610 354 610 315 672 c 0,7,8
 298 700 298 700 270 724.5 c 128,-1,9
 242 749 242 749 216 765 c 128,-1,10
 190 781 190 781 165.5 799.5 c 128,-1,11
 141 818 141 818 124.5 843.5 c 128,-1,12
 108 869 108 869 103 901 c 0,13,14
 99 931 99 931 121 937 c 1,15,16
 204 937 204 937 271 901.5 c 128,-1,17
 338 866 338 866 380 805.5 c 128,-1,18
 422 745 422 745 447 665.5 c 128,-1,19
 472 586 472 586 477 499.5 c 128,-1,20
 482 413 482 413 469.5 323 c 128,-1,21
 457 233 457 233 428 155 c 128,-1,22
 399 77 399 77 351.5 12.5 c 128,-1,23
 304 -52 304 -52 245 -87 c 1,0,1
EndSplineSet
EndChar

StartChar: asterisk
Encoding: 42 42 9
Width: 479
Flags: HW
LayerCount: 2
Fore
SplineSet
341 914 m 1,0,1
 336 894 336 894 316 867 c 128,-1,2
 296 840 296 840 290 825 c 1,3,4
 307 815 307 815 341.5 817.5 c 128,-1,5
 376 820 376 820 392 812 c 1,6,7
 389 798 389 798 380 792 c 128,-1,8
 371 786 371 786 361 787 c 128,-1,9
 351 788 351 788 337.5 791 c 128,-1,10
 324 794 324 794 315 794 c 1,11,12
 320 781 320 781 333 770 c 128,-1,13
 346 759 346 759 358.5 753.5 c 128,-1,14
 371 748 371 748 383 737 c 128,-1,15
 395 726 395 726 398 711 c 1,16,17
 379 707 379 707 360 715.5 c 128,-1,18
 341 724 341 724 327.5 737 c 128,-1,19
 314 750 314 750 295 763.5 c 128,-1,20
 276 777 276 777 258 780 c 1,21,22
 245 762 245 762 248 720 c 128,-1,23
 251 678 251 678 256 645 c 128,-1,24
 261 612 261 612 246 584 c 1,25,26
 232 582 232 582 226.5 601 c 128,-1,27
 221 620 221 620 223 643.5 c 128,-1,28
 225 667 225 667 223.5 688 c 128,-1,29
 222 709 222 709 214 711 c 0,30,31
 202 714 202 714 191 696.5 c 128,-1,32
 180 679 180 679 173 657 c 128,-1,33
 166 635 166 635 151.5 619 c 128,-1,34
 137 603 137 603 119 609 c 1,35,36
 130 646 130 646 165.5 700.5 c 128,-1,37
 201 755 201 755 208 768 c 1,38,39
 191 774 191 774 165.5 768.5 c 128,-1,40
 140 763 140 763 123 759 c 128,-1,41
 106 755 106 755 81 768 c 1,42,43
 80 791 80 791 101 798 c 128,-1,44
 122 805 122 805 147.5 802.5 c 128,-1,45
 173 800 173 800 195 806 c 1,46,47
 195 816 195 816 187 821.5 c 128,-1,48
 179 827 179 827 171 830 c 128,-1,49
 163 833 163 833 156.5 839.5 c 128,-1,50
 150 846 150 846 151 857 c 1,51,52
 156 861 156 861 170.5 866 c 128,-1,53
 185 871 185 871 194 878.5 c 128,-1,54
 203 886 203 886 202 901 c 1,55,-1
 233 901 l 1,56,57
 240 888 240 888 241.5 863.5 c 128,-1,58
 243 839 243 839 246 831 c 1,59,60
 258 836 258 836 270 853 c 128,-1,61
 282 870 282 870 288.5 885.5 c 128,-1,62
 295 901 295 901 309 910 c 128,-1,63
 323 919 323 919 341 914 c 1,0,1
EndSplineSet
EndChar

StartChar: plus
Encoding: 43 43 10
Width: 790
Flags: HW
LayerCount: 2
Fore
SplineSet
718 465 m 1,0,1
 723 441 723 441 717.5 428 c 128,-1,2
 712 415 712 415 697.5 411 c 128,-1,3
 683 407 683 407 664 406.5 c 128,-1,4
 645 406 645 406 625.5 408 c 128,-1,5
 606 410 606 410 589 408 c 1,6,7
 547 390 547 390 460 381 c 1,8,9
 470 311 470 311 469 231 c 128,-1,10
 468 151 468 151 449 86 c 1,11,12
 426 81 426 81 412 87 c 128,-1,13
 398 93 398 93 394.5 107 c 128,-1,14
 391 121 391 121 390 140 c 128,-1,15
 389 159 389 159 391 178.5 c 128,-1,16
 393 198 393 198 391 216 c 1,17,18
 371 263 371 263 362 374 c 1,19,20
 208 365 208 365 141 335 c 1,21,22
 124 340 124 340 100.5 357 c 128,-1,23
 77 374 77 374 70 378 c 1,24,25
 66 393 66 393 71 402 c 128,-1,26
 76 411 76 411 83.5 414.5 c 128,-1,27
 91 418 91 418 96 426.5 c 128,-1,28
 101 435 101 435 98 451 c 1,29,30
 184 445 184 445 356 467 c 1,31,32
 347 599 347 599 318 663 c 1,33,34
 323 680 323 680 340.5 703.5 c 128,-1,35
 358 727 358 727 362 735 c 1,36,37
 376 738 376 738 385.5 733 c 128,-1,38
 395 728 395 728 398 720.5 c 128,-1,39
 401 713 401 713 410.5 707.5 c 128,-1,40
 420 702 420 702 434 707 c 1,41,42
 429 624 429 624 447 478 c 1,43,44
 616 496 616 496 718 465 c 1,0,1
EndSplineSet
EndChar

StartChar: comma
Encoding: 44 44 11
Width: 368
Flags: HW
LayerCount: 2
Fore
SplineSet
264 94 m 1,0,1
 281 23 281 23 243 -15 c 1,2,3
 221 -50 221 -50 192.5 -79 c 128,-1,4
 164 -108 164 -108 139 -123.5 c 128,-1,5
 114 -139 114 -139 91.5 -149.5 c 128,-1,6
 69 -160 69 -160 55 -163 c 2,7,-1
 42 -167 l 1,8,9
 82 -141 82 -141 112.5 -103.5 c 128,-1,10
 143 -66 143 -66 156 -41 c 128,-1,11
 169 -16 169 -16 177 7 c 1,12,13
 147 39 147 39 150 94 c 1,14,15
 167 117 167 117 202 115 c 128,-1,16
 237 113 237 113 264 94 c 1,0,1
EndSplineSet
EndChar

StartChar: hyphen
Encoding: 45 45 12
Width: 860
Flags: HW
LayerCount: 2
Fore
SplineSet
78 393 m 1,0,1
 157 388 157 388 263 398.5 c 128,-1,2
 369 409 369 409 450.5 421.5 c 128,-1,3
 532 434 532 434 631 434 c 128,-1,4
 730 434 730 434 807 411 c 1,5,6
 813 383 813 383 806 367 c 128,-1,7
 799 351 799 351 782.5 346.5 c 128,-1,8
 766 342 766 342 744 341 c 128,-1,9
 722 340 722 340 698.5 342.5 c 128,-1,10
 675 345 675 345 654 342 c 1,11,12
 613 325 613 325 541.5 315.5 c 128,-1,13
 470 306 470 306 403 304.5 c 128,-1,14
 336 303 336 303 258 291.5 c 128,-1,15
 180 280 180 280 129 257 c 1,16,17
 109 263 109 263 81 283.5 c 128,-1,18
 53 304 53 304 44 308 c 1,19,20
 40 325 40 325 45.5 336 c 128,-1,21
 51 347 51 347 60.5 350.5 c 128,-1,22
 70 354 70 354 76 365 c 128,-1,23
 82 376 82 376 78 393 c 1,0,1
EndSplineSet
EndChar

StartChar: period
Encoding: 46 46 13
Width: 296
Flags: HW
LayerCount: 2
Fore
SplineSet
194 73 m 1,0,1
 210 38 210 38 208 9.5 c 128,-1,2
 206 -19 206 -19 183 -45 c 1,3,4
 97 -36 97 -36 85 53 c 1,5,6
 95 77 95 77 131 82 c 128,-1,7
 167 87 167 87 194 73 c 1,0,1
EndSplineSet
EndChar

StartChar: slash
Encoding: 47 47 14
Width: 557
Flags: HW
LayerCount: 2
Fore
SplineSet
504 967 m 1,0,1
 480 864 480 864 426.5 726.5 c 128,-1,2
 373 589 373 589 320 475 c 128,-1,3
 267 361 267 361 213 224 c 128,-1,4
 159 87 159 87 135 -16 c 1,5,6
 97 -28 97 -28 83 -28.5 c 128,-1,7
 69 -29 69 -29 30 -16 c 1,8,9
 59 107 59 107 113 249.5 c 128,-1,10
 167 392 167 392 217.5 500.5 c 128,-1,11
 268 609 268 609 320.5 743 c 128,-1,12
 373 877 373 877 398 984 c 1,13,14
 421 980 421 980 439 983.5 c 128,-1,15
 457 987 457 987 469 992.5 c 128,-1,16
 481 998 481 998 490 993.5 c 128,-1,17
 499 989 499 989 504 967 c 1,0,1
EndSplineSet
EndChar

StartChar: zero
Encoding: 48 48 15
Width: 1257
Flags: HW
LayerCount: 2
Fore
SplineSet
1195 526 m 0,0,1
 1227 333 1227 333 888 118 c 0,2,3
 846 91 846 91 780 64 c 128,-1,4
 714 37 714 37 633.5 15 c 128,-1,5
 553 -7 553 -7 469 -20 c 128,-1,6
 385 -33 385 -33 305.5 -28 c 128,-1,7
 226 -23 226 -23 163 -0.5 c 128,-1,8
 100 22 100 22 61.5 73.5 c 128,-1,9
 23 125 23 125 20 204 c 0,10,11
 19 226 19 226 24.5 248 c 128,-1,12
 30 270 30 270 37.5 289 c 128,-1,13
 45 308 45 308 60 330 c 128,-1,14
 75 352 75 352 86.5 367.5 c 128,-1,15
 98 383 98 383 119.5 404 c 128,-1,16
 141 425 141 425 154 437 c 128,-1,17
 167 449 167 449 192 468 c 128,-1,18
 217 487 217 487 227.5 495.5 c 128,-1,19
 238 504 238 504 263 522 c 128,-1,20
 288 540 288 540 293 544 c 0,21,22
 297 548 297 548 308 555 c 1,23,24
 352 589 352 589 382.5 609.5 c 128,-1,25
 413 630 413 630 467 662.5 c 128,-1,26
 521 695 521 695 580.5 716.5 c 128,-1,27
 640 738 640 738 701 749 c 0,28,29
 744 755 744 755 822 741.5 c 128,-1,30
 900 728 900 728 980 701 c 128,-1,31
 1060 674 1060 674 1123 626.5 c 128,-1,32
 1186 579 1186 579 1195 526 c 0,0,1
139 135 m 1,33,34
 184 91 184 91 260.5 72.5 c 128,-1,35
 337 54 337 54 445 50 c 1,36,37
 464 129 464 129 530.5 312.5 c 128,-1,38
 597 496 597 496 616 612 c 1,39,40
 561 594 561 594 515.5 575.5 c 128,-1,41
 470 557 470 557 417.5 531.5 c 128,-1,42
 365 506 365 506 324.5 478.5 c 128,-1,43
 284 451 284 451 246 414 c 128,-1,44
 208 377 208 377 184 336 c 128,-1,45
 160 295 160 295 147.5 243.5 c 128,-1,46
 135 192 135 192 139 135 c 1,33,34
565 84 m 1,47,48
 998 159 998 159 1110 510 c 1,49,50
 1091 541 1091 541 1063 563.5 c 128,-1,51
 1035 586 1035 586 1006.5 598 c 128,-1,52
 978 610 978 610 938.5 617.5 c 128,-1,53
 899 625 899 625 866 627 c 128,-1,54
 833 629 833 629 786 629 c 1,55,56
 749 569 749 569 737 546.5 c 128,-1,57
 725 524 725 524 694.5 468.5 c 128,-1,58
 664 413 664 413 650 379 c 128,-1,59
 636 345 636 345 615.5 293 c 128,-1,60
 595 241 595 241 583.5 190 c 128,-1,61
 572 139 572 139 565 84 c 1,47,48
EndSplineSet
EndChar

StartChar: one
Encoding: 49 49 16
Width: 753
Flags: HW
LayerCount: 2
Fore
SplineSet
467 861 m 1,0,1
 475 796 475 796 476 698.5 c 128,-1,2
 477 601 477 601 474.5 514.5 c 128,-1,3
 472 428 472 428 469.5 312 c 128,-1,4
 467 196 467 196 467 120 c 1,5,6
 517 116 517 116 569 120.5 c 128,-1,7
 621 125 621 125 642 127.5 c 128,-1,8
 663 130 663 130 703 120 c 1,9,10
 712 104 712 104 715 90 c 128,-1,11
 718 76 718 76 713 62 c 128,-1,12
 708 48 708 48 704 40.5 c 128,-1,13
 700 33 700 33 688 16 c 128,-1,14
 676 -1 676 -1 672 -6 c 1,15,16
 619 10 619 10 561 11.5 c 128,-1,17
 503 13 503 13 454.5 4 c 128,-1,18
 406 -5 406 -5 352 -18 c 128,-1,19
 298 -31 298 -31 252 -43 c 128,-1,20
 206 -55 206 -55 154 -58.5 c 128,-1,21
 102 -62 102 -62 56 -53 c 1,22,23
 61 -15 61 -15 81.5 11.5 c 128,-1,24
 102 38 102 38 130 51.5 c 128,-1,25
 158 65 158 65 198.5 73.5 c 128,-1,26
 239 82 239 82 275 85 c 128,-1,27
 311 88 311 88 357.5 92.5 c 128,-1,28
 404 97 404 97 435 104 c 1,29,30
 395 230 395 230 383 343 c 128,-1,31
 371 456 371 456 373 641 c 1,32,33
 354 642 354 642 321 623 c 128,-1,34
 288 604 288 604 254.5 582.5 c 128,-1,35
 221 561 221 561 184 544.5 c 128,-1,36
 147 528 147 528 109.5 535 c 128,-1,37
 72 542 72 542 41 578 c 1,38,39
 66 610 66 610 107 637 c 128,-1,40
 148 664 148 664 189 683 c 128,-1,41
 230 702 230 702 270.5 725 c 128,-1,42
 311 748 311 748 343 782 c 128,-1,43
 375 816 375 816 388 861 c 1,44,-1
 467 861 l 1,0,1
EndSplineSet
EndChar

StartChar: two
Encoding: 50 50 17
Width: 856
Flags: HW
LayerCount: 2
Fore
SplineSet
478 831 m 1,0,1
 502 770 502 770 504.5 706 c 128,-1,2
 507 642 507 642 493 588.5 c 128,-1,3
 479 535 479 535 454 475 c 128,-1,4
 429 415 429 415 403 367 c 128,-1,5
 377 319 377 319 349 261.5 c 128,-1,6
 321 204 321 204 306 161 c 1,7,8
 338 153 338 153 382.5 153 c 128,-1,9
 427 153 427 153 473 159.5 c 128,-1,10
 519 166 519 166 569.5 169 c 128,-1,11
 620 172 620 172 663 171.5 c 128,-1,12
 706 171 706 171 744 155.5 c 128,-1,13
 782 140 782 140 805 110 c 1,14,15
 583 88 583 88 417 45.5 c 128,-1,16
 251 3 251 3 134 -80 c 1,17,18
 99 -45 99 -45 93 -11.5 c 128,-1,19
 87 22 87 22 106 51 c 128,-1,20
 125 80 125 80 150 104.5 c 128,-1,21
 175 129 175 129 207.5 159 c 128,-1,22
 240 189 240 189 255 213 c 0,23,24
 314 305 314 305 348.5 425.5 c 128,-1,25
 383 546 383 546 410 711 c 1,26,27
 380 724 380 724 351.5 725.5 c 128,-1,28
 323 727 323 727 298 717.5 c 128,-1,29
 273 708 273 708 250.5 693 c 128,-1,30
 228 678 228 678 209.5 657 c 128,-1,31
 191 636 191 636 177 615.5 c 128,-1,32
 163 595 163 595 152 573 c 1,33,34
 118 570 118 570 104.5 572 c 128,-1,35
 91 574 91 574 68 581.5 c 128,-1,36
 45 589 45 589 32 591 c 1,37,38
 34 652 34 652 61.5 701 c 128,-1,39
 89 750 89 750 133.5 778.5 c 128,-1,40
 178 807 178 807 235 825 c 128,-1,41
 292 843 292 843 354 842 c 128,-1,42
 416 841 416 841 478 831 c 1,0,1
EndSplineSet
EndChar

StartChar: three
Encoding: 51 51 18
Width: 1019
Flags: HW
LayerCount: 2
Fore
SplineSet
651 815 m 1,0,1
 656 774 656 774 648.5 743.5 c 128,-1,2
 641 713 641 713 623.5 692.5 c 128,-1,3
 606 672 606 672 587 656.5 c 128,-1,4
 568 641 568 641 545 621.5 c 128,-1,5
 522 602 522 602 509 584 c 1,6,7
 538 568 538 568 577.5 548.5 c 128,-1,8
 617 529 617 529 652.5 514 c 128,-1,9
 688 499 688 499 729 479.5 c 128,-1,10
 770 460 770 460 803 440 c 128,-1,11
 836 420 836 420 867.5 395 c 128,-1,12
 899 370 899 370 920.5 338.5 c 128,-1,13
 942 307 942 307 955.5 270.5 c 128,-1,14
 969 234 969 234 968.5 187 c 128,-1,15
 968 140 968 140 953 86 c 1,16,17
 886 34 886 34 775 8 c 128,-1,18
 664 -18 664 -18 546.5 -16 c 128,-1,19
 429 -14 429 -14 314 8 c 128,-1,20
 199 30 199 30 118 69 c 1,21,22
 154 82 154 82 217 82.5 c 128,-1,23
 280 83 280 83 346.5 76 c 128,-1,24
 413 69 413 69 490 65 c 128,-1,25
 567 61 567 61 634 64.5 c 128,-1,26
 701 68 701 68 763.5 91 c 128,-1,27
 826 114 826 114 864 158 c 1,28,29
 860 188 860 188 883 193 c 1,30,31
 867 253 867 253 826 296.5 c 128,-1,32
 785 340 785 340 733.5 363.5 c 128,-1,33
 682 387 682 387 616.5 407.5 c 128,-1,34
 551 428 551 428 491 441.5 c 128,-1,35
 431 455 431 455 367 478 c 128,-1,36
 303 501 303 501 260 530 c 1,37,38
 264 571 264 571 290 599 c 128,-1,39
 316 627 316 627 347 638.5 c 128,-1,40
 378 650 378 650 416 669 c 128,-1,41
 454 688 454 688 473 709 c 1,42,43
 442 725 442 725 403 727 c 128,-1,44
 364 729 364 729 327 719.5 c 128,-1,45
 290 710 290 710 249 699 c 128,-1,46
 208 688 208 688 173.5 681 c 128,-1,47
 139 674 139 674 105 679.5 c 128,-1,48
 71 685 71 685 47 709 c 1,49,50
 42 757 42 757 88 789.5 c 128,-1,51
 134 822 134 822 208.5 835.5 c 128,-1,52
 283 849 283 849 367.5 851 c 128,-1,53
 452 853 452 853 528.5 842.5 c 128,-1,54
 605 832 605 832 651 815 c 1,0,1
EndSplineSet
EndChar

StartChar: four
Encoding: 52 52 19
Width: 774
Flags: HW
LayerCount: 2
Fore
SplineSet
348 877 m 1,0,1
 360 842 360 842 364.5 804.5 c 128,-1,2
 369 767 369 767 367 735 c 128,-1,3
 365 703 365 703 354 664 c 128,-1,4
 343 625 343 625 333.5 597.5 c 128,-1,5
 324 570 324 570 303.5 529.5 c 128,-1,6
 283 489 283 489 271 467 c 128,-1,7
 259 445 259 445 236 406 c 0,8,9
 230 395 230 395 226 389 c 1,10,11
 353 353 353 353 577 358 c 1,12,13
 591 411 591 411 588 459 c 128,-1,14
 585 507 585 507 579 555.5 c 128,-1,15
 573 604 573 604 567.5 644 c 128,-1,16
 562 684 562 684 571 722 c 128,-1,17
 580 760 580 760 607 785 c 1,18,19
 644 736 644 736 658.5 652 c 128,-1,20
 673 568 673 568 671.5 475.5 c 128,-1,21
 670 383 670 383 667 289.5 c 128,-1,22
 664 196 664 196 674 106.5 c 128,-1,23
 684 17 684 17 714 -37 c 1,24,25
 668 -48 668 -48 640.5 -37 c 128,-1,26
 613 -26 613 -26 604 0 c 128,-1,27
 595 26 595 26 592.5 62.5 c 128,-1,28
 590 99 590 99 592.5 135.5 c 128,-1,29
 595 172 595 172 591.5 209 c 128,-1,30
 588 246 588 246 577 267 c 1,31,32
 569 267 569 267 552 268 c 0,33,34
 486 270 486 270 450.5 270.5 c 128,-1,35
 415 271 415 271 351.5 269 c 128,-1,36
 288 267 288 267 246.5 261 c 128,-1,37
 205 255 205 255 157 241 c 128,-1,38
 109 227 109 227 74 207 c 1,39,40
 69 213 69 213 63 229 c 128,-1,41
 57 245 57 245 49.5 255 c 128,-1,42
 42 265 42 265 29 267 c 1,43,44
 33 273 33 273 43 286 c 0,45,46
 80 331 80 331 99 355 c 128,-1,47
 118 379 118 379 150 424.5 c 128,-1,48
 182 470 182 470 197.5 502 c 128,-1,49
 213 534 213 534 232 581 c 128,-1,50
 251 628 251 628 255.5 668.5 c 128,-1,51
 260 709 260 709 258 759.5 c 128,-1,52
 256 810 256 810 242 861 c 1,53,54
 265 858 265 858 292.5 870.5 c 128,-1,55
 320 883 320 883 348 877 c 1,0,1
EndSplineSet
EndChar

StartChar: five
Encoding: 53 53 20
Width: 884
Flags: HW
LayerCount: 2
Fore
SplineSet
843 887 m 1,0,1
 774 863 774 863 674 841 c 128,-1,2
 574 819 574 819 493 805.5 c 128,-1,3
 412 792 412 792 318.5 766 c 128,-1,4
 225 740 225 740 160 709 c 1,5,6
 180 598 180 598 175 530 c 1,7,8
 223 572 223 572 297 589.5 c 128,-1,9
 371 607 371 607 441.5 598.5 c 128,-1,10
 512 590 512 590 571 552.5 c 128,-1,11
 630 515 630 515 650 456 c 1,12,13
 653 367 653 367 631 282.5 c 128,-1,14
 609 198 609 198 566 133.5 c 128,-1,15
 523 69 523 69 463 26.5 c 128,-1,16
 403 -16 403 -16 330 -21 c 128,-1,17
 257 -26 257 -26 175 10 c 1,18,19
 175 24 175 24 168.5 41 c 128,-1,20
 162 58 162 58 156.5 68.5 c 128,-1,21
 151 79 151 79 149.5 92.5 c 128,-1,22
 148 106 148 106 160 115 c 1,23,24
 182 115 182 115 197 103.5 c 128,-1,25
 212 92 212 92 219 77 c 128,-1,26
 226 62 226 62 237.5 47 c 128,-1,27
 249 32 249 32 264 26 c 1,28,29
 379 12 379 12 473 118 c 0,30,31
 552 207 552 207 570 323 c 1,32,33
 587 443 587 443 521 499 c 0,34,35
 490 526 490 526 442 530 c 0,36,37
 400 535 400 535 364 523 c 128,-1,38
 328 511 328 511 298 487 c 128,-1,39
 268 463 268 463 243 437 c 128,-1,40
 218 411 218 411 188 382 c 128,-1,41
 158 353 158 353 130 337 c 1,42,43
 92 351 92 351 78.5 383 c 128,-1,44
 65 415 65 415 68 456.5 c 128,-1,45
 71 498 71 498 76.5 541.5 c 128,-1,46
 82 585 82 585 75.5 631 c 128,-1,47
 69 677 69 677 41 709 c 1,48,49
 74 758 74 758 145 797 c 128,-1,50
 216 836 216 836 303.5 857.5 c 128,-1,51
 391 879 391 879 488.5 890 c 128,-1,52
 586 901 586 901 677.5 900 c 128,-1,53
 769 899 769 899 843 887 c 1,0,1
EndSplineSet
EndChar

StartChar: six
Encoding: 54 54 21
Width: 901
Flags: HW
LayerCount: 2
Fore
SplineSet
831 457 m 1,0,1
 898 256 898 256 771 114 c 0,2,3
 674 5 674 5 503 -31 c 0,4,5
 335 -66 335 -66 202 -9 c 0,6,7
 71 46 71 46 42 171 c 0,8,9
 27 234 27 234 43.5 349 c 128,-1,10
 60 464 60 464 94.5 575 c 128,-1,11
 129 686 129 686 179 774.5 c 128,-1,12
 229 863 229 863 276 877 c 0,13,14
 286 880 286 880 310 877 c 128,-1,15
 334 874 334 874 344 877 c 1,16,17
 336 820 336 820 309.5 752 c 128,-1,18
 283 684 283 684 253 624 c 128,-1,19
 223 564 223 564 195 502 c 128,-1,20
 167 440 167 440 151.5 375.5 c 128,-1,21
 136 311 136 311 142 255 c 0,22,23
 146 216 146 216 160.5 183 c 128,-1,24
 175 150 175 150 203 119.5 c 128,-1,25
 231 89 231 89 280 71 c 128,-1,26
 329 53 329 53 394 53 c 1,27,28
 394 116 394 116 413 190.5 c 128,-1,29
 432 265 432 265 469 334.5 c 128,-1,30
 506 404 506 404 559 450 c 128,-1,31
 612 496 612 496 680.5 502 c 128,-1,32
 749 508 749 508 831 457 c 1,0,1
496 70 m 1,33,34
 566 71 566 71 622 97 c 128,-1,35
 678 123 678 123 712 168 c 128,-1,36
 746 213 746 213 757.5 274.5 c 128,-1,37
 769 336 769 336 748 407 c 1,38,39
 671 416 671 416 612.5 371 c 128,-1,40
 554 326 554 326 525 247 c 128,-1,41
 496 168 496 168 496 70 c 1,33,34
EndSplineSet
EndChar

StartChar: seven
Encoding: 55 55 22
Width: 798
Flags: HW
LayerCount: 2
Fore
SplineSet
699 847 m 1,0,1
 699 812 699 812 684.5 776 c 128,-1,2
 670 740 670 740 646 707.5 c 128,-1,3
 622 675 622 675 596 643 c 128,-1,4
 570 611 570 611 545 573 c 128,-1,5
 520 535 520 535 508 499 c 1,6,7
 521 484 521 484 554 480.5 c 128,-1,8
 587 477 587 477 620 481 c 128,-1,9
 653 485 653 485 686.5 482.5 c 128,-1,10
 720 480 720 480 733 464 c 1,11,12
 714 436 714 436 668.5 421.5 c 128,-1,13
 623 407 623 407 578.5 403 c 128,-1,14
 534 399 534 399 487.5 385 c 128,-1,15
 441 371 441 371 421 343 c 1,16,17
 420 338 420 338 419 329 c 0,18,19
 412 288 412 288 409 267 c 128,-1,20
 406 246 406 246 401.5 210 c 128,-1,21
 397 174 397 174 397.5 153 c 128,-1,22
 398 132 398 132 401 103.5 c 128,-1,23
 404 75 404 75 413 55.5 c 128,-1,24
 422 36 422 36 437 15 c 128,-1,25
 452 -6 452 -6 473 -23 c 1,26,27
 462 -46 462 -46 444.5 -50.5 c 128,-1,28
 427 -55 427 -55 406.5 -45.5 c 128,-1,29
 386 -36 386 -36 368 -22.5 c 128,-1,30
 350 -9 350 -9 329.5 8 c 128,-1,31
 309 25 309 25 299 30 c 1,32,33
 295 92 295 92 302 167 c 128,-1,34
 309 242 309 242 315.5 273 c 128,-1,35
 322 304 322 304 334 360 c 1,36,37
 312 356 312 356 279 344 c 128,-1,38
 246 332 246 332 214 325.5 c 128,-1,39
 182 319 182 319 143 326 c 1,40,41
 147 343 147 343 141 354 c 128,-1,42
 135 365 135 365 125.5 369 c 128,-1,43
 116 373 116 373 110 383.5 c 128,-1,44
 104 394 104 394 109 413 c 1,45,46
 269 430 269 430 368.5 503.5 c 128,-1,47
 468 577 468 577 508 725 c 1,48,49
 485 723 485 723 443.5 715.5 c 128,-1,50
 402 708 402 708 365.5 701.5 c 128,-1,51
 329 695 329 695 283.5 689.5 c 128,-1,52
 238 684 238 684 200.5 685.5 c 128,-1,53
 163 687 163 687 128.5 694.5 c 128,-1,54
 94 702 94 702 71 723 c 128,-1,55
 48 744 48 744 39 777 c 1,56,57
 69 826 69 826 105 833.5 c 128,-1,58
 141 841 141 841 196 812 c 1,59,60
 264 797 264 797 318.5 804 c 128,-1,61
 373 811 373 811 427 826 c 128,-1,62
 481 841 481 841 524.5 855.5 c 128,-1,63
 568 870 568 870 614 870 c 128,-1,64
 660 870 660 870 699 847 c 1,0,1
EndSplineSet
EndChar

StartChar: eight
Encoding: 56 56 23
Width: 974
Flags: HW
LayerCount: 2
Fore
SplineSet
657 632 m 1,0,1
 878 639 878 639 919 509 c 0,2,3
 950 406 950 406 859 255 c 1,4,5
 777 121 777 121 650 33 c 0,6,7
 505 -68 505 -68 388 -41 c 0,8,9
 328 -27 328 -27 292.5 21.5 c 128,-1,10
 257 70 257 70 252 133 c 128,-1,11
 247 196 247 196 264.5 266 c 128,-1,12
 282 336 282 336 321 396 c 1,13,14
 71 392 71 392 35 498 c 1,15,16
 45 624 45 624 176 737 c 0,17,18
 291 835 291 835 425 866 c 0,19,20
 565 898 565 898 629 827 c 1,21,22
 684 764 684 764 657 632 c 1,0,1
153 514 m 1,23,24
 199 499 199 499 251 498.5 c 128,-1,25
 303 498 303 498 343.5 505 c 128,-1,26
 384 512 384 512 436 531 c 128,-1,27
 488 550 488 550 516.5 562.5 c 128,-1,28
 545 575 545 575 590 598 c 1,29,30
 565 605 565 605 559.5 621 c 128,-1,31
 554 637 554 637 561.5 656.5 c 128,-1,32
 569 676 569 676 573.5 700 c 128,-1,33
 578 724 578 724 573 750 c 1,34,35
 522 797 522 797 457.5 788.5 c 128,-1,36
 393 780 393 780 332 739 c 128,-1,37
 271 698 271 698 222 636 c 128,-1,38
 173 574 173 574 153 514 c 1,23,24
354 94 m 1,39,40
 452 60 452 60 534.5 80.5 c 128,-1,41
 617 101 617 101 680.5 163 c 128,-1,42
 744 225 744 225 785 307.5 c 128,-1,43
 826 390 826 390 842 480 c 1,44,45
 831 498 831 498 813 512.5 c 128,-1,46
 795 527 795 527 769.5 537.5 c 128,-1,47
 744 548 744 548 725 553.5 c 128,-1,48
 706 559 706 559 673 568 c 128,-1,49
 640 577 640 577 624 582 c 1,50,51
 616 539 616 539 594.5 503 c 128,-1,52
 573 467 573 467 546.5 441.5 c 128,-1,53
 520 416 520 416 490 391.5 c 128,-1,54
 460 367 460 367 433 339.5 c 128,-1,55
 406 312 406 312 385.5 279.5 c 128,-1,56
 365 247 365 247 356 199.5 c 128,-1,57
 347 152 347 152 354 94 c 1,39,40
EndSplineSet
EndChar

StartChar: nine
Encoding: 57 57 24
Width: 995
Flags: HW
LayerCount: 2
Fore
SplineSet
863 513 m 1,0,1
 826 357 826 357 855.5 220 c 128,-1,2
 885 83 885 83 962 2 c 1,3,4
 930 -15 930 -15 900.5 -16 c 128,-1,5
 871 -17 871 -17 849 -3.5 c 128,-1,6
 827 10 827 10 808.5 32.5 c 128,-1,7
 790 55 790 55 776 88 c 128,-1,8
 762 121 762 121 751 156 c 128,-1,9
 740 191 740 191 733 231.5 c 128,-1,10
 726 272 726 272 722 308 c 128,-1,11
 718 344 718 344 715 381 c 1,12,13
 521 325 521 325 462 312 c 0,14,15
 154 246 154 246 53 392 c 0,16,17
 46 402 46 402 40 414 c 1,18,19
 76 482 76 482 128.5 544 c 128,-1,20
 181 606 181 606 251.5 660.5 c 128,-1,21
 322 715 322 715 401 745.5 c 128,-1,22
 480 776 480 776 568.5 779.5 c 128,-1,23
 657 783 657 783 749 743 c 1,24,25
 774 575 774 575 863 513 c 1,0,1
698 479 m 1,26,27
 704 504 704 504 692.5 515 c 128,-1,28
 681 526 681 526 664 527 c 128,-1,29
 647 528 647 528 631.5 536.5 c 128,-1,30
 616 545 616 545 616 562 c 1,31,32
 618 573 618 573 634.5 597 c 128,-1,33
 651 621 651 621 649 644 c 1,34,35
 549 685 549 685 452 657.5 c 128,-1,36
 355 630 355 630 280 562.5 c 128,-1,37
 205 495 205 495 172 414 c 1,38,39
 305 384 305 384 458.5 403.5 c 128,-1,40
 612 423 612 423 698 479 c 1,26,27
EndSplineSet
EndChar

StartChar: colon
Encoding: 58 58 25
Width: 413
Flags: HW
LayerCount: 2
Fore
SplineSet
304 71 m 1,0,1
 296 66 296 66 280.5 56.5 c 128,-1,2
 265 47 265 47 254 38.5 c 128,-1,3
 243 30 243 30 236 19 c 1,4,5
 207 19 207 19 182.5 28.5 c 128,-1,6
 158 38 158 38 145.5 47 c 128,-1,7
 133 56 133 56 111 77 c 128,-1,8
 89 98 89 98 81 105 c 1,9,10
 88 179 88 179 150 213 c 0,11,12
 206 244 206 244 255 216 c 0,13,14
 317 180 317 180 305 78 c 0,15,16
 304 74 304 74 304 71 c 1,0,1
236 465 m 1,17,18
 183 475 183 475 148 518 c 128,-1,19
 113 561 113 561 115 602 c 1,20,21
 122 694 122 694 185 709 c 0,22,23
 236 720 236 720 285 678 c 0,24,25
 338 632 338 632 327 572 c 0,26,27
 316 511 316 511 236 465 c 1,17,18
EndSplineSet
EndChar

StartChar: semicolon
Encoding: 59 59 26
Width: 389
Flags: HW
LayerCount: 2
Fore
SplineSet
217 528 m 1,0,1
 171 537 171 537 140.5 574.5 c 128,-1,2
 110 612 110 612 112 648 c 0,3,4
 118 731 118 731 176 742 c 0,5,6
 223 750 223 750 265 711 c 0,7,8
 312 666 312 666 294 611 c 1,9,10
 279 564 279 564 217 528 c 1,0,1
305 298 m 1,11,12
 320 248 320 248 314.5 207.5 c 128,-1,13
 309 167 309 167 279 135 c 1,14,15
 250 83 250 83 215.5 47 c 128,-1,16
 181 11 181 11 153.5 -2 c 128,-1,17
 126 -15 126 -15 102.5 -21 c 128,-1,18
 79 -27 79 -27 66 -25 c 2,19,-1
 53 -23 l 1,20,21
 88 2 88 2 111.5 24 c 128,-1,22
 135 46 135 46 147 67 c 128,-1,23
 159 88 159 88 164.5 101 c 128,-1,24
 170 114 170 114 174.5 136 c 128,-1,25
 179 158 179 158 181 166 c 1,26,27
 137 210 137 210 137 292 c 1,28,29
 161 326 161 326 212.5 325.5 c 128,-1,30
 264 325 264 325 305 298 c 1,11,12
EndSplineSet
EndChar

StartChar: equal
Encoding: 61 61 27
Width: 901
Flags: HW
LayerCount: 2
Fore
SplineSet
96 582 m 1,0,1
 171 577 171 577 272.5 586.5 c 128,-1,2
 374 596 374 596 452 608.5 c 128,-1,3
 530 621 530 621 624.5 620.5 c 128,-1,4
 719 620 719 620 793 597 c 1,5,6
 799 571 799 571 792 556 c 128,-1,7
 785 541 785 541 769.5 536.5 c 128,-1,8
 754 532 754 532 733 531 c 128,-1,9
 712 530 712 530 689.5 532.5 c 128,-1,10
 667 535 667 535 647 532 c 1,11,12
 608 515 608 515 539 507 c 128,-1,13
 470 499 470 499 406.5 497 c 128,-1,14
 343 495 343 495 268.5 484 c 128,-1,15
 194 473 194 473 144 452 c 1,16,17
 125 457 125 457 98.5 476.5 c 128,-1,18
 72 496 72 496 63 500 c 1,19,20
 59 517 59 517 65 527 c 128,-1,21
 71 537 71 537 79.5 541 c 128,-1,22
 88 545 88 545 93.5 555 c 128,-1,23
 99 565 99 565 96 582 c 1,0,1
129 193 m 1,24,25
 205 188 205 188 306.5 198 c 128,-1,26
 408 208 408 208 486 220 c 128,-1,27
 564 232 564 232 658.5 231.5 c 128,-1,28
 753 231 753 231 826 209 c 1,29,30
 832 182 832 182 825.5 167.5 c 128,-1,31
 819 153 819 153 803 148.5 c 128,-1,32
 787 144 787 144 766 142.5 c 128,-1,33
 745 141 745 141 722.5 143.5 c 128,-1,34
 700 146 700 146 681 144 c 1,35,36
 642 127 642 127 573 118.5 c 128,-1,37
 504 110 504 110 440.5 108 c 128,-1,38
 377 106 377 106 302 95 c 128,-1,39
 227 84 227 84 178 62 c 1,40,41
 159 68 159 68 132 88 c 128,-1,42
 105 108 105 108 97 112 c 1,43,44
 93 128 93 128 98.5 138 c 128,-1,45
 104 148 104 148 113 152 c 128,-1,46
 122 156 122 156 127.5 166.5 c 128,-1,47
 133 177 133 177 129 193 c 1,24,25
EndSplineSet
EndChar

StartChar: question
Encoding: 63 63 28
Width: 847
Flags: HW
LayerCount: 2
Fore
SplineSet
526 -3 m 1,0,1
 525 -5 525 -5 518 -14 c 128,-1,2
 511 -23 511 -23 509 -25 c 128,-1,3
 507 -27 507 -27 500 -34.5 c 128,-1,4
 493 -42 493 -42 489.5 -44.5 c 128,-1,5
 486 -47 486 -47 478.5 -52.5 c 128,-1,6
 471 -58 471 -58 466 -59.5 c 128,-1,7
 461 -61 461 -61 452.5 -65 c 128,-1,8
 444 -69 444 -69 436 -69.5 c 128,-1,9
 428 -70 428 -70 418 -70 c 128,-1,10
 408 -70 408 -70 396 -69 c 1,11,12
 386 -51 386 -51 376.5 -6 c 128,-1,13
 367 39 367 39 365 45 c 1,14,15
 372 47 372 47 387.5 51.5 c 128,-1,16
 403 56 403 56 410.5 58 c 128,-1,17
 418 60 418 60 431 63.5 c 128,-1,18
 444 67 444 67 451 67.5 c 128,-1,19
 458 68 458 68 468.5 67.5 c 128,-1,20
 479 67 479 67 484.5 63.5 c 128,-1,21
 490 60 490 60 498 55.5 c 128,-1,22
 506 51 506 51 510.5 43 c 128,-1,23
 515 35 515 35 519 23 c 128,-1,24
 523 11 523 11 526 -3 c 1,0,1
754 905 m 1,25,26
 787 833 787 833 787 766 c 128,-1,27
 787 699 787 699 764 648 c 128,-1,28
 741 597 741 597 695 541 c 128,-1,29
 649 485 649 485 603 443.5 c 128,-1,30
 557 402 557 402 496 344 c 128,-1,31
 435 286 435 286 396 240 c 0,32,33
 382 223 382 223 367.5 194.5 c 128,-1,34
 353 166 353 166 345 147 c 128,-1,35
 337 128 337 128 317 112 c 128,-1,36
 297 96 297 96 267 94 c 1,37,38
 254 134 254 134 262.5 169.5 c 128,-1,39
 271 205 271 205 291 228 c 128,-1,40
 311 251 311 251 340.5 276.5 c 128,-1,41
 370 302 370 302 396.5 322.5 c 128,-1,42
 423 343 423 343 446.5 373 c 128,-1,43
 470 403 470 403 478 435 c 1,44,45
 497 449 497 449 516.5 464 c 128,-1,46
 536 479 536 479 559 499.5 c 128,-1,47
 582 520 582 520 600 540 c 128,-1,48
 618 560 618 560 637.5 585 c 128,-1,49
 657 610 657 610 668.5 633.5 c 128,-1,50
 680 657 680 657 689.5 684.5 c 128,-1,51
 699 712 699 712 697 737.5 c 128,-1,52
 695 763 695 763 689 792 c 1,53,54
 674 839 674 839 625.5 860 c 128,-1,55
 577 881 577 881 515.5 875.5 c 128,-1,56
 454 870 454 870 384.5 848.5 c 128,-1,57
 315 827 315 827 258 795 c 128,-1,58
 201 763 201 763 162.5 722.5 c 128,-1,59
 124 682 124 682 121 646 c 1,60,61
 1 707 1 707 88 802 c 0,62,63
 151 871 151 871 275 920 c 0,64,65
 306 931 306 931 332 938 c 0,66,67
 399 957 399 957 479.5 954 c 128,-1,68
 560 951 560 951 627.5 938 c 128,-1,69
 695 925 695 925 754 905 c 1,25,26
EndSplineSet
EndChar

StartChar: A
Encoding: 65 65 29
Width: 738
Flags: HW
LayerCount: 2
Fore
SplineSet
637 282 m 1,0,1
 628 259 628 259 631 221.5 c 128,-1,2
 634 184 634 184 641.5 151.5 c 128,-1,3
 649 119 649 119 650 82.5 c 128,-1,4
 651 46 651 46 637 27 c 1,5,6
 608 29 608 29 595 52.5 c 128,-1,7
 582 76 582 76 581 104.5 c 128,-1,8
 580 133 580 133 574.5 166 c 128,-1,9
 569 199 569 199 556 215 c 1,10,11
 519 222 519 222 465 214 c 128,-1,12
 411 206 411 206 363.5 191.5 c 128,-1,13
 316 177 316 177 264 167 c 128,-1,14
 212 157 212 157 179 161 c 1,15,16
 165 143 165 143 159.5 115.5 c 128,-1,17
 154 88 154 88 153.5 65.5 c 128,-1,18
 153 43 153 43 148 23 c 128,-1,19
 143 3 143 3 124.5 -7 c 128,-1,20
 106 -17 106 -17 72 -14 c 1,21,22
 70 66 70 66 90.5 155 c 128,-1,23
 111 244 111 244 141.5 323.5 c 128,-1,24
 172 403 172 403 202 483 c 128,-1,25
 232 563 232 563 253 651.5 c 128,-1,26
 274 740 274 740 273 820 c 1,27,28
 281 830 281 830 307 840.5 c 128,-1,29
 333 851 333 851 341 860 c 1,30,31
 363 843 363 843 382 820 c 128,-1,32
 401 797 401 797 416.5 777.5 c 128,-1,33
 432 758 432 758 449 725.5 c 128,-1,34
 466 693 466 693 476 674.5 c 128,-1,35
 486 656 486 656 501 615.5 c 128,-1,36
 516 575 516 575 522 559.5 c 128,-1,37
 528 544 528 544 542.5 496.5 c 128,-1,38
 557 449 557 449 560.5 436.5 c 128,-1,39
 564 424 564 424 579 370.5 c 128,-1,40
 594 317 594 317 596 309 c 0,41,42
 598 299 598 299 617.5 296.5 c 128,-1,43
 637 294 637 294 637 282 c 1,0,1
206 255 m 1,44,45
 242 257 242 257 350.5 271 c 128,-1,46
 459 285 459 285 529 282 c 1,47,48
 523 304 523 304 509.5 355 c 128,-1,49
 496 406 496 406 488 431.5 c 128,-1,50
 480 457 480 457 465.5 499.5 c 128,-1,51
 451 542 451 542 436.5 568 c 128,-1,52
 422 594 422 594 400.5 623 c 128,-1,53
 379 652 379 652 354 672 c 1,54,55
 339 634 339 634 323.5 594 c 128,-1,56
 308 554 308 554 291 505.5 c 128,-1,57
 274 457 274 457 264 427 c 128,-1,58
 254 397 254 397 233.5 337 c 128,-1,59
 213 277 213 277 206 255 c 1,44,45
EndSplineSet
EndChar

StartChar: B
Encoding: 66 66 30
Width: 966
Flags: HW
LayerCount: 2
Fore
SplineSet
894 515 m 1,0,1
 917 432 917 432 891.5 347.5 c 128,-1,2
 866 263 866 263 808.5 196.5 c 128,-1,3
 751 130 751 130 669.5 78.5 c 128,-1,4
 588 27 588 27 502.5 1.5 c 128,-1,5
 417 -24 417 -24 332 -18.5 c 128,-1,6
 247 -13 247 -13 185 29 c 1,7,8
 176 75 176 75 175.5 146 c 128,-1,9
 175 217 175 217 174.5 265.5 c 128,-1,10
 174 314 174 314 153.5 368.5 c 128,-1,11
 133 423 133 423 88 460 c 1,12,13
 123 489 123 489 133.5 538 c 128,-1,14
 144 587 144 587 134.5 634.5 c 128,-1,15
 125 682 125 682 108 721.5 c 128,-1,16
 91 761 91 761 74 779 c 1,17,18
 85 818 85 818 120 847 c 128,-1,19
 155 876 155 876 200.5 887.5 c 128,-1,20
 246 899 246 899 298 901.5 c 128,-1,21
 350 904 350 904 398.5 891.5 c 128,-1,22
 447 879 447 879 486 858 c 128,-1,23
 525 837 525 837 545.5 801.5 c 128,-1,24
 566 766 566 766 560 724 c 0,25,26
 557 697 557 697 540.5 678.5 c 128,-1,27
 524 660 524 660 505 650 c 128,-1,28
 486 640 486 640 461.5 622.5 c 128,-1,29
 437 605 437 605 422 585 c 1,30,31
 471 573 471 573 544.5 571.5 c 128,-1,32
 618 570 618 570 675 572 c 128,-1,33
 732 574 732 574 794 561.5 c 128,-1,34
 856 549 856 549 894 515 c 1,0,1
213 807 m 1,35,-1
 213 570 l 1,36,37
 264 589 264 589 298.5 605 c 128,-1,38
 333 621 333 621 373.5 644.5 c 128,-1,39
 414 668 414 668 443 698 c 128,-1,40
 472 728 472 728 492 765 c 1,41,42
 455 791 455 791 410.5 801.5 c 128,-1,43
 366 812 366 812 318.5 811.5 c 128,-1,44
 271 811 271 811 213 807 c 1,35,-1
283 29 m 1,45,46
 747 81 747 81 839 460 c 1,47,48
 798 486 798 486 745 497.5 c 128,-1,49
 692 509 692 509 646 510 c 128,-1,50
 600 511 600 511 535 501.5 c 128,-1,51
 470 492 470 492 429.5 482 c 128,-1,52
 389 472 389 472 321.5 455 c 128,-1,53
 254 438 254 438 227 431 c 1,54,55
 224 360 224 360 232.5 294 c 128,-1,56
 241 228 241 228 259 147.5 c 128,-1,57
 277 67 277 67 283 29 c 1,45,46
EndSplineSet
EndChar

StartChar: C
Encoding: 67 67 31
Width: 925
Flags: HW
LayerCount: 2
Fore
SplineSet
735 562 m 1,0,1
 694 555 694 555 671 570 c 128,-1,2
 648 585 648 585 640 613.5 c 128,-1,3
 632 642 632 642 628 672.5 c 128,-1,4
 624 703 624 703 614.5 734 c 128,-1,5
 605 765 605 765 586 778 c 1,6,7
 500 792 500 792 422 773.5 c 128,-1,8
 344 755 344 755 288.5 709.5 c 128,-1,9
 233 664 233 664 194.5 601.5 c 128,-1,10
 156 539 156 539 141.5 463.5 c 128,-1,11
 127 388 127 388 138 313 c 0,12,13
 148 239 148 239 190 186.5 c 128,-1,14
 232 134 232 134 293.5 108 c 128,-1,15
 355 82 355 82 430.5 73.5 c 128,-1,16
 506 65 506 65 584 74.5 c 128,-1,17
 662 84 662 84 735.5 107 c 128,-1,18
 809 130 809 130 868 164 c 1,19,20
 819 97 819 97 743 51.5 c 128,-1,21
 667 6 667 6 583.5 -13.5 c 128,-1,22
 500 -33 500 -33 412 -26.5 c 128,-1,23
 324 -20 324 -20 251 10 c 128,-1,24
 178 40 178 40 125 101.5 c 128,-1,25
 72 163 72 163 55 247 c 0,26,27
 13 457 13 457 131 642 c 0,28,29
 218 778 218 778 352 846 c 0,30,31
 488 915 488 915 594 870 c 0,32,33
 717 819 717 819 733 632 c 0,34,35
 736 599 736 599 735 562 c 1,0,1
EndSplineSet
EndChar

StartChar: D
Encoding: 68 68 32
Width: 909
Flags: HW
LayerCount: 2
Fore
SplineSet
232 -5 m 1,0,1
 227 23 227 23 246.5 28.5 c 128,-1,2
 266 34 266 34 300.5 29.5 c 128,-1,3
 335 25 335 25 348 29 c 1,4,5
 361 38 361 38 506 126 c 0,6,7
 657 217 657 217 713 292 c 0,8,9
 785 387 785 387 758 504 c 0,10,11
 749 544 749 544 727 579 c 128,-1,12
 705 614 705 614 676.5 641 c 128,-1,13
 648 668 648 668 607 692 c 128,-1,14
 566 716 566 716 526 733 c 128,-1,15
 486 750 486 750 433 765.5 c 128,-1,16
 380 781 380 781 335.5 792 c 128,-1,17
 291 803 291 803 232 815 c 1,18,19
 248 754 248 754 263.5 616 c 128,-1,20
 279 478 279 478 298 343 c 128,-1,21
 317 208 317 208 348 127 c 1,22,23
 296 124 296 124 257.5 179 c 128,-1,24
 219 234 219 234 200 318 c 128,-1,25
 181 402 181 402 173 495.5 c 128,-1,26
 165 589 165 589 168.5 667 c 128,-1,27
 172 745 172 745 183 782 c 1,28,29
 179 798 179 798 153.5 799.5 c 128,-1,30
 128 801 128 801 101.5 801 c 128,-1,31
 75 801 75 801 69 815 c 1,32,33
 63 843 63 843 74.5 871 c 128,-1,34
 86 899 86 899 85 913 c 1,35,36
 615 908 615 908 840 537 c 1,37,38
 852 453 852 453 828.5 373.5 c 128,-1,39
 805 294 805 294 756.5 233.5 c 128,-1,40
 708 173 708 173 641 123 c 128,-1,41
 574 73 574 73 502.5 43 c 128,-1,42
 431 13 431 13 360 0 c 128,-1,43
 289 -13 289 -13 232 -5 c 1,0,1
EndSplineSet
EndChar

StartChar: E
Encoding: 69 69 33
Width: 843
Flags: HW
LayerCount: 2
Fore
SplineSet
749 814 m 1,0,1
 741 786 741 786 713 775.5 c 128,-1,2
 685 765 685 765 648 767.5 c 128,-1,3
 611 770 611 770 566.5 771.5 c 128,-1,4
 522 773 522 773 480 769 c 1,5,6
 430 762 430 762 371.5 744.5 c 128,-1,7
 313 727 313 727 286.5 716.5 c 128,-1,8
 260 706 260 706 198 680 c 1,9,10
 200 640 200 640 197.5 600 c 128,-1,11
 195 560 195 560 191 536.5 c 128,-1,12
 187 513 187 513 188 484 c 128,-1,13
 189 455 189 455 198 426 c 1,14,15
 259 424 259 424 401.5 445 c 128,-1,16
 544 466 544 466 614 457 c 1,17,18
 583 422 583 422 528 399.5 c 128,-1,19
 473 377 473 377 421.5 368 c 128,-1,20
 370 359 370 359 297.5 347 c 128,-1,21
 225 335 225 335 182 323 c 1,22,23
 188 312 188 312 192 289 c 128,-1,24
 196 266 196 266 197 239 c 128,-1,25
 198 212 198 212 198 179 c 128,-1,26
 198 146 198 146 198 114 c 1,27,28
 324 113 324 113 475.5 132 c 128,-1,29
 627 151 627 151 719 188 c 1,30,31
 726 168 726 168 723 151.5 c 128,-1,32
 720 135 720 135 715 123 c 128,-1,33
 710 111 710 111 697 101 c 128,-1,34
 684 91 684 91 670.5 84.5 c 128,-1,35
 657 78 657 78 638.5 73 c 128,-1,36
 620 68 620 68 602.5 64 c 128,-1,37
 585 60 585 60 563.5 57 c 128,-1,38
 542 54 542 54 524 51.5 c 128,-1,39
 506 49 506 49 485.5 46 c 128,-1,40
 465 43 465 43 451 39 c 1,41,42
 425 34 425 34 387.5 22.5 c 128,-1,43
 350 11 350 11 319.5 2 c 128,-1,44
 289 -7 289 -7 252 -16.5 c 128,-1,45
 215 -26 215 -26 185.5 -30.5 c 128,-1,46
 156 -35 156 -35 125.5 -34 c 128,-1,47
 95 -33 95 -33 73 -25 c 1,48,49
 73 80 73 80 72.5 185 c 128,-1,50
 72 290 72 290 71.5 377.5 c 128,-1,51
 71 465 71 465 64 562 c 128,-1,52
 57 659 57 659 43 750 c 1,53,54
 128 789 128 789 251 815 c 128,-1,55
 374 841 374 841 506.5 844 c 128,-1,56
 639 847 639 847 749 814 c 1,0,1
EndSplineSet
EndChar

StartChar: F
Encoding: 70 70 34
Width: 797
Flags: HW
LayerCount: 2
Fore
SplineSet
732 764 m 1,0,1
 636 780 636 780 559.5 786.5 c 128,-1,2
 483 793 483 793 402.5 787.5 c 128,-1,3
 322 782 322 782 240 764 c 1,4,5
 255 737 255 737 255 709.5 c 128,-1,6
 255 682 255 682 248 644.5 c 128,-1,7
 241 607 241 607 240 583 c 1,8,9
 270 558 270 558 326 551.5 c 128,-1,10
 382 545 382 545 436 551 c 128,-1,11
 490 557 490 557 546.5 558 c 128,-1,12
 603 559 603 559 634 550 c 1,13,14
 614 511 614 511 561 491.5 c 128,-1,15
 508 472 508 472 453 469 c 128,-1,16
 398 466 398 466 330.5 459 c 128,-1,17
 263 452 263 452 223 435 c 1,18,19
 217 376 217 376 221.5 307.5 c 128,-1,20
 226 239 226 239 234 188.5 c 128,-1,21
 242 138 242 138 245 73.5 c 128,-1,22
 248 9 248 9 240 -41 c 1,23,24
 201 -37 201 -37 177.5 -14.5 c 128,-1,25
 154 8 154 8 146.5 43 c 128,-1,26
 139 78 139 78 137 121.5 c 128,-1,27
 135 165 135 165 139.5 211 c 128,-1,28
 144 257 144 257 144.5 302.5 c 128,-1,29
 145 348 145 348 141 386 c 0,30,31
 140 394 140 394 134.5 431.5 c 128,-1,32
 129 469 129 469 126 491.5 c 128,-1,33
 123 514 123 514 120 554.5 c 128,-1,34
 117 595 117 595 118 623.5 c 128,-1,35
 119 652 119 652 124.5 686.5 c 128,-1,36
 130 721 130 721 141 748 c 1,37,38
 132 755 132 755 115.5 761 c 128,-1,39
 99 767 99 767 86.5 770.5 c 128,-1,40
 74 774 74 774 60 783.5 c 128,-1,41
 46 793 46 793 43 806.5 c 128,-1,42
 40 820 40 820 43 846 c 1,43,44
 86 848 86 848 265.5 866.5 c 128,-1,45
 445 885 445 885 519 879 c 0,46,47
 526 878 526 878 547 877 c 128,-1,48
 568 876 568 876 581.5 874.5 c 128,-1,49
 595 873 595 873 617 870 c 128,-1,50
 639 867 639 867 653 862.5 c 128,-1,51
 667 858 667 858 683.5 849.5 c 128,-1,52
 700 841 700 841 710 829.5 c 128,-1,53
 720 818 720 818 726.5 801 c 128,-1,54
 733 784 733 784 732 764 c 1,0,1
EndSplineSet
EndChar

StartChar: G
Encoding: 71 71 35
Width: 1097
Flags: HW
LayerCount: 2
Fore
SplineSet
1012 518 m 1,0,1
 1022 428 1022 428 1025.5 261 c 128,-1,2
 1029 94 1029 94 1046 8 c 1,3,4
 1022 13 1022 13 1002.5 24 c 128,-1,5
 983 35 983 35 969.5 47.5 c 128,-1,6
 956 60 956 60 946.5 80 c 128,-1,7
 937 100 937 100 931 117.5 c 128,-1,8
 925 135 925 135 922 161.5 c 128,-1,9
 919 188 919 188 917.5 208.5 c 128,-1,10
 916 229 916 229 917.5 260 c 128,-1,11
 919 291 919 291 920 311.5 c 128,-1,12
 921 332 921 332 923.5 365 c 128,-1,13
 926 398 926 398 927 416 c 1,14,15
 888 416 888 416 841 398 c 128,-1,16
 794 380 794 380 754.5 356 c 128,-1,17
 715 332 715 332 671.5 311 c 128,-1,18
 628 290 628 290 593 280.5 c 128,-1,19
 558 271 558 271 524 287 c 128,-1,20
 490 303 490 303 467 348 c 1,21,22
 521 355 521 355 580.5 378 c 128,-1,23
 640 401 640 401 689.5 427.5 c 128,-1,24
 739 454 739 454 790.5 478 c 128,-1,25
 842 502 842 502 899.5 514 c 128,-1,26
 957 526 957 526 1012 518 c 1,0,1
671 773 m 1,27,28
 670 738 670 738 644 721.5 c 128,-1,29
 618 705 618 705 582 705 c 128,-1,30
 546 705 546 705 503 705 c 1,31,32
 491 706 491 706 484 706 c 1,33,34
 442 681 442 681 410.5 660.5 c 128,-1,35
 379 640 379 640 336.5 609 c 128,-1,36
 294 578 294 578 262.5 550 c 128,-1,37
 231 522 231 522 199 484.5 c 128,-1,38
 167 447 167 447 147.5 411.5 c 128,-1,39
 128 376 128 376 117 333 c 128,-1,40
 106 290 106 290 110 246 c 0,41,42
 115 187 115 187 146.5 144 c 128,-1,43
 178 101 178 101 225.5 79 c 128,-1,44
 273 57 273 57 336.5 47 c 128,-1,45
 400 37 400 37 464.5 38.5 c 128,-1,46
 529 40 529 40 598.5 48.5 c 128,-1,47
 668 57 668 57 722 68.5 c 128,-1,48
 776 80 776 80 824 93 c 1,49,50
 792 43 792 43 726 9.5 c 128,-1,51
 660 -24 660 -24 581 -37 c 128,-1,52
 502 -50 502 -50 413.5 -46 c 128,-1,53
 325 -42 325 -42 247.5 -21.5 c 128,-1,54
 170 -1 170 -1 109 37.5 c 128,-1,55
 48 76 48 76 25 127 c 1,56,57
 19 166 19 166 24.5 213.5 c 128,-1,58
 30 261 30 261 34 285 c 128,-1,59
 38 309 38 309 25 348 c 1,60,61
 47 389 47 389 63.5 419.5 c 128,-1,62
 80 450 80 450 110.5 498.5 c 128,-1,63
 141 547 141 547 168 582.5 c 128,-1,64
 195 618 195 618 233 662 c 128,-1,65
 271 706 271 706 306.5 733.5 c 128,-1,66
 342 761 342 761 387 784.5 c 128,-1,67
 432 808 432 808 475.5 814.5 c 128,-1,68
 519 821 519 821 570 812 c 128,-1,69
 621 803 621 803 671 773 c 1,27,28
EndSplineSet
EndChar

StartChar: H
Encoding: 72 72 36
Width: 892
Flags: HW
LayerCount: 2
Fore
SplineSet
143 855 m 1,0,1
 143 586 l 1,2,3
 175 575 175 575 232 575 c 128,-1,4
 289 575 289 575 342.5 577.5 c 128,-1,5
 396 580 396 580 450.5 575.5 c 128,-1,6
 505 571 505 571 546.5 545 c 128,-1,7
 588 519 588 519 605 470 c 1,8,9
 574 464 574 464 521.5 464 c 128,-1,10
 469 464 469 464 418.5 466 c 128,-1,11
 368 468 368 468 315.5 466.5 c 128,-1,12
 263 465 263 465 217 451.5 c 128,-1,13
 171 438 171 438 143 413 c 1,14,15
 146 368 146 368 159.5 296.5 c 128,-1,16
 173 225 173 225 192 133 c 128,-1,17
 211 41 211 41 220 -11 c 1,18,19
 168 7 168 7 130 52 c 128,-1,20
 92 97 92 97 71.5 155 c 128,-1,21
 51 213 51 213 41 291 c 128,-1,22
 31 369 31 369 30 441 c 128,-1,23
 29 513 29 513 35 598 c 128,-1,24
 41 683 41 683 48.5 745.5 c 128,-1,25
 56 808 56 808 67 874 c 1,26,27
 83 875 83 875 104 864 c 128,-1,28
 125 853 125 853 143 855 c 1,0,1
740 874 m 1,29,30
 740 863 740 863 745.5 782 c 128,-1,31
 751 701 751 701 752.5 676 c 128,-1,32
 754 651 754 651 759.5 571.5 c 128,-1,33
 765 492 765 492 767.5 456 c 128,-1,34
 770 420 770 420 775.5 346.5 c 128,-1,35
 781 273 781 273 786 233 c 128,-1,36
 791 193 791 193 797 132 c 128,-1,37
 803 71 803 71 809 31 c 128,-1,38
 815 -9 815 -9 822 -52 c 128,-1,39
 829 -95 829 -95 837 -127 c 1,40,41
 702 -120 702 -120 664 201 c 0,42,43
 649 327 649 327 639.5 452.5 c 128,-1,44
 630 578 630 578 630.5 700.5 c 128,-1,45
 631 823 631 823 644 894 c 1,46,47
 673 902 673 902 695.5 886 c 128,-1,48
 718 870 718 870 740 874 c 1,29,30
EndSplineSet
EndChar

StartChar: I
Encoding: 73 73 37
Width: 983
Flags: HW
LayerCount: 2
Fore
SplineSet
745 754 m 1,0,1
 727 734 727 734 698 732 c 128,-1,2
 669 730 669 730 641.5 739 c 128,-1,3
 614 748 614 748 579.5 754 c 128,-1,4
 545 760 545 760 520 754 c 1,5,6
 497 658 497 658 504 546.5 c 128,-1,7
 511 435 511 435 533.5 337.5 c 128,-1,8
 556 240 556 240 590 163 c 1,9,10
 629 148 629 148 683.5 146 c 128,-1,11
 738 144 738 144 779 151.5 c 128,-1,12
 820 159 820 159 862.5 159 c 128,-1,13
 905 159 905 159 920 145 c 1,14,15
 901 112 901 112 867.5 93.5 c 128,-1,16
 834 75 834 75 789.5 70 c 128,-1,17
 745 65 745 65 702.5 64 c 128,-1,18
 660 63 660 63 607.5 63 c 128,-1,19
 555 63 555 63 520 59 c 1,20,21
 479 53 479 53 428.5 36.5 c 128,-1,22
 378 20 378 20 338 5.5 c 128,-1,23
 298 -9 298 -9 258 -21 c 128,-1,24
 218 -33 218 -33 182.5 -31.5 c 128,-1,25
 147 -30 147 -30 121 -10 c 1,26,27
 128 8 128 8 139.5 24 c 128,-1,28
 151 40 151 40 162 52.5 c 128,-1,29
 173 65 173 65 191.5 76.5 c 128,-1,30
 210 88 210 88 223 95.5 c 128,-1,31
 236 103 236 103 260 111.5 c 128,-1,32
 284 120 284 120 297 124.5 c 128,-1,33
 310 129 310 129 339.5 136 c 128,-1,34
 369 143 369 143 381 145.5 c 128,-1,35
 393 148 393 148 425.5 154.5 c 128,-1,36
 458 161 458 161 468 163 c 1,37,38
 440 238 440 238 425 350.5 c 128,-1,39
 410 463 410 463 397.5 570.5 c 128,-1,40
 385 678 385 678 364 736 c 1,41,42
 320 719 320 719 264.5 707.5 c 128,-1,43
 209 696 209 696 145 700.5 c 128,-1,44
 81 705 81 705 51 736 c 1,45,46
 94 783 94 783 195 812 c 128,-1,47
 296 841 296 841 403 844.5 c 128,-1,48
 510 848 510 848 608.5 824.5 c 128,-1,49
 707 801 707 801 745 754 c 1,0,1
EndSplineSet
EndChar

StartChar: J
Encoding: 74 74 38
Width: 1024
Flags: HW
LayerCount: 2
Fore
SplineSet
725 958 m 1,0,1
 762 963 762 963 768 937 c 1,2,3
 801 893 801 893 834.5 819.5 c 128,-1,4
 868 746 868 746 898 657 c 128,-1,5
 928 568 928 568 943 471 c 128,-1,6
 958 374 958 374 957 285.5 c 128,-1,7
 956 197 956 197 925 121 c 128,-1,8
 894 45 894 45 834 4 c 0,9,10
 771 -40 771 -40 689 -56 c 128,-1,11
 607 -72 607 -72 526 -61 c 128,-1,12
 445 -50 445 -50 363 -19 c 128,-1,13
 281 12 281 12 214 57.5 c 128,-1,14
 147 103 147 103 98 163 c 128,-1,15
 49 223 49 223 31 286 c 1,16,17
 57 273 57 273 109.5 239.5 c 128,-1,18
 162 206 162 206 207 176.5 c 128,-1,19
 252 147 252 147 316.5 117 c 128,-1,20
 381 87 381 87 439.5 71.5 c 128,-1,21
 498 56 498 56 568.5 59 c 128,-1,22
 639 62 639 62 703 90 c 1,23,24
 757 123 757 123 786 170.5 c 128,-1,25
 815 218 815 218 819 270.5 c 128,-1,26
 823 323 823 323 814.5 384 c 128,-1,27
 806 445 806 445 787 505 c 128,-1,28
 768 565 768 565 750 629.5 c 128,-1,29
 732 694 732 694 718.5 750.5 c 128,-1,30
 705 807 705 807 705.5 862 c 128,-1,31
 706 917 706 917 725 958 c 1,0,1
EndSplineSet
EndChar

StartChar: K
Encoding: 75 75 39
Width: 962
Flags: HW
LayerCount: 2
Fore
SplineSet
147 941 m 1,0,1
 167 892 167 892 173.5 834 c 128,-1,2
 180 776 180 776 177.5 729.5 c 128,-1,3
 175 683 175 683 179.5 615.5 c 128,-1,4
 184 548 184 548 202 485 c 1,5,6
 255 507 255 507 304 545.5 c 128,-1,7
 353 584 353 584 392 625 c 128,-1,8
 431 666 431 666 471 707 c 128,-1,9
 511 748 511 748 563.5 781.5 c 128,-1,10
 616 815 616 815 676 831 c 1,11,12
 666 774 666 774 637 727.5 c 128,-1,13
 608 681 608 681 571.5 651 c 128,-1,14
 535 621 535 621 489 590.5 c 128,-1,15
 443 560 443 560 401.5 535 c 128,-1,16
 360 510 360 510 320.5 473 c 128,-1,17
 281 436 281 436 257 394 c 1,18,19
 298 388 298 388 377 377 c 128,-1,20
 456 366 456 366 502 358.5 c 128,-1,21
 548 351 548 351 616 337 c 128,-1,22
 684 323 684 323 730 307.5 c 128,-1,23
 776 292 776 292 826.5 267.5 c 128,-1,24
 877 243 877 243 912 212 c 1,25,26
 871 196 871 196 804.5 200.5 c 128,-1,27
 738 205 738 205 670.5 222.5 c 128,-1,28
 603 240 603 240 523 255.5 c 128,-1,29
 443 271 443 271 374.5 278 c 128,-1,30
 306 285 306 285 239 267 c 1,31,32
 231 224 231 224 243 164.5 c 128,-1,33
 255 105 255 105 268.5 39.5 c 128,-1,34
 282 -26 282 -26 275 -79 c 1,35,36
 233 -81 233 -81 206.5 -62.5 c 128,-1,37
 180 -44 180 -44 169.5 -13 c 128,-1,38
 159 18 159 18 154.5 56.5 c 128,-1,39
 150 95 150 95 146 135 c 128,-1,40
 142 175 142 175 135 210 c 128,-1,41
 128 245 128 245 108.5 270.5 c 128,-1,42
 89 296 89 296 56 303 c 1,43,44
 89 363 89 363 94.5 442 c 128,-1,45
 100 521 100 521 89 585 c 128,-1,46
 78 649 78 649 60.5 745.5 c 128,-1,47
 43 842 43 842 38 904 c 1,48,49
 54 902 54 902 65.5 906.5 c 128,-1,50
 77 911 77 911 82 919 c 128,-1,51
 87 927 87 927 95.5 934 c 128,-1,52
 104 941 104 941 114.5 943.5 c 128,-1,53
 125 946 125 946 147 941 c 1,0,1
EndSplineSet
EndChar

StartChar: L
Encoding: 76 76 40
Width: 1044
Flags: HW
LayerCount: 2
Fore
SplineSet
168 863 m 1,0,1
 194 783 194 783 202 684 c 128,-1,2
 210 585 210 585 205 497.5 c 128,-1,3
 200 410 200 410 197.5 307 c 128,-1,4
 195 204 195 204 200 117 c 1,5,6
 376 191 376 191 576 241.5 c 128,-1,7
 776 292 776 292 947 291 c 1,8,9
 866 247 866 247 747 202.5 c 128,-1,10
 628 158 628 158 530 127 c 128,-1,11
 432 96 432 96 321.5 47 c 128,-1,12
 211 -2 211 -2 136 -58 c 1,13,14
 119 -16 119 -16 115.5 63 c 128,-1,15
 112 142 112 142 116.5 236.5 c 128,-1,16
 121 331 121 331 125 428.5 c 128,-1,17
 129 526 129 526 121 627 c 128,-1,18
 113 728 113 728 89 800 c 0,19,20
 85 814 85 814 89 823.5 c 128,-1,21
 93 833 93 833 100.5 836 c 128,-1,22
 108 839 108 839 114.5 846 c 128,-1,23
 121 853 121 853 121 863 c 1,24,-1
 168 863 l 1,0,1
EndSplineSet
EndChar

StartChar: M
Encoding: 77 77 41
Width: 1085
Flags: HW
LayerCount: 2
Fore
SplineSet
920 742 m 1,0,1
 953 675 953 675 965.5 587.5 c 128,-1,2
 978 500 978 500 977.5 416 c 128,-1,3
 977 332 977 332 978 249.5 c 128,-1,4
 979 167 979 167 996.5 88.5 c 128,-1,5
 1014 10 1014 10 1054 -44 c 1,6,7
 1042 -45 1042 -45 1033.5 -53 c 128,-1,8
 1025 -61 1025 -61 1020.5 -70 c 128,-1,9
 1016 -79 1016 -79 1005 -84.5 c 128,-1,10
 994 -90 994 -90 979 -88 c 1,11,12
 941 -39 941 -39 922 46 c 128,-1,13
 903 131 903 131 900.5 211 c 128,-1,14
 898 291 898 291 893 395.5 c 128,-1,15
 888 500 888 500 876 565 c 1,16,17
 825 532 825 532 776.5 484 c 128,-1,18
 728 436 728 436 689 387 c 128,-1,19
 650 338 650 338 609.5 289 c 128,-1,20
 569 240 569 240 519 194 c 128,-1,21
 469 148 469 148 415 120 c 1,22,23
 377 142 377 142 344 182.5 c 128,-1,24
 311 223 311 223 291.5 263 c 128,-1,25
 272 303 272 303 241.5 347 c 128,-1,26
 211 391 211 391 178 417 c 1,27,28
 166 361 166 361 171 316 c 128,-1,29
 176 271 176 271 186.5 227 c 128,-1,30
 197 183 197 183 207 147.5 c 128,-1,31
 217 112 217 112 214.5 73 c 128,-1,32
 212 34 212 34 193 1 c 1,33,34
 151 14 151 14 126.5 47.5 c 128,-1,35
 102 81 102 81 95.5 123 c 128,-1,36
 89 165 89 165 89 219.5 c 128,-1,37
 89 274 89 274 93 324 c 128,-1,38
 97 374 97 374 97 428.5 c 128,-1,39
 97 483 97 483 89 520 c 1,40,41
 90 542 90 542 81.5 557.5 c 128,-1,42
 73 573 73 573 61.5 582 c 128,-1,43
 50 591 50 591 40.5 606 c 128,-1,44
 31 621 31 621 30 639 c 1,45,46
 45 653 45 653 66 657.5 c 128,-1,47
 87 662 87 662 101.5 659.5 c 128,-1,48
 116 657 116 657 147.5 649.5 c 128,-1,49
 179 642 179 642 193 639 c 1,50,51
 238 410 238 410 430 268 c 1,52,53
 437 273 437 273 453 286 c 0,54,55
 519 337 519 337 553 364.5 c 128,-1,56
 587 392 587 392 634 432.5 c 128,-1,57
 681 473 681 473 712 506 c 0,58,59
 734 528 734 528 757 568.5 c 128,-1,60
 780 609 780 609 797 641.5 c 128,-1,61
 814 674 814 674 846.5 703.5 c 128,-1,62
 879 733 879 733 920 742 c 1,0,1
EndSplineSet
EndChar

StartChar: N
Encoding: 78 78 42
Width: 1097
Flags: HW
LayerCount: 2
Fore
SplineSet
1058 795 m 1,0,1
 1027 750 1027 750 1011 686 c 128,-1,2
 995 622 995 622 992 555.5 c 128,-1,3
 989 489 989 489 990 416.5 c 128,-1,4
 991 344 991 344 990.5 275.5 c 128,-1,5
 990 207 990 207 983.5 145.5 c 128,-1,6
 977 84 977 84 954.5 32 c 128,-1,7
 932 -20 932 -20 892 -52 c 1,8,9
 800 -2 800 -2 702 72 c 128,-1,10
 604 146 604 146 532.5 213 c 128,-1,11
 461 280 461 280 365.5 362 c 128,-1,12
 270 444 270 444 193 500 c 1,13,14
 161 455 161 455 146.5 390.5 c 128,-1,15
 132 326 132 326 134.5 254.5 c 128,-1,16
 137 183 137 183 144.5 123 c 128,-1,17
 152 63 152 63 162 -2 c 128,-1,18
 172 -67 172 -67 174 -89 c 1,19,20
 161 -86 161 -86 152.5 -90.5 c 128,-1,21
 144 -95 144 -95 142 -103 c 128,-1,22
 140 -111 140 -111 134 -118.5 c 128,-1,23
 128 -126 128 -126 119 -126 c 1,24,25
 75 -78 75 -78 53 43.5 c 128,-1,26
 31 165 31 165 33.5 296.5 c 128,-1,27
 36 428 36 428 59 549.5 c 128,-1,28
 82 671 82 671 119 721 c 1,29,30
 188 673 188 673 262.5 606 c 128,-1,31
 337 539 337 539 400 476.5 c 128,-1,32
 463 414 463 414 530 351 c 128,-1,33
 597 288 597 288 676 230 c 128,-1,34
 755 172 755 172 837 132 c 1,35,36
 861 172 861 172 871 230 c 128,-1,37
 881 288 881 288 881.5 345 c 128,-1,38
 882 402 882 402 881.5 463.5 c 128,-1,39
 881 525 881 525 886.5 579 c 128,-1,40
 892 633 892 633 907.5 678.5 c 128,-1,41
 923 724 923 724 961 754.5 c 128,-1,42
 999 785 999 785 1058 795 c 1,0,1
EndSplineSet
EndChar

StartChar: O
Encoding: 79 79 43
Width: 1040
Flags: HW
LayerCount: 2
Fore
SplineSet
984 506 m 0,0,1
 997 436 997 436 979 355 c 128,-1,2
 961 274 961 274 920.5 203.5 c 128,-1,3
 880 133 880 133 824.5 75.5 c 128,-1,4
 769 18 769 18 711 -8 c 0,5,6
 633 -44 633 -44 520 -45 c 128,-1,7
 407 -46 407 -46 298.5 -10.5 c 128,-1,8
 190 25 190 25 133 88 c 0,9,10
 66 162 66 162 41 273 c 128,-1,11
 16 384 16 384 32 496 c 128,-1,12
 48 608 48 608 100 715 c 128,-1,13
 152 822 152 822 229 891 c 1,14,-1
 246 891 l 1,15,16
 282 900 282 900 280 863 c 0,17,18
 279 832 279 832 263 812 c 0,19,20
 262 811 262 811 261 810 c 1,21,22
 309 800 309 800 373.5 790 c 128,-1,23
 438 780 438 780 491 773.5 c 128,-1,24
 544 767 544 767 604.5 756.5 c 128,-1,25
 665 746 665 746 713 735 c 128,-1,26
 761 724 761 724 808.5 704 c 128,-1,27
 856 684 856 684 890 658.5 c 128,-1,28
 924 633 924 633 949 594 c 128,-1,29
 974 555 974 555 984 506 c 0,0,1
486 24 m 0,30,31
 545 23 545 23 610 46.5 c 128,-1,32
 675 70 675 70 731.5 113.5 c 128,-1,33
 788 157 788 157 832 213.5 c 128,-1,34
 876 270 876 270 895.5 343 c 128,-1,35
 915 416 915 416 903 489 c 0,36,37
 897 530 897 530 875.5 563.5 c 128,-1,38
 854 597 854 597 825 618.5 c 128,-1,39
 796 640 796 640 753 656 c 128,-1,40
 710 672 710 672 669.5 680 c 128,-1,41
 629 688 629 688 574.5 694 c 128,-1,42
 520 700 520 700 478.5 702.5 c 128,-1,43
 437 705 437 705 382 708 c 128,-1,44
 327 711 327 711 294 714 c 1,45,46
 279 724 279 724 274.5 737.5 c 128,-1,47
 270 751 270 751 272 760 c 128,-1,48
 274 769 274 769 265 774.5 c 128,-1,49
 256 780 256 780 229 778 c 1,50,51
 171 705 171 705 141 618.5 c 128,-1,52
 111 532 111 532 109.5 450.5 c 128,-1,53
 108 369 108 369 133.5 291.5 c 128,-1,54
 159 214 159 214 206 155.5 c 128,-1,55
 253 97 253 97 325.5 61.5 c 128,-1,56
 398 26 398 26 486 24 c 0,30,31
EndSplineSet
EndChar

StartChar: P
Encoding: 80 80 44
Width: 946
Flags: HW
LayerCount: 2
Fore
SplineSet
876 798 m 1,0,1
 941 559 941 559 545 422 c 0,2,3
 470 396 470 396 305 354 c 1,4,5
 346 390 346 390 407 424 c 128,-1,6
 468 458 468 458 526 484 c 128,-1,7
 584 510 584 510 641 539 c 128,-1,8
 698 568 698 568 748.5 609.5 c 128,-1,9
 799 651 799 651 828 702 c 1,10,11
 792 751 792 751 719 777 c 128,-1,12
 646 803 646 803 561 805 c 128,-1,13
 476 807 476 807 393 796.5 c 128,-1,14
 310 786 310 786 242 766 c 1,15,16
 246 693 246 693 238.5 593.5 c 128,-1,17
 231 494 231 494 224 414 c 128,-1,18
 217 334 217 334 216.5 250.5 c 128,-1,19
 216 167 216 167 237.5 96 c 128,-1,20
 259 25 259 25 305 -27 c 1,21,22
 248 -28 248 -28 210.5 3 c 128,-1,23
 173 34 173 34 157.5 88 c 128,-1,24
 142 142 142 142 137.5 207.5 c 128,-1,25
 133 273 133 273 138 350.5 c 128,-1,26
 143 428 143 428 150 495.5 c 128,-1,27
 157 563 157 563 161.5 630 c 128,-1,28
 166 697 166 697 163 734 c 1,29,30
 151 756 151 756 107 776 c 128,-1,31
 63 796 63 796 51 813 c 1,32,33
 321 984 321 984 876 798 c 1,0,1
EndSplineSet
EndChar

StartChar: Q
Encoding: 81 81 45
Width: 1359
Flags: HW
LayerCount: 2
Fore
SplineSet
1019 247 m 1,0,1
 1048 228 1048 228 1098 204 c 128,-1,2
 1148 180 1148 180 1184.5 163 c 128,-1,3
 1221 146 1221 146 1256.5 114.5 c 128,-1,4
 1292 83 1292 83 1309 42 c 1,5,6
 1271 43 1271 43 1218 60 c 128,-1,7
 1165 77 1165 77 1120.5 97 c 128,-1,8
 1076 117 1076 117 1019.5 132 c 128,-1,9
 963 147 963 147 916 144 c 0,10,11
 891 142 891 142 837.5 126 c 128,-1,12
 784 110 784 110 723 87.5 c 128,-1,13
 662 65 662 65 586.5 42 c 128,-1,14
 511 19 511 19 439.5 3 c 128,-1,15
 368 -13 368 -13 297.5 -13.5 c 128,-1,16
 227 -14 227 -14 173 2.5 c 128,-1,17
 119 19 119 19 80.5 68 c 128,-1,18
 42 117 42 117 32 196 c 0,19,20
 24 255 24 255 40 320.5 c 128,-1,21
 56 386 56 386 90.5 445 c 128,-1,22
 125 504 125 504 175 557 c 128,-1,23
 225 610 225 610 281.5 648.5 c 128,-1,24
 338 687 338 687 402 707.5 c 128,-1,25
 466 728 466 728 525 723 c 1,26,27
 517 656 517 656 508 604 c 1,28,29
 414 596 414 596 326 543 c 128,-1,30
 238 490 238 490 185.5 414 c 128,-1,31
 133 338 133 338 133 263 c 1,32,33
 134 200 134 200 169 156.5 c 128,-1,34
 204 113 204 113 260.5 95 c 128,-1,35
 317 77 317 77 387.5 73.5 c 128,-1,36
 458 70 458 70 530 82 c 128,-1,37
 602 94 602 94 667.5 114.5 c 128,-1,38
 733 135 733 135 780 162 c 1,39,40
 785 179 785 179 779 189.5 c 128,-1,41
 773 200 773 200 764 204 c 128,-1,42
 755 208 755 208 748.5 218.5 c 128,-1,43
 742 229 742 229 746 247 c 1,44,45
 812 241 812 241 866 253.5 c 128,-1,46
 920 266 920 266 958 291.5 c 128,-1,47
 996 317 996 317 1028 359 c 128,-1,48
 1060 401 1060 401 1081 447.5 c 128,-1,49
 1102 494 1102 494 1121 553 c 1,50,51
 1104 615 1104 615 1047 652.5 c 128,-1,52
 990 690 990 690 915 699 c 128,-1,53
 840 708 840 708 760.5 700.5 c 128,-1,54
 681 693 681 693 610 672 c 1,55,56
 628 730 628 730 684 761 c 128,-1,57
 740 792 740 792 811 792.5 c 128,-1,58
 882 793 882 793 954.5 778.5 c 128,-1,59
 1027 764 1027 764 1086.5 735 c 128,-1,60
 1146 706 1146 706 1172 672 c 1,61,62
 1203 577 1203 577 1185.5 492 c 128,-1,63
 1168 407 1168 407 1124 345 c 128,-1,64
 1080 283 1080 283 1019 247 c 1,0,1
EndSplineSet
EndChar

StartChar: R
Encoding: 82 82 46
Width: 1097
Flags: HW
LayerCount: 2
Fore
SplineSet
393 333 m 1,0,1
 436 293 436 293 512 263.5 c 128,-1,2
 588 234 588 234 668 216.5 c 128,-1,3
 748 199 748 199 826 181 c 128,-1,4
 904 163 904 163 969 134.5 c 128,-1,5
 1034 106 1034 106 1064 69 c 1,6,7
 1014 45 1014 45 950.5 44.5 c 128,-1,8
 887 44 887 44 826 60 c 128,-1,9
 765 76 765 76 691.5 100 c 128,-1,10
 618 124 618 124 552.5 148 c 128,-1,11
 487 172 487 172 410.5 190 c 128,-1,12
 334 208 334 208 269 210 c 1,13,14
 271 194 271 194 276 170 c 128,-1,15
 281 146 281 146 284.5 127.5 c 128,-1,16
 288 109 288 109 291.5 85.5 c 128,-1,17
 295 62 295 62 295 45.5 c 128,-1,18
 295 29 295 29 293 12 c 128,-1,19
 291 -5 291 -5 283 -15 c 128,-1,20
 275 -25 275 -25 262.5 -30.5 c 128,-1,21
 250 -36 250 -36 229.5 -33.5 c 128,-1,22
 209 -31 209 -31 181 -19 c 1,23,24
 187 19 187 19 188 59 c 128,-1,25
 189 99 189 99 179.5 139 c 128,-1,26
 170 179 170 179 153 212 c 128,-1,27
 136 245 136 245 107 268 c 128,-1,28
 78 291 78 291 40 298 c 1,29,30
 38 324 38 324 49 341.5 c 128,-1,31
 60 359 60 359 75.5 367.5 c 128,-1,32
 91 376 91 376 107 389.5 c 128,-1,33
 123 403 123 403 128 422 c 1,34,35
 133 465 133 465 128.5 503.5 c 128,-1,36
 124 542 124 542 123 574.5 c 128,-1,37
 122 607 122 607 126.5 631 c 128,-1,38
 131 655 131 655 153 669.5 c 128,-1,39
 175 684 175 684 216 686 c 1,40,41
 229 616 229 616 228 544 c 128,-1,42
 227 472 227 472 234 386 c 1,43,44
 369 393 369 393 458.5 452.5 c 128,-1,45
 548 512 548 512 605 615 c 1,46,47
 592 638 592 638 574 656.5 c 128,-1,48
 556 675 556 675 532 689 c 128,-1,49
 508 703 508 703 485.5 713.5 c 128,-1,50
 463 724 463 724 429.5 732 c 128,-1,51
 396 740 396 740 371.5 745.5 c 128,-1,52
 347 751 347 751 307 755.5 c 128,-1,53
 267 760 267 760 243.5 762.5 c 128,-1,54
 220 765 220 765 176 768.5 c 128,-1,55
 132 772 132 772 111 774 c 0,56,57
 102 775 102 775 98 778 c 128,-1,58
 94 781 94 781 95 787 c 128,-1,59
 96 793 96 793 98.5 798.5 c 128,-1,60
 101 804 101 804 105 812.5 c 128,-1,61
 109 821 109 821 111 827 c 1,62,63
 178 836 178 836 249.5 838.5 c 128,-1,64
 321 841 321 841 396 832.5 c 128,-1,65
 471 824 471 824 532.5 805.5 c 128,-1,66
 594 787 594 787 638 752 c 128,-1,67
 682 717 682 717 693 669 c 0,68,69
 721 546 721 546 573 439 c 0,70,71
 532 410 532 410 401 338 c 0,72,73
 397 336 397 336 393 333 c 1,0,1
EndSplineSet
EndChar

StartChar: S
Encoding: 83 83 47
Width: 1105
Flags: HW
LayerCount: 2
Fore
SplineSet
653 513 m 1,0,1
 623 523 623 523 605.5 545.5 c 128,-1,2
 588 568 588 568 578.5 594 c 128,-1,3
 569 620 569 620 559.5 645.5 c 128,-1,4
 550 671 550 671 529.5 693 c 128,-1,5
 509 715 509 715 476 725 c 0,6,7
 375 756 375 756 284 702 c 128,-1,8
 193 648 193 648 159 548 c 1,9,10
 187 517 187 517 243.5 495.5 c 128,-1,11
 300 474 300 474 368 464.5 c 128,-1,12
 436 455 436 455 517 445 c 128,-1,13
 598 435 598 435 675 428 c 128,-1,14
 752 421 752 421 823.5 404 c 128,-1,15
 895 387 895 387 948 363.5 c 128,-1,16
 1001 340 1001 340 1032 297 c 128,-1,17
 1063 254 1063 254 1059 196 c 0,18,19
 1054 99 1054 99 923 35 c 0,20,21
 792 -30 792 -30 620 -26 c 0,22,23
 435 -22 435 -22 340 63 c 1,24,25
 250 146 250 146 283 284 c 1,26,27
 307 272 307 272 318.5 252.5 c 128,-1,28
 330 233 330 233 334 212 c 128,-1,29
 338 191 338 191 342.5 169.5 c 128,-1,30
 347 148 347 148 362.5 126.5 c 128,-1,31
 378 105 378 105 406 89 c 1,32,33
 466 57 466 57 554 53 c 128,-1,34
 642 49 642 49 724.5 68.5 c 128,-1,35
 807 88 807 88 876 127 c 128,-1,36
 945 166 945 166 971 213 c 1,37,38
 938 267 938 267 875.5 300.5 c 128,-1,39
 813 334 813 334 738 346 c 128,-1,40
 663 358 663 358 578.5 363.5 c 128,-1,41
 494 369 494 369 410 373.5 c 128,-1,42
 326 378 326 378 252.5 389 c 128,-1,43
 179 400 179 400 121 431 c 128,-1,44
 63 462 63 462 36 513 c 1,45,46
 49 572 49 572 85.5 630.5 c 128,-1,47
 122 689 122 689 173.5 736 c 128,-1,48
 225 783 225 783 296 810 c 128,-1,49
 367 837 367 837 441 830 c 0,50,51
 494 826 494 826 552.5 799.5 c 128,-1,52
 611 773 611 773 653.5 729.5 c 128,-1,53
 696 686 696 686 700.5 630 c 128,-1,54
 705 574 705 574 653 513 c 1,0,1
EndSplineSet
EndChar

StartChar: T
Encoding: 84 84 48
Width: 1093
Flags: HW
LayerCount: 2
Fore
SplineSet
1053 782 m 1,0,1
 944 764 944 764 738 761.5 c 128,-1,2
 532 759 532 759 456 749 c 1,3,4
 459 721 459 721 469 699 c 128,-1,5
 479 677 479 677 498 650 c 128,-1,6
 517 623 517 623 523 611 c 1,7,8
 505 554 505 554 504.5 477 c 128,-1,9
 504 400 504 400 515.5 332.5 c 128,-1,10
 527 265 527 265 537.5 190.5 c 128,-1,11
 548 116 548 116 552 63 c 128,-1,12
 556 10 556 10 541 -37 c 1,13,14
 493 -27 493 -27 463.5 10.5 c 128,-1,15
 434 48 434 48 424.5 97 c 128,-1,16
 415 146 415 146 411 208.5 c 128,-1,17
 407 271 407 271 407.5 329.5 c 128,-1,18
 408 388 408 388 398.5 447 c 128,-1,19
 389 506 389 506 370 544 c 1,20,21
 373 555 373 555 382 583.5 c 128,-1,22
 391 612 391 612 393 623.5 c 128,-1,23
 395 635 395 635 396.5 656 c 128,-1,24
 398 677 398 677 391 694.5 c 128,-1,25
 384 712 384 712 370 731 c 1,26,27
 341 735 341 735 294.5 729.5 c 128,-1,28
 248 724 248 724 208 718 c 128,-1,29
 168 712 168 712 128.5 711 c 128,-1,30
 89 710 89 710 62.5 727 c 128,-1,31
 36 744 36 744 29 782 c 1,32,33
 224 843 224 843 538.5 841 c 128,-1,34
 853 839 853 839 1053 782 c 1,0,1
EndSplineSet
EndChar

StartChar: U
Encoding: 85 85 49
Width: 1069
Flags: HW
LayerCount: 2
Fore
SplineSet
221 803 m 1,0,1
 237 745 237 745 237 684.5 c 128,-1,2
 237 624 237 624 224.5 574 c 128,-1,3
 212 524 212 524 196 467.5 c 128,-1,4
 180 411 180 411 165.5 358.5 c 128,-1,5
 151 306 151 306 144.5 241 c 128,-1,6
 138 176 138 176 146 110 c 1,7,8
 203 91 203 91 266.5 88.5 c 128,-1,9
 330 86 330 86 390 99.5 c 128,-1,10
 450 113 450 113 507.5 135 c 128,-1,11
 565 157 565 157 619 188 c 128,-1,12
 673 219 673 219 717.5 250.5 c 128,-1,13
 762 282 762 282 802 315 c 1,14,15
 805 364 805 364 794.5 430 c 128,-1,16
 784 496 784 496 774.5 548 c 128,-1,17
 765 600 765 600 762 653.5 c 128,-1,18
 759 707 759 707 777.5 750.5 c 128,-1,19
 796 794 796 794 840 821 c 1,20,21
 870 796 870 796 885 759.5 c 128,-1,22
 900 723 900 723 901 684.5 c 128,-1,23
 902 646 902 646 900 601 c 128,-1,24
 898 556 898 556 894 513.5 c 128,-1,25
 890 471 890 471 896 428 c 0,26,27
 903 369 903 369 924 296.5 c 128,-1,28
 945 224 945 224 965 171.5 c 128,-1,29
 985 119 985 119 999 60 c 128,-1,30
 1013 1 1013 1 1009 -40 c 1,31,32
 977 -37 977 -37 953 -23 c 128,-1,33
 929 -9 929 -9 914.5 9.5 c 128,-1,34
 900 28 900 28 888.5 56.5 c 128,-1,35
 877 85 877 85 870.5 108.5 c 128,-1,36
 864 132 864 132 855 167 c 128,-1,37
 846 202 846 202 840 222 c 1,38,39
 802 210 802 210 759 188.5 c 128,-1,40
 716 167 716 167 678 144 c 128,-1,41
 640 121 640 121 597.5 95 c 128,-1,42
 555 69 555 69 516 46.5 c 128,-1,43
 477 24 477 24 433 5 c 128,-1,44
 389 -14 389 -14 347 -25 c 128,-1,45
 305 -36 305 -36 258 -35.5 c 128,-1,46
 211 -35 211 -35 165 -22 c 0,47,48
 109 -6 109 -6 77 36.5 c 128,-1,49
 45 79 45 79 39.5 138.5 c 128,-1,50
 34 198 34 198 41 266 c 128,-1,51
 48 334 48 334 65.5 411.5 c 128,-1,52
 83 489 83 489 100.5 559.5 c 128,-1,53
 118 630 118 630 131.5 702 c 128,-1,54
 145 774 145 774 146 821 c 1,55,56
 162 822 162 822 182.5 811.5 c 128,-1,57
 203 801 203 801 221 803 c 1,0,1
EndSplineSet
EndChar

StartChar: V
Encoding: 86 86 50
Width: 1019
Flags: HW
LayerCount: 2
Fore
SplineSet
957 812 m 1,0,1
 938 731 938 731 900 640.5 c 128,-1,2
 862 550 862 550 824 474 c 128,-1,3
 786 398 786 398 750.5 317.5 c 128,-1,4
 715 237 715 237 693.5 145 c 128,-1,5
 672 53 672 53 674 -39 c 1,6,7
 596 8 596 8 523.5 73 c 128,-1,8
 451 138 451 138 389.5 212 c 128,-1,9
 328 286 328 286 274.5 356.5 c 128,-1,10
 221 427 221 427 156 510.5 c 128,-1,11
 91 594 91 594 36 652 c 1,12,13
 42 674 42 674 71 697.5 c 128,-1,14
 100 721 100 721 106 741 c 1,15,16
 158 698 158 698 209.5 638 c 128,-1,17
 261 578 261 578 302.5 517.5 c 128,-1,18
 344 457 344 457 386 396 c 128,-1,19
 428 335 428 335 479.5 275.5 c 128,-1,20
 531 216 531 216 585 174 c 1,21,22
 619 241 619 241 658 339 c 128,-1,23
 697 437 697 437 726 513.5 c 128,-1,24
 755 590 755 590 798 678 c 128,-1,25
 841 766 841 766 887 830 c 1,26,27
 902 831 902 831 921 820.5 c 128,-1,28
 940 810 940 810 957 812 c 1,0,1
EndSplineSet
EndChar

StartChar: W
Encoding: 87 87 51
Width: 1494
Flags: HW
LayerCount: 2
Fore
SplineSet
1448 770 m 1,0,1
 1446 735 1446 735 1429 710.5 c 128,-1,2
 1412 686 1412 686 1391 674 c 128,-1,3
 1370 662 1370 662 1342 642.5 c 128,-1,4
 1314 623 1314 623 1297 601 c 0,5,6
 1257 547 1257 547 1219 468 c 128,-1,7
 1181 389 1181 389 1151.5 317 c 128,-1,8
 1122 245 1122 245 1087 172 c 128,-1,9
 1052 99 1052 99 1000.5 38.5 c 128,-1,10
 949 -22 949 -22 885 -57 c 1,11,12
 844 -27 844 -27 811.5 19.5 c 128,-1,13
 779 66 779 66 756 117.5 c 128,-1,14
 733 169 733 169 712.5 220.5 c 128,-1,15
 692 272 692 272 664 325 c 128,-1,16
 636 378 636 378 602 413 c 1,17,18
 578 389 578 389 568.5 342.5 c 128,-1,19
 559 296 559 296 558.5 245.5 c 128,-1,20
 558 195 558 195 556 145 c 128,-1,21
 554 95 554 95 538.5 55 c 128,-1,22
 523 15 523 15 489 -1 c 1,23,24
 462 -2 462 -2 441.5 6.5 c 128,-1,25
 421 15 421 15 409 26 c 128,-1,26
 397 37 397 37 386.5 60 c 128,-1,27
 376 83 376 83 372 97.5 c 128,-1,28
 368 112 368 112 360 141 c 0,29,30
 359 146 359 146 358 150 c 0,31,32
 343 183 343 183 317 219.5 c 128,-1,33
 291 256 291 256 262 286.5 c 128,-1,34
 233 317 233 317 201 352.5 c 128,-1,35
 169 388 169 388 141 420.5 c 128,-1,36
 113 453 113 453 90 490.5 c 128,-1,37
 67 528 67 528 53.5 564.5 c 128,-1,38
 40 601 40 601 40.5 644.5 c 128,-1,39
 41 688 41 688 57 732 c 1,40,41
 103 705 103 705 141 659.5 c 128,-1,42
 179 614 179 614 205.5 563 c 128,-1,43
 232 512 232 512 258 461 c 128,-1,44
 284 410 284 410 319 360.5 c 128,-1,45
 354 311 354 311 395 282 c 1,46,47
 423 307 423 307 440.5 352 c 128,-1,48
 458 397 458 397 466.5 445 c 128,-1,49
 475 493 475 493 486.5 539.5 c 128,-1,50
 498 586 498 586 522 623 c 128,-1,51
 546 660 546 660 584 676 c 1,52,53
 635 650 635 650 673 601.5 c 128,-1,54
 711 553 711 553 734 493.5 c 128,-1,55
 757 434 757 434 776.5 374 c 128,-1,56
 796 314 796 314 823 251.5 c 128,-1,57
 850 189 850 189 885 150 c 1,58,59
 946 211 946 211 1006.5 300.5 c 128,-1,60
 1067 390 1067 390 1108.5 469 c 128,-1,61
 1150 548 1150 548 1207.5 644.5 c 128,-1,62
 1265 741 1265 741 1317 807 c 1,63,64
 1370 813 1370 813 1404 805.5 c 128,-1,65
 1438 798 1438 798 1448 770 c 1,0,1
EndSplineSet
EndChar

StartChar: X
Encoding: 88 88 52
Width: 917
Flags: HW
LayerCount: 2
Fore
SplineSet
843 862 m 1,0,1
 804 796 804 796 696 649 c 128,-1,2
 588 502 588 502 541 410 c 1,3,4
 559 365 559 365 590 324.5 c 128,-1,5
 621 284 621 284 656 251.5 c 128,-1,6
 691 219 691 219 726.5 189.5 c 128,-1,7
 762 160 762 160 799.5 123.5 c 128,-1,8
 837 87 837 87 861 51 c 1,9,10
 858 35 858 35 849 20 c 128,-1,11
 840 5 840 5 832 -2.5 c 128,-1,12
 824 -10 824 -10 808 -24 c 128,-1,13
 792 -38 792 -38 785 -43 c 1,14,15
 744 -12 744 -12 702 34 c 128,-1,16
 660 80 660 80 630.5 121.5 c 128,-1,17
 601 163 601 163 560.5 213 c 128,-1,18
 520 263 520 263 484 296 c 1,19,20
 445 279 445 279 417.5 239 c 128,-1,21
 390 199 390 199 378 159 c 128,-1,22
 366 119 366 119 348 63.5 c 128,-1,23
 330 8 330 8 314 -25 c 1,24,25
 294 -28 294 -28 271.5 -12.5 c 128,-1,26
 249 3 249 3 220 -5 c 1,27,28
 216 51 216 51 227.5 98.5 c 128,-1,29
 239 146 239 146 260 182.5 c 128,-1,30
 281 219 281 219 304 249.5 c 128,-1,31
 327 280 327 280 351.5 317.5 c 128,-1,32
 376 355 376 355 390 391 c 1,33,34
 358 435 358 435 311.5 486.5 c 128,-1,35
 265 538 265 538 225.5 576 c 128,-1,36
 186 614 186 614 142 666.5 c 128,-1,37
 98 719 98 719 69 768 c 1,38,39
 108 791 108 791 142 792 c 128,-1,40
 176 793 176 793 203.5 774.5 c 128,-1,41
 231 756 231 756 256.5 727.5 c 128,-1,42
 282 699 282 699 305.5 663 c 128,-1,43
 329 627 329 627 350 593.5 c 128,-1,44
 371 560 371 560 396.5 530 c 128,-1,45
 422 500 422 500 446 485 c 1,46,47
 474 499 474 499 499.5 529.5 c 128,-1,48
 525 560 525 560 543.5 594.5 c 128,-1,49
 562 629 562 629 582.5 669 c 128,-1,50
 603 709 603 709 620.5 743.5 c 128,-1,51
 638 778 638 778 661.5 809.5 c 128,-1,52
 685 841 685 841 709.5 857.5 c 128,-1,53
 734 874 734 874 768.5 877.5 c 128,-1,54
 803 881 803 881 843 862 c 1,0,1
EndSplineSet
EndChar

StartChar: Y
Encoding: 89 89 53
Width: 792
Flags: HW
LayerCount: 2
Fore
SplineSet
740 851 m 1,0,1
 735 777 735 777 705.5 692.5 c 128,-1,2
 676 608 676 608 637.5 532.5 c 128,-1,3
 599 457 599 457 561.5 378 c 128,-1,4
 524 299 524 299 501.5 209.5 c 128,-1,5
 479 120 479 120 483 35 c 1,6,7
 471 25 471 25 455 1.5 c 128,-1,8
 439 -22 439 -22 421.5 -37.5 c 128,-1,9
 404 -53 404 -53 378 -55 c 1,10,11
 358 -27 358 -27 355 9.5 c 128,-1,12
 352 46 352 46 363 82.5 c 128,-1,13
 374 119 374 119 392.5 163 c 128,-1,14
 411 207 411 207 430 246 c 128,-1,15
 449 285 449 285 464.5 330.5 c 128,-1,16
 480 376 480 376 483 413 c 1,17,18
 410 388 410 388 343 393.5 c 128,-1,19
 276 399 276 399 219 434 c 128,-1,20
 162 469 162 469 121 518.5 c 128,-1,21
 80 568 80 568 59.5 632 c 128,-1,22
 39 696 39 696 45 761 c 1,23,24
 56 760 56 760 66 760 c 128,-1,25
 76 760 76 760 82.5 763.5 c 128,-1,26
 89 767 89 767 91 775 c 1,27,28
 111 748 111 748 135.5 707 c 128,-1,29
 160 666 160 666 179.5 633 c 128,-1,30
 199 600 199 600 224.5 566 c 128,-1,31
 250 532 250 532 284.5 508 c 128,-1,32
 319 484 319 484 362 473 c 1,33,34
 417 476 417 476 459 498 c 128,-1,35
 501 520 501 520 524.5 553 c 128,-1,36
 548 586 548 586 569.5 629.5 c 128,-1,37
 591 673 591 673 606 713.5 c 128,-1,38
 621 754 621 754 644.5 796.5 c 128,-1,39
 668 839 668 839 695 866 c 1,40,41
 717 850 717 850 740 851 c 1,0,1
EndSplineSet
EndChar

StartChar: Z
Encoding: 90 90 54
Width: 1036
Flags: HW
LayerCount: 2
Fore
SplineSet
807 852 m 1,0,1
 817 823 817 823 813 793 c 128,-1,2
 809 763 809 763 798 740 c 128,-1,3
 787 717 787 717 769.5 691 c 128,-1,4
 752 665 752 665 735.5 644 c 128,-1,5
 719 623 719 623 702.5 596 c 128,-1,6
 686 569 686 569 678 546 c 1,7,8
 689 526 689 526 712.5 522 c 128,-1,9
 736 518 736 518 765.5 525 c 128,-1,10
 795 532 795 532 824.5 540 c 128,-1,11
 854 548 854 548 884.5 547 c 128,-1,12
 915 546 915 546 936 529 c 1,13,14
 920 502 920 502 891 485 c 128,-1,15
 862 468 862 468 822.5 460 c 128,-1,16
 783 452 783 452 748 448 c 128,-1,17
 713 444 713 444 662 440.5 c 128,-1,18
 611 437 611 437 582 433 c 1,19,20
 397 224 397 224 291 94 c 1,21,22
 345 90 345 90 427.5 100.5 c 128,-1,23
 510 111 510 111 584 123 c 128,-1,24
 658 135 658 135 733 141.5 c 128,-1,25
 808 148 808 148 870.5 133.5 c 128,-1,26
 933 119 933 119 968 78 c 1,27,28
 881 82 881 82 779.5 68 c 128,-1,29
 678 54 678 54 597.5 33 c 128,-1,30
 517 12 517 12 425 -8.5 c 128,-1,31
 333 -29 333 -29 263.5 -37.5 c 128,-1,32
 194 -46 194 -46 114 -35 c 1,33,34
 130 16 130 16 158.5 63.5 c 128,-1,35
 187 111 187 111 221.5 148.5 c 128,-1,36
 256 186 256 186 290.5 221.5 c 128,-1,37
 325 257 325 257 360.5 300 c 128,-1,38
 396 343 396 343 420 384 c 1,39,40
 414 397 414 397 394 402 c 128,-1,41
 374 407 374 407 354.5 407.5 c 128,-1,42
 335 408 335 408 320 417.5 c 128,-1,43
 305 427 305 427 307 449 c 1,44,45
 305 476 305 476 317.5 490.5 c 128,-1,46
 330 505 330 505 350.5 508.5 c 128,-1,47
 371 512 371 512 397 513 c 128,-1,48
 423 514 423 514 449.5 512 c 128,-1,49
 476 510 476 510 501 513 c 1,50,51
 556 552 556 552 595 609.5 c 128,-1,52
 634 667 634 667 678 755 c 1,53,54
 671 755 671 755 623 754 c 128,-1,55
 575 753 575 753 557 752.5 c 128,-1,56
 539 752 539 752 490 750 c 128,-1,57
 441 748 441 748 414.5 745.5 c 128,-1,58
 388 743 388 743 343.5 740 c 128,-1,59
 299 737 299 737 268.5 732.5 c 128,-1,60
 238 728 238 728 201.5 722 c 128,-1,61
 165 716 165 716 135.5 708 c 128,-1,62
 106 700 106 700 81 690 c 1,63,64
 81 712 81 712 69.5 731 c 128,-1,65
 58 750 58 750 50.5 770.5 c 128,-1,66
 43 791 43 791 49 819 c 1,67,68
 116 820 116 820 395.5 839 c 128,-1,69
 675 858 675 858 807 852 c 1,0,1
EndSplineSet
EndChar

StartChar: backslash
Encoding: 92 92 55
Width: 774
Flags: HW
LayerCount: 2
Fore
SplineSet
156 991 m 1,0,1
 221 880 221 880 301.5 714.5 c 128,-1,2
 382 549 382 549 460.5 395.5 c 128,-1,3
 539 242 539 242 614 127 c 1,4,5
 634 116 634 116 645 109.5 c 128,-1,6
 656 103 656 103 675.5 90 c 128,-1,7
 695 77 695 77 704.5 65 c 128,-1,8
 714 53 714 53 722.5 38 c 128,-1,9
 731 23 731 23 730 5.5 c 128,-1,10
 729 -12 729 -12 720 -31 c 1,11,12
 644 -9 644 -9 579.5 40.5 c 128,-1,13
 515 90 515 90 467.5 157 c 128,-1,14
 420 224 420 224 378 302.5 c 128,-1,15
 336 381 336 381 297 467 c 128,-1,16
 258 553 258 553 220 632 c 128,-1,17
 182 711 182 711 133.5 789 c 128,-1,18
 85 867 85 867 32 921 c 1,19,20
 33 966 33 966 65.5 981 c 128,-1,21
 98 996 98 996 156 991 c 1,0,1
EndSplineSet
EndChar

StartChar: a
Encoding: 97 97 56
Width: 738
Flags: HW
LayerCount: 2
Fore
SplineSet
637 282 m 1,0,1
 628 259 628 259 631 221.5 c 128,-1,2
 634 184 634 184 641.5 151.5 c 128,-1,3
 649 119 649 119 650 82.5 c 128,-1,4
 651 46 651 46 637 27 c 1,5,6
 608 29 608 29 595 52.5 c 128,-1,7
 582 76 582 76 581 104.5 c 128,-1,8
 580 133 580 133 574.5 166 c 128,-1,9
 569 199 569 199 556 215 c 1,10,11
 519 222 519 222 465 214 c 128,-1,12
 411 206 411 206 363.5 191.5 c 128,-1,13
 316 177 316 177 264 167 c 128,-1,14
 212 157 212 157 179 161 c 1,15,16
 165 143 165 143 159.5 115.5 c 128,-1,17
 154 88 154 88 153.5 65.5 c 128,-1,18
 153 43 153 43 148 23 c 128,-1,19
 143 3 143 3 124.5 -7 c 128,-1,20
 106 -17 106 -17 72 -14 c 1,21,22
 70 66 70 66 90.5 155 c 128,-1,23
 111 244 111 244 141.5 323.5 c 128,-1,24
 172 403 172 403 202 483 c 128,-1,25
 232 563 232 563 253 651.5 c 128,-1,26
 274 740 274 740 273 820 c 1,27,28
 281 830 281 830 307 840.5 c 128,-1,29
 333 851 333 851 341 860 c 1,30,31
 363 843 363 843 382 820 c 128,-1,32
 401 797 401 797 416.5 777.5 c 128,-1,33
 432 758 432 758 449 725.5 c 128,-1,34
 466 693 466 693 476 674.5 c 128,-1,35
 486 656 486 656 501 615.5 c 128,-1,36
 516 575 516 575 522 559.5 c 128,-1,37
 528 544 528 544 542.5 496.5 c 128,-1,38
 557 449 557 449 560.5 436.5 c 128,-1,39
 564 424 564 424 579 370.5 c 128,-1,40
 594 317 594 317 596 309 c 0,41,42
 598 299 598 299 617.5 296.5 c 128,-1,43
 637 294 637 294 637 282 c 1,0,1
206 255 m 1,44,45
 242 257 242 257 350.5 271 c 128,-1,46
 459 285 459 285 529 282 c 1,47,48
 523 304 523 304 509.5 355 c 128,-1,49
 496 406 496 406 488 431.5 c 128,-1,50
 480 457 480 457 465.5 499.5 c 128,-1,51
 451 542 451 542 436.5 568 c 128,-1,52
 422 594 422 594 400.5 623 c 128,-1,53
 379 652 379 652 354 672 c 1,54,55
 339 634 339 634 323.5 594 c 128,-1,56
 308 554 308 554 291 505.5 c 128,-1,57
 274 457 274 457 264 427 c 128,-1,58
 254 397 254 397 233.5 337 c 128,-1,59
 213 277 213 277 206 255 c 1,44,45
EndSplineSet
EndChar

StartChar: b
Encoding: 98 98 57
Width: 966
Flags: HW
LayerCount: 2
Fore
SplineSet
894 515 m 1,0,1
 917 432 917 432 891.5 347.5 c 128,-1,2
 866 263 866 263 808.5 196.5 c 128,-1,3
 751 130 751 130 669.5 78.5 c 128,-1,4
 588 27 588 27 502.5 1.5 c 128,-1,5
 417 -24 417 -24 332 -18.5 c 128,-1,6
 247 -13 247 -13 185 29 c 1,7,8
 176 75 176 75 175.5 146 c 128,-1,9
 175 217 175 217 174.5 265.5 c 128,-1,10
 174 314 174 314 153.5 368.5 c 128,-1,11
 133 423 133 423 88 460 c 1,12,13
 123 489 123 489 133.5 538 c 128,-1,14
 144 587 144 587 134.5 634.5 c 128,-1,15
 125 682 125 682 108 721.5 c 128,-1,16
 91 761 91 761 74 779 c 1,17,18
 85 818 85 818 120 847 c 128,-1,19
 155 876 155 876 200.5 887.5 c 128,-1,20
 246 899 246 899 298 901.5 c 128,-1,21
 350 904 350 904 398.5 891.5 c 128,-1,22
 447 879 447 879 486 858 c 128,-1,23
 525 837 525 837 545.5 801.5 c 128,-1,24
 566 766 566 766 560 724 c 0,25,26
 557 697 557 697 540.5 678.5 c 128,-1,27
 524 660 524 660 505 650 c 128,-1,28
 486 640 486 640 461.5 622.5 c 128,-1,29
 437 605 437 605 422 585 c 1,30,31
 471 573 471 573 544.5 571.5 c 128,-1,32
 618 570 618 570 675 572 c 128,-1,33
 732 574 732 574 794 561.5 c 128,-1,34
 856 549 856 549 894 515 c 1,0,1
213 807 m 1,35,-1
 213 570 l 1,36,37
 264 589 264 589 298.5 605 c 128,-1,38
 333 621 333 621 373.5 644.5 c 128,-1,39
 414 668 414 668 443 698 c 128,-1,40
 472 728 472 728 492 765 c 1,41,42
 455 791 455 791 410.5 801.5 c 128,-1,43
 366 812 366 812 318.5 811.5 c 128,-1,44
 271 811 271 811 213 807 c 1,35,-1
283 29 m 1,45,46
 747 81 747 81 839 460 c 1,47,48
 798 486 798 486 745 497.5 c 128,-1,49
 692 509 692 509 646 510 c 128,-1,50
 600 511 600 511 535 501.5 c 128,-1,51
 470 492 470 492 429.5 482 c 128,-1,52
 389 472 389 472 321.5 455 c 128,-1,53
 254 438 254 438 227 431 c 1,54,55
 224 360 224 360 232.5 294 c 128,-1,56
 241 228 241 228 259 147.5 c 128,-1,57
 277 67 277 67 283 29 c 1,45,46
EndSplineSet
EndChar

StartChar: c
Encoding: 99 99 58
Width: 925
Flags: HW
LayerCount: 2
Fore
SplineSet
735 562 m 1,0,1
 694 555 694 555 671 570 c 128,-1,2
 648 585 648 585 640 613.5 c 128,-1,3
 632 642 632 642 628 672.5 c 128,-1,4
 624 703 624 703 614.5 734 c 128,-1,5
 605 765 605 765 586 778 c 1,6,7
 500 792 500 792 422 773.5 c 128,-1,8
 344 755 344 755 288.5 709.5 c 128,-1,9
 233 664 233 664 194.5 601.5 c 128,-1,10
 156 539 156 539 141.5 463.5 c 128,-1,11
 127 388 127 388 138 313 c 0,12,13
 148 239 148 239 190 186.5 c 128,-1,14
 232 134 232 134 293.5 108 c 128,-1,15
 355 82 355 82 430.5 73.5 c 128,-1,16
 506 65 506 65 584 74.5 c 128,-1,17
 662 84 662 84 735.5 107 c 128,-1,18
 809 130 809 130 868 164 c 1,19,20
 819 97 819 97 743 51.5 c 128,-1,21
 667 6 667 6 583.5 -13.5 c 128,-1,22
 500 -33 500 -33 412 -26.5 c 128,-1,23
 324 -20 324 -20 251 10 c 128,-1,24
 178 40 178 40 125 101.5 c 128,-1,25
 72 163 72 163 55 247 c 0,26,27
 13 457 13 457 131 642 c 0,28,29
 218 778 218 778 352 846 c 0,30,31
 488 915 488 915 594 870 c 0,32,33
 717 819 717 819 733 632 c 0,34,35
 736 599 736 599 735 562 c 1,0,1
EndSplineSet
EndChar

StartChar: d
Encoding: 100 100 59
Width: 909
Flags: HW
LayerCount: 2
Fore
SplineSet
232 -5 m 1,0,1
 227 23 227 23 246.5 28.5 c 128,-1,2
 266 34 266 34 300.5 29.5 c 128,-1,3
 335 25 335 25 348 29 c 1,4,5
 361 38 361 38 506 126 c 0,6,7
 657 217 657 217 713 292 c 0,8,9
 785 387 785 387 758 504 c 0,10,11
 749 544 749 544 727 579 c 128,-1,12
 705 614 705 614 676.5 641 c 128,-1,13
 648 668 648 668 607 692 c 128,-1,14
 566 716 566 716 526 733 c 128,-1,15
 486 750 486 750 433 765.5 c 128,-1,16
 380 781 380 781 335.5 792 c 128,-1,17
 291 803 291 803 232 815 c 1,18,19
 248 754 248 754 263.5 616 c 128,-1,20
 279 478 279 478 298 343 c 128,-1,21
 317 208 317 208 348 127 c 1,22,23
 296 124 296 124 257.5 179 c 128,-1,24
 219 234 219 234 200 318 c 128,-1,25
 181 402 181 402 173 495.5 c 128,-1,26
 165 589 165 589 168.5 667 c 128,-1,27
 172 745 172 745 183 782 c 1,28,29
 179 798 179 798 153.5 799.5 c 128,-1,30
 128 801 128 801 101.5 801 c 128,-1,31
 75 801 75 801 69 815 c 1,32,33
 63 843 63 843 74.5 871 c 128,-1,34
 86 899 86 899 85 913 c 1,35,36
 615 908 615 908 840 537 c 1,37,38
 852 453 852 453 828.5 373.5 c 128,-1,39
 805 294 805 294 756.5 233.5 c 128,-1,40
 708 173 708 173 641 123 c 128,-1,41
 574 73 574 73 502.5 43 c 128,-1,42
 431 13 431 13 360 0 c 128,-1,43
 289 -13 289 -13 232 -5 c 1,0,1
EndSplineSet
EndChar

StartChar: e
Encoding: 101 101 60
Width: 843
Flags: HW
LayerCount: 2
Fore
SplineSet
749 814 m 1,0,1
 741 786 741 786 713 775.5 c 128,-1,2
 685 765 685 765 648 767.5 c 128,-1,3
 611 770 611 770 566.5 771.5 c 128,-1,4
 522 773 522 773 480 769 c 1,5,6
 430 762 430 762 371.5 744.5 c 128,-1,7
 313 727 313 727 286.5 716.5 c 128,-1,8
 260 706 260 706 198 680 c 1,9,10
 200 640 200 640 197.5 600 c 128,-1,11
 195 560 195 560 191 536.5 c 128,-1,12
 187 513 187 513 188 484 c 128,-1,13
 189 455 189 455 198 426 c 1,14,15
 259 424 259 424 401.5 445 c 128,-1,16
 544 466 544 466 614 457 c 1,17,18
 583 422 583 422 528 399.5 c 128,-1,19
 473 377 473 377 421.5 368 c 128,-1,20
 370 359 370 359 297.5 347 c 128,-1,21
 225 335 225 335 182 323 c 1,22,23
 188 312 188 312 192 289 c 128,-1,24
 196 266 196 266 197 239 c 128,-1,25
 198 212 198 212 198 179 c 128,-1,26
 198 146 198 146 198 114 c 1,27,28
 324 113 324 113 475.5 132 c 128,-1,29
 627 151 627 151 719 188 c 1,30,31
 726 168 726 168 723 151.5 c 128,-1,32
 720 135 720 135 715 123 c 128,-1,33
 710 111 710 111 697 101 c 128,-1,34
 684 91 684 91 670.5 84.5 c 128,-1,35
 657 78 657 78 638.5 73 c 128,-1,36
 620 68 620 68 602.5 64 c 128,-1,37
 585 60 585 60 563.5 57 c 128,-1,38
 542 54 542 54 524 51.5 c 128,-1,39
 506 49 506 49 485.5 46 c 128,-1,40
 465 43 465 43 451 39 c 1,41,42
 425 34 425 34 387.5 22.5 c 128,-1,43
 350 11 350 11 319.5 2 c 128,-1,44
 289 -7 289 -7 252 -16.5 c 128,-1,45
 215 -26 215 -26 185.5 -30.5 c 128,-1,46
 156 -35 156 -35 125.5 -34 c 128,-1,47
 95 -33 95 -33 73 -25 c 1,48,49
 73 80 73 80 72.5 185 c 128,-1,50
 72 290 72 290 71.5 377.5 c 128,-1,51
 71 465 71 465 64 562 c 128,-1,52
 57 659 57 659 43 750 c 1,53,54
 128 789 128 789 251 815 c 128,-1,55
 374 841 374 841 506.5 844 c 128,-1,56
 639 847 639 847 749 814 c 1,0,1
EndSplineSet
EndChar

StartChar: f
Encoding: 102 102 61
Width: 797
Flags: HW
LayerCount: 2
Fore
SplineSet
732 764 m 1,0,1
 636 780 636 780 559.5 786.5 c 128,-1,2
 483 793 483 793 402.5 787.5 c 128,-1,3
 322 782 322 782 240 764 c 1,4,5
 255 737 255 737 255 709.5 c 128,-1,6
 255 682 255 682 248 644.5 c 128,-1,7
 241 607 241 607 240 583 c 1,8,9
 270 558 270 558 326 551.5 c 128,-1,10
 382 545 382 545 436 551 c 128,-1,11
 490 557 490 557 546.5 558 c 128,-1,12
 603 559 603 559 634 550 c 1,13,14
 614 511 614 511 561 491.5 c 128,-1,15
 508 472 508 472 453 469 c 128,-1,16
 398 466 398 466 330.5 459 c 128,-1,17
 263 452 263 452 223 435 c 1,18,19
 217 376 217 376 221.5 307.5 c 128,-1,20
 226 239 226 239 234 188.5 c 128,-1,21
 242 138 242 138 245 73.5 c 128,-1,22
 248 9 248 9 240 -41 c 1,23,24
 201 -37 201 -37 177.5 -14.5 c 128,-1,25
 154 8 154 8 146.5 43 c 128,-1,26
 139 78 139 78 137 121.5 c 128,-1,27
 135 165 135 165 139.5 211 c 128,-1,28
 144 257 144 257 144.5 302.5 c 128,-1,29
 145 348 145 348 141 386 c 0,30,31
 140 394 140 394 134.5 431.5 c 128,-1,32
 129 469 129 469 126 491.5 c 128,-1,33
 123 514 123 514 120 554.5 c 128,-1,34
 117 595 117 595 118 623.5 c 128,-1,35
 119 652 119 652 124.5 686.5 c 128,-1,36
 130 721 130 721 141 748 c 1,37,38
 132 755 132 755 115.5 761 c 128,-1,39
 99 767 99 767 86.5 770.5 c 128,-1,40
 74 774 74 774 60 783.5 c 128,-1,41
 46 793 46 793 43 806.5 c 128,-1,42
 40 820 40 820 43 846 c 1,43,44
 86 848 86 848 265.5 866.5 c 128,-1,45
 445 885 445 885 519 879 c 0,46,47
 526 878 526 878 547 877 c 128,-1,48
 568 876 568 876 581.5 874.5 c 128,-1,49
 595 873 595 873 617 870 c 128,-1,50
 639 867 639 867 653 862.5 c 128,-1,51
 667 858 667 858 683.5 849.5 c 128,-1,52
 700 841 700 841 710 829.5 c 128,-1,53
 720 818 720 818 726.5 801 c 128,-1,54
 733 784 733 784 732 764 c 1,0,1
EndSplineSet
EndChar

StartChar: g
Encoding: 103 103 62
Width: 1097
Flags: HW
LayerCount: 2
Fore
SplineSet
1012 518 m 1,0,1
 1022 428 1022 428 1025.5 261 c 128,-1,2
 1029 94 1029 94 1046 8 c 1,3,4
 1022 13 1022 13 1002.5 24 c 128,-1,5
 983 35 983 35 969.5 47.5 c 128,-1,6
 956 60 956 60 946.5 80 c 128,-1,7
 937 100 937 100 931 117.5 c 128,-1,8
 925 135 925 135 922 161.5 c 128,-1,9
 919 188 919 188 917.5 208.5 c 128,-1,10
 916 229 916 229 917.5 260 c 128,-1,11
 919 291 919 291 920 311.5 c 128,-1,12
 921 332 921 332 923.5 365 c 128,-1,13
 926 398 926 398 927 416 c 1,14,15
 888 416 888 416 841 398 c 128,-1,16
 794 380 794 380 754.5 356 c 128,-1,17
 715 332 715 332 671.5 311 c 128,-1,18
 628 290 628 290 593 280.5 c 128,-1,19
 558 271 558 271 524 287 c 128,-1,20
 490 303 490 303 467 348 c 1,21,22
 521 355 521 355 580.5 378 c 128,-1,23
 640 401 640 401 689.5 427.5 c 128,-1,24
 739 454 739 454 790.5 478 c 128,-1,25
 842 502 842 502 899.5 514 c 128,-1,26
 957 526 957 526 1012 518 c 1,0,1
671 773 m 1,27,28
 670 738 670 738 644 721.5 c 128,-1,29
 618 705 618 705 582 705 c 128,-1,30
 546 705 546 705 503 705 c 1,31,32
 491 706 491 706 484 706 c 1,33,34
 442 681 442 681 410.5 660.5 c 128,-1,35
 379 640 379 640 336.5 609 c 128,-1,36
 294 578 294 578 262.5 550 c 128,-1,37
 231 522 231 522 199 484.5 c 128,-1,38
 167 447 167 447 147.5 411.5 c 128,-1,39
 128 376 128 376 117 333 c 128,-1,40
 106 290 106 290 110 246 c 0,41,42
 115 187 115 187 146.5 144 c 128,-1,43
 178 101 178 101 225.5 79 c 128,-1,44
 273 57 273 57 336.5 47 c 128,-1,45
 400 37 400 37 464.5 38.5 c 128,-1,46
 529 40 529 40 598.5 48.5 c 128,-1,47
 668 57 668 57 722 68.5 c 128,-1,48
 776 80 776 80 824 93 c 1,49,50
 792 43 792 43 726 9.5 c 128,-1,51
 660 -24 660 -24 581 -37 c 128,-1,52
 502 -50 502 -50 413.5 -46 c 128,-1,53
 325 -42 325 -42 247.5 -21.5 c 128,-1,54
 170 -1 170 -1 109 37.5 c 128,-1,55
 48 76 48 76 25 127 c 1,56,57
 19 166 19 166 24.5 213.5 c 128,-1,58
 30 261 30 261 34 285 c 128,-1,59
 38 309 38 309 25 348 c 1,60,61
 47 389 47 389 63.5 419.5 c 128,-1,62
 80 450 80 450 110.5 498.5 c 128,-1,63
 141 547 141 547 168 582.5 c 128,-1,64
 195 618 195 618 233 662 c 128,-1,65
 271 706 271 706 306.5 733.5 c 128,-1,66
 342 761 342 761 387 784.5 c 128,-1,67
 432 808 432 808 475.5 814.5 c 128,-1,68
 519 821 519 821 570 812 c 128,-1,69
 621 803 621 803 671 773 c 1,27,28
EndSplineSet
EndChar

StartChar: h
Encoding: 104 104 63
Width: 892
Flags: HW
LayerCount: 2
Fore
SplineSet
143 855 m 1,0,-1
 143 586 l 1,1,2
 175 575 175 575 232 575 c 128,-1,3
 289 575 289 575 342.5 577.5 c 128,-1,4
 396 580 396 580 450.5 575.5 c 128,-1,5
 505 571 505 571 546.5 545 c 128,-1,6
 588 519 588 519 605 470 c 1,7,8
 574 464 574 464 521.5 464 c 128,-1,9
 469 464 469 464 418.5 466 c 128,-1,10
 368 468 368 468 315.5 466.5 c 128,-1,11
 263 465 263 465 217 451.5 c 128,-1,12
 171 438 171 438 143 413 c 1,13,14
 146 368 146 368 159.5 296.5 c 128,-1,15
 173 225 173 225 192 133 c 128,-1,16
 211 41 211 41 220 -11 c 1,17,18
 168 7 168 7 130 52 c 128,-1,19
 92 97 92 97 71.5 155 c 128,-1,20
 51 213 51 213 41 291 c 128,-1,21
 31 369 31 369 30 441 c 128,-1,22
 29 513 29 513 35 598 c 128,-1,23
 41 683 41 683 48.5 745.5 c 128,-1,24
 56 808 56 808 67 874 c 1,25,26
 83 875 83 875 104 864 c 128,-1,27
 125 853 125 853 143 855 c 1,0,-1
740 874 m 1,28,29
 740 863 740 863 745.5 782 c 128,-1,30
 751 701 751 701 752.5 676 c 128,-1,31
 754 651 754 651 759.5 571.5 c 128,-1,32
 765 492 765 492 767.5 456 c 128,-1,33
 770 420 770 420 775.5 346.5 c 128,-1,34
 781 273 781 273 786 233 c 128,-1,35
 791 193 791 193 797 132 c 128,-1,36
 803 71 803 71 809 31 c 128,-1,37
 815 -9 815 -9 822 -52 c 128,-1,38
 829 -95 829 -95 837 -127 c 1,39,40
 702 -120 702 -120 664 201 c 0,41,42
 649 327 649 327 639.5 452.5 c 128,-1,43
 630 578 630 578 630.5 700.5 c 128,-1,44
 631 823 631 823 644 894 c 1,45,46
 673 902 673 902 695.5 886 c 128,-1,47
 718 870 718 870 740 874 c 1,28,29
EndSplineSet
EndChar

StartChar: i
Encoding: 105 105 64
Width: 983
Flags: HW
LayerCount: 2
Fore
SplineSet
745 754 m 1,0,1
 727 734 727 734 698 732 c 128,-1,2
 669 730 669 730 641.5 739 c 128,-1,3
 614 748 614 748 579.5 754 c 128,-1,4
 545 760 545 760 520 754 c 1,5,6
 497 658 497 658 504 546.5 c 128,-1,7
 511 435 511 435 533.5 337.5 c 128,-1,8
 556 240 556 240 590 163 c 1,9,10
 629 148 629 148 683.5 146 c 128,-1,11
 738 144 738 144 779 151.5 c 128,-1,12
 820 159 820 159 862.5 159 c 128,-1,13
 905 159 905 159 920 145 c 1,14,15
 901 112 901 112 867.5 93.5 c 128,-1,16
 834 75 834 75 789.5 70 c 128,-1,17
 745 65 745 65 702.5 64 c 128,-1,18
 660 63 660 63 607.5 63 c 128,-1,19
 555 63 555 63 520 59 c 1,20,21
 479 53 479 53 428.5 36.5 c 128,-1,22
 378 20 378 20 338 5.5 c 128,-1,23
 298 -9 298 -9 258 -21 c 128,-1,24
 218 -33 218 -33 182.5 -31.5 c 128,-1,25
 147 -30 147 -30 121 -10 c 1,26,27
 128 8 128 8 139.5 24 c 128,-1,28
 151 40 151 40 162 52.5 c 128,-1,29
 173 65 173 65 191.5 76.5 c 128,-1,30
 210 88 210 88 223 95.5 c 128,-1,31
 236 103 236 103 260 111.5 c 128,-1,32
 284 120 284 120 297 124.5 c 128,-1,33
 310 129 310 129 339.5 136 c 128,-1,34
 369 143 369 143 381 145.5 c 128,-1,35
 393 148 393 148 425.5 154.5 c 128,-1,36
 458 161 458 161 468 163 c 1,37,38
 440 238 440 238 425 350.5 c 128,-1,39
 410 463 410 463 397.5 570.5 c 128,-1,40
 385 678 385 678 364 736 c 1,41,42
 320 719 320 719 264.5 707.5 c 128,-1,43
 209 696 209 696 145 700.5 c 128,-1,44
 81 705 81 705 51 736 c 1,45,46
 94 783 94 783 195 812 c 128,-1,47
 296 841 296 841 403 844.5 c 128,-1,48
 510 848 510 848 608.5 824.5 c 128,-1,49
 707 801 707 801 745 754 c 1,0,1
EndSplineSet
EndChar

StartChar: j
Encoding: 106 106 65
Width: 1024
Flags: HW
LayerCount: 2
Fore
SplineSet
725 958 m 1,0,1
 762 963 762 963 768 937 c 1,2,3
 801 893 801 893 834.5 819.5 c 128,-1,4
 868 746 868 746 898 657 c 128,-1,5
 928 568 928 568 943 471 c 128,-1,6
 958 374 958 374 957 285.5 c 128,-1,7
 956 197 956 197 925 121 c 128,-1,8
 894 45 894 45 834 4 c 0,9,10
 771 -40 771 -40 689 -56 c 128,-1,11
 607 -72 607 -72 526 -61 c 128,-1,12
 445 -50 445 -50 363 -19 c 128,-1,13
 281 12 281 12 214 57.5 c 128,-1,14
 147 103 147 103 98 163 c 128,-1,15
 49 223 49 223 31 286 c 1,16,17
 57 273 57 273 109.5 239.5 c 128,-1,18
 162 206 162 206 207 176.5 c 128,-1,19
 252 147 252 147 316.5 117 c 128,-1,20
 381 87 381 87 439.5 71.5 c 128,-1,21
 498 56 498 56 568.5 59 c 128,-1,22
 639 62 639 62 703 90 c 1,23,24
 757 123 757 123 786 170.5 c 128,-1,25
 815 218 815 218 819 270.5 c 128,-1,26
 823 323 823 323 814.5 384 c 128,-1,27
 806 445 806 445 787 505 c 128,-1,28
 768 565 768 565 750 629.5 c 128,-1,29
 732 694 732 694 718.5 750.5 c 128,-1,30
 705 807 705 807 705.5 862 c 128,-1,31
 706 917 706 917 725 958 c 1,0,1
EndSplineSet
EndChar

StartChar: k
Encoding: 107 107 66
Width: 962
Flags: HW
LayerCount: 2
Fore
SplineSet
147 941 m 1,0,1
 167 892 167 892 173.5 834 c 128,-1,2
 180 776 180 776 177.5 729.5 c 128,-1,3
 175 683 175 683 179.5 615.5 c 128,-1,4
 184 548 184 548 202 485 c 1,5,6
 255 507 255 507 304 545.5 c 128,-1,7
 353 584 353 584 392 625 c 128,-1,8
 431 666 431 666 471 707 c 128,-1,9
 511 748 511 748 563.5 781.5 c 128,-1,10
 616 815 616 815 676 831 c 1,11,12
 666 774 666 774 637 727.5 c 128,-1,13
 608 681 608 681 571.5 651 c 128,-1,14
 535 621 535 621 489 590.5 c 128,-1,15
 443 560 443 560 401.5 535 c 128,-1,16
 360 510 360 510 320.5 473 c 128,-1,17
 281 436 281 436 257 394 c 1,18,19
 298 388 298 388 377 377 c 128,-1,20
 456 366 456 366 502 358.5 c 128,-1,21
 548 351 548 351 616 337 c 128,-1,22
 684 323 684 323 730 307.5 c 128,-1,23
 776 292 776 292 826.5 267.5 c 128,-1,24
 877 243 877 243 912 212 c 1,25,26
 871 196 871 196 804.5 200.5 c 128,-1,27
 738 205 738 205 670.5 222.5 c 128,-1,28
 603 240 603 240 523 255.5 c 128,-1,29
 443 271 443 271 374.5 278 c 128,-1,30
 306 285 306 285 239 267 c 1,31,32
 231 224 231 224 243 164.5 c 128,-1,33
 255 105 255 105 268.5 39.5 c 128,-1,34
 282 -26 282 -26 275 -79 c 1,35,36
 233 -81 233 -81 206.5 -62.5 c 128,-1,37
 180 -44 180 -44 169.5 -13 c 128,-1,38
 159 18 159 18 154.5 56.5 c 128,-1,39
 150 95 150 95 146 135 c 128,-1,40
 142 175 142 175 135 210 c 128,-1,41
 128 245 128 245 108.5 270.5 c 128,-1,42
 89 296 89 296 56 303 c 1,43,44
 89 363 89 363 94.5 442 c 128,-1,45
 100 521 100 521 89 585 c 128,-1,46
 78 649 78 649 60.5 745.5 c 128,-1,47
 43 842 43 842 38 904 c 1,48,49
 54 902 54 902 65.5 906.5 c 128,-1,50
 77 911 77 911 82 919 c 128,-1,51
 87 927 87 927 95.5 934 c 128,-1,52
 104 941 104 941 114.5 943.5 c 128,-1,53
 125 946 125 946 147 941 c 1,0,1
EndSplineSet
EndChar

StartChar: l
Encoding: 108 108 67
Width: 1044
Flags: HW
LayerCount: 2
Fore
SplineSet
168 863 m 1,0,1
 194 783 194 783 202 684 c 128,-1,2
 210 585 210 585 205 497.5 c 128,-1,3
 200 410 200 410 197.5 307 c 128,-1,4
 195 204 195 204 200 117 c 1,5,6
 376 191 376 191 576 241.5 c 128,-1,7
 776 292 776 292 947 291 c 1,8,9
 866 247 866 247 747 202.5 c 128,-1,10
 628 158 628 158 530 127 c 128,-1,11
 432 96 432 96 321.5 47 c 128,-1,12
 211 -2 211 -2 136 -58 c 1,13,14
 119 -16 119 -16 115.5 63 c 128,-1,15
 112 142 112 142 116.5 236.5 c 128,-1,16
 121 331 121 331 125 428.5 c 128,-1,17
 129 526 129 526 121 627 c 128,-1,18
 113 728 113 728 89 800 c 0,19,20
 85 814 85 814 89 823.5 c 128,-1,21
 93 833 93 833 100.5 836 c 128,-1,22
 108 839 108 839 114.5 846 c 128,-1,23
 121 853 121 853 121 863 c 1,24,-1
 168 863 l 1,0,1
EndSplineSet
EndChar

StartChar: m
Encoding: 109 109 68
Width: 1085
Flags: HW
LayerCount: 2
Fore
SplineSet
920 742 m 1,0,1
 953 675 953 675 965.5 587.5 c 128,-1,2
 978 500 978 500 977.5 416 c 128,-1,3
 977 332 977 332 978 249.5 c 128,-1,4
 979 167 979 167 996.5 88.5 c 128,-1,5
 1014 10 1014 10 1054 -44 c 1,6,7
 1042 -45 1042 -45 1033.5 -53 c 128,-1,8
 1025 -61 1025 -61 1020.5 -70 c 128,-1,9
 1016 -79 1016 -79 1005 -84.5 c 128,-1,10
 994 -90 994 -90 979 -88 c 1,11,12
 941 -39 941 -39 922 46 c 128,-1,13
 903 131 903 131 900.5 211 c 128,-1,14
 898 291 898 291 893 395.5 c 128,-1,15
 888 500 888 500 876 565 c 1,16,17
 825 532 825 532 776.5 484 c 128,-1,18
 728 436 728 436 689 387 c 128,-1,19
 650 338 650 338 609.5 289 c 128,-1,20
 569 240 569 240 519 194 c 128,-1,21
 469 148 469 148 415 120 c 1,22,23
 377 142 377 142 344 182.5 c 128,-1,24
 311 223 311 223 291.5 263 c 128,-1,25
 272 303 272 303 241.5 347 c 128,-1,26
 211 391 211 391 178 417 c 1,27,28
 166 361 166 361 171 316 c 128,-1,29
 176 271 176 271 186.5 227 c 128,-1,30
 197 183 197 183 207 147.5 c 128,-1,31
 217 112 217 112 214.5 73 c 128,-1,32
 212 34 212 34 193 1 c 1,33,34
 151 14 151 14 126.5 47.5 c 128,-1,35
 102 81 102 81 95.5 123 c 128,-1,36
 89 165 89 165 89 219.5 c 128,-1,37
 89 274 89 274 93 324 c 128,-1,38
 97 374 97 374 97 428.5 c 128,-1,39
 97 483 97 483 89 520 c 1,40,41
 90 542 90 542 81.5 557.5 c 128,-1,42
 73 573 73 573 61.5 582 c 128,-1,43
 50 591 50 591 40.5 606 c 128,-1,44
 31 621 31 621 30 639 c 1,45,46
 45 653 45 653 66 657.5 c 128,-1,47
 87 662 87 662 101.5 659.5 c 128,-1,48
 116 657 116 657 147.5 649.5 c 128,-1,49
 179 642 179 642 193 639 c 1,50,51
 238 410 238 410 430 268 c 1,52,53
 437 273 437 273 453 286 c 0,54,55
 519 337 519 337 553 364.5 c 128,-1,56
 587 392 587 392 634 432.5 c 128,-1,57
 681 473 681 473 712 506 c 0,58,59
 734 528 734 528 757 568.5 c 128,-1,60
 780 609 780 609 797 641.5 c 128,-1,61
 814 674 814 674 846.5 703.5 c 128,-1,62
 879 733 879 733 920 742 c 1,0,1
EndSplineSet
EndChar

StartChar: n
Encoding: 110 110 69
Width: 1097
Flags: HW
LayerCount: 2
Fore
SplineSet
1058 795 m 1,0,1
 1027 750 1027 750 1011 686 c 128,-1,2
 995 622 995 622 992 555.5 c 128,-1,3
 989 489 989 489 990 416.5 c 128,-1,4
 991 344 991 344 990.5 275.5 c 128,-1,5
 990 207 990 207 983.5 145.5 c 128,-1,6
 977 84 977 84 954.5 32 c 128,-1,7
 932 -20 932 -20 892 -52 c 1,8,9
 800 -2 800 -2 702 72 c 128,-1,10
 604 146 604 146 532.5 213 c 128,-1,11
 461 280 461 280 365.5 362 c 128,-1,12
 270 444 270 444 193 500 c 1,13,14
 161 455 161 455 146.5 390.5 c 128,-1,15
 132 326 132 326 134.5 254.5 c 128,-1,16
 137 183 137 183 144.5 123 c 128,-1,17
 152 63 152 63 162 -2 c 128,-1,18
 172 -67 172 -67 174 -89 c 1,19,20
 161 -86 161 -86 152.5 -90.5 c 128,-1,21
 144 -95 144 -95 142 -103 c 128,-1,22
 140 -111 140 -111 134 -118.5 c 128,-1,23
 128 -126 128 -126 119 -126 c 1,24,25
 75 -78 75 -78 53 43.5 c 128,-1,26
 31 165 31 165 33.5 296.5 c 128,-1,27
 36 428 36 428 59 549.5 c 128,-1,28
 82 671 82 671 119 721 c 1,29,30
 188 673 188 673 262.5 606 c 128,-1,31
 337 539 337 539 400 476.5 c 128,-1,32
 463 414 463 414 530 351 c 128,-1,33
 597 288 597 288 676 230 c 128,-1,34
 755 172 755 172 837 132 c 1,35,36
 861 172 861 172 871 230 c 128,-1,37
 881 288 881 288 881.5 345 c 128,-1,38
 882 402 882 402 881.5 463.5 c 128,-1,39
 881 525 881 525 886.5 579 c 128,-1,40
 892 633 892 633 907.5 678.5 c 128,-1,41
 923 724 923 724 961 754.5 c 128,-1,42
 999 785 999 785 1058 795 c 1,0,1
EndSplineSet
EndChar

StartChar: o
Encoding: 111 111 70
Width: 1040
Flags: HW
LayerCount: 2
Fore
SplineSet
984 506 m 0,0,1
 997 436 997 436 979 355 c 128,-1,2
 961 274 961 274 920.5 203.5 c 128,-1,3
 880 133 880 133 824.5 75.5 c 128,-1,4
 769 18 769 18 711 -8 c 0,5,6
 633 -44 633 -44 520 -45 c 128,-1,7
 407 -46 407 -46 298.5 -10.5 c 128,-1,8
 190 25 190 25 133 88 c 0,9,10
 66 162 66 162 41 273 c 128,-1,11
 16 384 16 384 32 496 c 128,-1,12
 48 608 48 608 100 715 c 128,-1,13
 152 822 152 822 229 891 c 1,14,-1
 246 891 l 1,15,16
 282 900 282 900 280 863 c 0,17,18
 279 832 279 832 263 812 c 0,19,20
 262 811 262 811 261 810 c 1,21,22
 309 800 309 800 373.5 790 c 128,-1,23
 438 780 438 780 491 773.5 c 128,-1,24
 544 767 544 767 604.5 756.5 c 128,-1,25
 665 746 665 746 713 735 c 128,-1,26
 761 724 761 724 808.5 704 c 128,-1,27
 856 684 856 684 890 658.5 c 128,-1,28
 924 633 924 633 949 594 c 128,-1,29
 974 555 974 555 984 506 c 0,0,1
486 24 m 0,30,31
 545 23 545 23 610 46.5 c 128,-1,32
 675 70 675 70 731.5 113.5 c 128,-1,33
 788 157 788 157 832 213.5 c 128,-1,34
 876 270 876 270 895.5 343 c 128,-1,35
 915 416 915 416 903 489 c 0,36,37
 897 530 897 530 875.5 563.5 c 128,-1,38
 854 597 854 597 825 618.5 c 128,-1,39
 796 640 796 640 753 656 c 128,-1,40
 710 672 710 672 669.5 680 c 128,-1,41
 629 688 629 688 574.5 694 c 128,-1,42
 520 700 520 700 478.5 702.5 c 128,-1,43
 437 705 437 705 382 708 c 128,-1,44
 327 711 327 711 294 714 c 1,45,46
 279 724 279 724 274.5 737.5 c 128,-1,47
 270 751 270 751 272 760 c 128,-1,48
 274 769 274 769 265 774.5 c 128,-1,49
 256 780 256 780 229 778 c 1,50,51
 171 705 171 705 141 618.5 c 128,-1,52
 111 532 111 532 109.5 450.5 c 128,-1,53
 108 369 108 369 133.5 291.5 c 128,-1,54
 159 214 159 214 206 155.5 c 128,-1,55
 253 97 253 97 325.5 61.5 c 128,-1,56
 398 26 398 26 486 24 c 0,30,31
EndSplineSet
EndChar

StartChar: p
Encoding: 112 112 71
Width: 946
Flags: HW
LayerCount: 2
Fore
SplineSet
876 798 m 1,0,1
 941 559 941 559 545 422 c 0,2,3
 470 396 470 396 305 354 c 1,4,5
 346 390 346 390 407 424 c 128,-1,6
 468 458 468 458 526 484 c 128,-1,7
 584 510 584 510 641 539 c 128,-1,8
 698 568 698 568 748.5 609.5 c 128,-1,9
 799 651 799 651 828 702 c 1,10,11
 792 751 792 751 719 777 c 128,-1,12
 646 803 646 803 561 805 c 128,-1,13
 476 807 476 807 393 796.5 c 128,-1,14
 310 786 310 786 242 766 c 1,15,16
 246 693 246 693 238.5 593.5 c 128,-1,17
 231 494 231 494 224 414 c 128,-1,18
 217 334 217 334 216.5 250.5 c 128,-1,19
 216 167 216 167 237.5 96 c 128,-1,20
 259 25 259 25 305 -27 c 1,21,22
 248 -28 248 -28 210.5 3 c 128,-1,23
 173 34 173 34 157.5 88 c 128,-1,24
 142 142 142 142 137.5 207.5 c 128,-1,25
 133 273 133 273 138 350.5 c 128,-1,26
 143 428 143 428 150 495.5 c 128,-1,27
 157 563 157 563 161.5 630 c 128,-1,28
 166 697 166 697 163 734 c 1,29,30
 151 756 151 756 107 776 c 128,-1,31
 63 796 63 796 51 813 c 1,32,33
 321 984 321 984 876 798 c 1,0,1
EndSplineSet
EndChar

StartChar: q
Encoding: 113 113 72
Width: 1359
Flags: HW
LayerCount: 2
Fore
SplineSet
1019 247 m 1,0,1
 1048 228 1048 228 1098 204 c 128,-1,2
 1148 180 1148 180 1184.5 163 c 128,-1,3
 1221 146 1221 146 1256.5 114.5 c 128,-1,4
 1292 83 1292 83 1309 42 c 1,5,6
 1271 43 1271 43 1218 60 c 128,-1,7
 1165 77 1165 77 1120.5 97 c 128,-1,8
 1076 117 1076 117 1019.5 132 c 128,-1,9
 963 147 963 147 916 144 c 0,10,11
 891 142 891 142 837.5 126 c 128,-1,12
 784 110 784 110 723 87.5 c 128,-1,13
 662 65 662 65 586.5 42 c 128,-1,14
 511 19 511 19 439.5 3 c 128,-1,15
 368 -13 368 -13 297.5 -13.5 c 128,-1,16
 227 -14 227 -14 173 2.5 c 128,-1,17
 119 19 119 19 80.5 68 c 128,-1,18
 42 117 42 117 32 196 c 0,19,20
 24 255 24 255 40 320.5 c 128,-1,21
 56 386 56 386 90.5 445 c 128,-1,22
 125 504 125 504 175 557 c 128,-1,23
 225 610 225 610 281.5 648.5 c 128,-1,24
 338 687 338 687 402 707.5 c 128,-1,25
 466 728 466 728 525 723 c 1,26,27
 517 656 517 656 508 604 c 1,28,29
 414 596 414 596 326 543 c 128,-1,30
 238 490 238 490 185.5 414 c 128,-1,31
 133 338 133 338 133 263 c 1,32,33
 134 200 134 200 169 156.5 c 128,-1,34
 204 113 204 113 260.5 95 c 128,-1,35
 317 77 317 77 387.5 73.5 c 128,-1,36
 458 70 458 70 530 82 c 128,-1,37
 602 94 602 94 667.5 114.5 c 128,-1,38
 733 135 733 135 780 162 c 1,39,40
 785 179 785 179 779 189.5 c 128,-1,41
 773 200 773 200 764 204 c 128,-1,42
 755 208 755 208 748.5 218.5 c 128,-1,43
 742 229 742 229 746 247 c 1,44,45
 812 241 812 241 866 253.5 c 128,-1,46
 920 266 920 266 958 291.5 c 128,-1,47
 996 317 996 317 1028 359 c 128,-1,48
 1060 401 1060 401 1081 447.5 c 128,-1,49
 1102 494 1102 494 1121 553 c 1,50,51
 1104 615 1104 615 1047 652.5 c 128,-1,52
 990 690 990 690 915 699 c 128,-1,53
 840 708 840 708 760.5 700.5 c 128,-1,54
 681 693 681 693 610 672 c 1,55,56
 628 730 628 730 684 761 c 128,-1,57
 740 792 740 792 811 792.5 c 128,-1,58
 882 793 882 793 954.5 778.5 c 128,-1,59
 1027 764 1027 764 1086.5 735 c 128,-1,60
 1146 706 1146 706 1172 672 c 1,61,62
 1203 577 1203 577 1185.5 492 c 128,-1,63
 1168 407 1168 407 1124 345 c 128,-1,64
 1080 283 1080 283 1019 247 c 1,0,1
EndSplineSet
EndChar

StartChar: r
Encoding: 114 114 73
Width: 1097
Flags: HW
LayerCount: 2
Fore
SplineSet
393 333 m 1,0,1
 436 293 436 293 512 263.5 c 128,-1,2
 588 234 588 234 668 216.5 c 128,-1,3
 748 199 748 199 826 181 c 128,-1,4
 904 163 904 163 969 134.5 c 128,-1,5
 1034 106 1034 106 1064 69 c 1,6,7
 1014 45 1014 45 950.5 44.5 c 128,-1,8
 887 44 887 44 826 60 c 128,-1,9
 765 76 765 76 691.5 100 c 128,-1,10
 618 124 618 124 552.5 148 c 128,-1,11
 487 172 487 172 410.5 190 c 128,-1,12
 334 208 334 208 269 210 c 1,13,14
 271 194 271 194 276 170 c 128,-1,15
 281 146 281 146 284.5 127.5 c 128,-1,16
 288 109 288 109 291.5 85.5 c 128,-1,17
 295 62 295 62 295 45.5 c 128,-1,18
 295 29 295 29 293 12 c 128,-1,19
 291 -5 291 -5 283 -15 c 128,-1,20
 275 -25 275 -25 262.5 -30.5 c 128,-1,21
 250 -36 250 -36 229.5 -33.5 c 128,-1,22
 209 -31 209 -31 181 -19 c 1,23,24
 187 19 187 19 188 59 c 128,-1,25
 189 99 189 99 179.5 139 c 128,-1,26
 170 179 170 179 153 212 c 128,-1,27
 136 245 136 245 107 268 c 128,-1,28
 78 291 78 291 40 298 c 1,29,30
 38 324 38 324 49 341.5 c 128,-1,31
 60 359 60 359 75.5 367.5 c 128,-1,32
 91 376 91 376 107 389.5 c 128,-1,33
 123 403 123 403 128 422 c 1,34,35
 133 465 133 465 128.5 503.5 c 128,-1,36
 124 542 124 542 123 574.5 c 128,-1,37
 122 607 122 607 126.5 631 c 128,-1,38
 131 655 131 655 153 669.5 c 128,-1,39
 175 684 175 684 216 686 c 1,40,41
 229 616 229 616 228 544 c 128,-1,42
 227 472 227 472 234 386 c 1,43,44
 369 393 369 393 458.5 452.5 c 128,-1,45
 548 512 548 512 605 615 c 1,46,47
 592 638 592 638 574 656.5 c 128,-1,48
 556 675 556 675 532 689 c 128,-1,49
 508 703 508 703 485.5 713.5 c 128,-1,50
 463 724 463 724 429.5 732 c 128,-1,51
 396 740 396 740 371.5 745.5 c 128,-1,52
 347 751 347 751 307 755.5 c 128,-1,53
 267 760 267 760 243.5 762.5 c 128,-1,54
 220 765 220 765 176 768.5 c 128,-1,55
 132 772 132 772 111 774 c 0,56,57
 102 775 102 775 98 778 c 128,-1,58
 94 781 94 781 95 787 c 128,-1,59
 96 793 96 793 98.5 798.5 c 128,-1,60
 101 804 101 804 105 812.5 c 128,-1,61
 109 821 109 821 111 827 c 1,62,63
 178 836 178 836 249.5 838.5 c 128,-1,64
 321 841 321 841 396 832.5 c 128,-1,65
 471 824 471 824 532.5 805.5 c 128,-1,66
 594 787 594 787 638 752 c 128,-1,67
 682 717 682 717 693 669 c 0,68,69
 721 546 721 546 573 439 c 0,70,71
 532 410 532 410 401 338 c 0,72,73
 397 336 397 336 393 333 c 1,0,1
EndSplineSet
EndChar

StartChar: s
Encoding: 115 115 74
Width: 1105
Flags: HW
LayerCount: 2
Fore
SplineSet
653 513 m 1,0,1
 623 523 623 523 605.5 545.5 c 128,-1,2
 588 568 588 568 578.5 594 c 128,-1,3
 569 620 569 620 559.5 645.5 c 128,-1,4
 550 671 550 671 529.5 693 c 128,-1,5
 509 715 509 715 476 725 c 0,6,7
 375 756 375 756 284 702 c 128,-1,8
 193 648 193 648 159 548 c 1,9,10
 187 517 187 517 243.5 495.5 c 128,-1,11
 300 474 300 474 368 464.5 c 128,-1,12
 436 455 436 455 517 445 c 128,-1,13
 598 435 598 435 675 428 c 128,-1,14
 752 421 752 421 823.5 404 c 128,-1,15
 895 387 895 387 948 363.5 c 128,-1,16
 1001 340 1001 340 1032 297 c 128,-1,17
 1063 254 1063 254 1059 196 c 0,18,19
 1054 99 1054 99 923 35 c 0,20,21
 792 -30 792 -30 620 -26 c 0,22,23
 435 -22 435 -22 340 63 c 1,24,25
 250 146 250 146 283 284 c 1,26,27
 307 272 307 272 318.5 252.5 c 128,-1,28
 330 233 330 233 334 212 c 128,-1,29
 338 191 338 191 342.5 169.5 c 128,-1,30
 347 148 347 148 362.5 126.5 c 128,-1,31
 378 105 378 105 406 89 c 1,32,33
 466 57 466 57 554 53 c 128,-1,34
 642 49 642 49 724.5 68.5 c 128,-1,35
 807 88 807 88 876 127 c 128,-1,36
 945 166 945 166 971 213 c 1,37,38
 938 267 938 267 875.5 300.5 c 128,-1,39
 813 334 813 334 738 346 c 128,-1,40
 663 358 663 358 578.5 363.5 c 128,-1,41
 494 369 494 369 410 373.5 c 128,-1,42
 326 378 326 378 252.5 389 c 128,-1,43
 179 400 179 400 121 431 c 128,-1,44
 63 462 63 462 36 513 c 1,45,46
 49 572 49 572 85.5 630.5 c 128,-1,47
 122 689 122 689 173.5 736 c 128,-1,48
 225 783 225 783 296 810 c 128,-1,49
 367 837 367 837 441 830 c 0,50,51
 494 826 494 826 552.5 799.5 c 128,-1,52
 611 773 611 773 653.5 729.5 c 128,-1,53
 696 686 696 686 700.5 630 c 128,-1,54
 705 574 705 574 653 513 c 1,0,1
EndSplineSet
EndChar

StartChar: t
Encoding: 116 116 75
Width: 1093
Flags: HW
LayerCount: 2
Fore
SplineSet
1053 782 m 1,0,1
 944 764 944 764 738 761.5 c 128,-1,2
 532 759 532 759 456 749 c 1,3,4
 459 721 459 721 469 699 c 128,-1,5
 479 677 479 677 498 650 c 128,-1,6
 517 623 517 623 523 611 c 1,7,8
 505 554 505 554 504.5 477 c 128,-1,9
 504 400 504 400 515.5 332.5 c 128,-1,10
 527 265 527 265 537.5 190.5 c 128,-1,11
 548 116 548 116 552 63 c 128,-1,12
 556 10 556 10 541 -37 c 1,13,14
 493 -27 493 -27 463.5 10.5 c 128,-1,15
 434 48 434 48 424.5 97 c 128,-1,16
 415 146 415 146 411 208.5 c 128,-1,17
 407 271 407 271 407.5 329.5 c 128,-1,18
 408 388 408 388 398.5 447 c 128,-1,19
 389 506 389 506 370 544 c 1,20,21
 373 555 373 555 382 583.5 c 128,-1,22
 391 612 391 612 393 623.5 c 128,-1,23
 395 635 395 635 396.5 656 c 128,-1,24
 398 677 398 677 391 694.5 c 128,-1,25
 384 712 384 712 370 731 c 1,26,27
 341 735 341 735 294.5 729.5 c 128,-1,28
 248 724 248 724 208 718 c 128,-1,29
 168 712 168 712 128.5 711 c 128,-1,30
 89 710 89 710 62.5 727 c 128,-1,31
 36 744 36 744 29 782 c 1,32,33
 224 843 224 843 538.5 841 c 128,-1,34
 853 839 853 839 1053 782 c 1,0,1
EndSplineSet
EndChar

StartChar: u
Encoding: 117 117 76
Width: 1069
Flags: HW
LayerCount: 2
Fore
SplineSet
221 803 m 1,0,1
 237 745 237 745 237 684.5 c 128,-1,2
 237 624 237 624 224.5 574 c 128,-1,3
 212 524 212 524 196 467.5 c 128,-1,4
 180 411 180 411 165.5 358.5 c 128,-1,5
 151 306 151 306 144.5 241 c 128,-1,6
 138 176 138 176 146 110 c 1,7,8
 203 91 203 91 266.5 88.5 c 128,-1,9
 330 86 330 86 390 99.5 c 128,-1,10
 450 113 450 113 507.5 135 c 128,-1,11
 565 157 565 157 619 188 c 128,-1,12
 673 219 673 219 717.5 250.5 c 128,-1,13
 762 282 762 282 802 315 c 1,14,15
 805 364 805 364 794.5 430 c 128,-1,16
 784 496 784 496 774.5 548 c 128,-1,17
 765 600 765 600 762 653.5 c 128,-1,18
 759 707 759 707 777.5 750.5 c 128,-1,19
 796 794 796 794 840 821 c 1,20,21
 870 796 870 796 885 759.5 c 128,-1,22
 900 723 900 723 901 684.5 c 128,-1,23
 902 646 902 646 900 601 c 128,-1,24
 898 556 898 556 894 513.5 c 128,-1,25
 890 471 890 471 896 428 c 0,26,27
 903 369 903 369 924 296.5 c 128,-1,28
 945 224 945 224 965 171.5 c 128,-1,29
 985 119 985 119 999 60 c 128,-1,30
 1013 1 1013 1 1009 -40 c 1,31,32
 977 -37 977 -37 953 -23 c 128,-1,33
 929 -9 929 -9 914.5 9.5 c 128,-1,34
 900 28 900 28 888.5 56.5 c 128,-1,35
 877 85 877 85 870.5 108.5 c 128,-1,36
 864 132 864 132 855 167 c 128,-1,37
 846 202 846 202 840 222 c 1,38,39
 802 210 802 210 759 188.5 c 128,-1,40
 716 167 716 167 678 144 c 128,-1,41
 640 121 640 121 597.5 95 c 128,-1,42
 555 69 555 69 516 46.5 c 128,-1,43
 477 24 477 24 433 5 c 128,-1,44
 389 -14 389 -14 347 -25 c 128,-1,45
 305 -36 305 -36 258 -35.5 c 128,-1,46
 211 -35 211 -35 165 -22 c 0,47,48
 109 -6 109 -6 77 36.5 c 128,-1,49
 45 79 45 79 39.5 138.5 c 128,-1,50
 34 198 34 198 41 266 c 128,-1,51
 48 334 48 334 65.5 411.5 c 128,-1,52
 83 489 83 489 100.5 559.5 c 128,-1,53
 118 630 118 630 131.5 702 c 128,-1,54
 145 774 145 774 146 821 c 1,55,56
 162 822 162 822 182.5 811.5 c 128,-1,57
 203 801 203 801 221 803 c 1,0,1
EndSplineSet
EndChar

StartChar: v
Encoding: 118 118 77
Width: 1019
Flags: HW
LayerCount: 2
Fore
SplineSet
957 812 m 1,0,1
 938 731 938 731 900 640.5 c 128,-1,2
 862 550 862 550 824 474 c 128,-1,3
 786 398 786 398 750.5 317.5 c 128,-1,4
 715 237 715 237 693.5 145 c 128,-1,5
 672 53 672 53 674 -39 c 1,6,7
 596 8 596 8 523.5 73 c 128,-1,8
 451 138 451 138 389.5 212 c 128,-1,9
 328 286 328 286 274.5 356.5 c 128,-1,10
 221 427 221 427 156 510.5 c 128,-1,11
 91 594 91 594 36 652 c 1,12,13
 42 674 42 674 71 697.5 c 128,-1,14
 100 721 100 721 106 741 c 1,15,16
 158 698 158 698 209.5 638 c 128,-1,17
 261 578 261 578 302.5 517.5 c 128,-1,18
 344 457 344 457 386 396 c 128,-1,19
 428 335 428 335 479.5 275.5 c 128,-1,20
 531 216 531 216 585 174 c 1,21,22
 619 241 619 241 658 339 c 128,-1,23
 697 437 697 437 726 513.5 c 128,-1,24
 755 590 755 590 798 678 c 128,-1,25
 841 766 841 766 887 830 c 1,26,27
 902 831 902 831 921 820.5 c 128,-1,28
 940 810 940 810 957 812 c 1,0,1
EndSplineSet
EndChar

StartChar: w
Encoding: 119 119 78
Width: 1494
Flags: HW
LayerCount: 2
Fore
SplineSet
1448 770 m 1,0,1
 1446 735 1446 735 1429 710.5 c 128,-1,2
 1412 686 1412 686 1391 674 c 128,-1,3
 1370 662 1370 662 1342 642.5 c 128,-1,4
 1314 623 1314 623 1297 601 c 0,5,6
 1257 547 1257 547 1219 468 c 128,-1,7
 1181 389 1181 389 1151.5 317 c 128,-1,8
 1122 245 1122 245 1087 172 c 128,-1,9
 1052 99 1052 99 1000.5 38.5 c 128,-1,10
 949 -22 949 -22 885 -57 c 1,11,12
 844 -27 844 -27 811.5 19.5 c 128,-1,13
 779 66 779 66 756 117.5 c 128,-1,14
 733 169 733 169 712.5 220.5 c 128,-1,15
 692 272 692 272 664 325 c 128,-1,16
 636 378 636 378 602 413 c 1,17,18
 578 389 578 389 568.5 342.5 c 128,-1,19
 559 296 559 296 558.5 245.5 c 128,-1,20
 558 195 558 195 556 145 c 128,-1,21
 554 95 554 95 538.5 55 c 128,-1,22
 523 15 523 15 489 -1 c 1,23,24
 462 -2 462 -2 441.5 6.5 c 128,-1,25
 421 15 421 15 409 26 c 128,-1,26
 397 37 397 37 386.5 60 c 128,-1,27
 376 83 376 83 372 97.5 c 128,-1,28
 368 112 368 112 360 141 c 0,29,30
 359 146 359 146 358 150 c 0,31,32
 343 183 343 183 317 219.5 c 128,-1,33
 291 256 291 256 262 286.5 c 128,-1,34
 233 317 233 317 201 352.5 c 128,-1,35
 169 388 169 388 141 420.5 c 128,-1,36
 113 453 113 453 90 490.5 c 128,-1,37
 67 528 67 528 53.5 564.5 c 128,-1,38
 40 601 40 601 40.5 644.5 c 128,-1,39
 41 688 41 688 57 732 c 1,40,41
 103 705 103 705 141 659.5 c 128,-1,42
 179 614 179 614 205.5 563 c 128,-1,43
 232 512 232 512 258 461 c 128,-1,44
 284 410 284 410 319 360.5 c 128,-1,45
 354 311 354 311 395 282 c 1,46,47
 423 307 423 307 440.5 352 c 128,-1,48
 458 397 458 397 466.5 445 c 128,-1,49
 475 493 475 493 486.5 539.5 c 128,-1,50
 498 586 498 586 522 623 c 128,-1,51
 546 660 546 660 584 676 c 1,52,53
 635 650 635 650 673 601.5 c 128,-1,54
 711 553 711 553 734 493.5 c 128,-1,55
 757 434 757 434 776.5 374 c 128,-1,56
 796 314 796 314 823 251.5 c 128,-1,57
 850 189 850 189 885 150 c 1,58,59
 946 211 946 211 1006.5 300.5 c 128,-1,60
 1067 390 1067 390 1108.5 469 c 128,-1,61
 1150 548 1150 548 1207.5 644.5 c 128,-1,62
 1265 741 1265 741 1317 807 c 1,63,64
 1370 813 1370 813 1404 805.5 c 128,-1,65
 1438 798 1438 798 1448 770 c 1,0,1
EndSplineSet
EndChar

StartChar: x
Encoding: 120 120 79
Width: 917
Flags: HW
LayerCount: 2
Fore
SplineSet
843 862 m 1,0,1
 804 796 804 796 696 649 c 128,-1,2
 588 502 588 502 541 410 c 1,3,4
 559 365 559 365 590 324.5 c 128,-1,5
 621 284 621 284 656 251.5 c 128,-1,6
 691 219 691 219 726.5 189.5 c 128,-1,7
 762 160 762 160 799.5 123.5 c 128,-1,8
 837 87 837 87 861 51 c 1,9,10
 858 35 858 35 849 20 c 128,-1,11
 840 5 840 5 832 -2.5 c 128,-1,12
 824 -10 824 -10 808 -24 c 128,-1,13
 792 -38 792 -38 785 -43 c 1,14,15
 744 -12 744 -12 702 34 c 128,-1,16
 660 80 660 80 630.5 121.5 c 128,-1,17
 601 163 601 163 560.5 213 c 128,-1,18
 520 263 520 263 484 296 c 1,19,20
 445 279 445 279 417.5 239 c 128,-1,21
 390 199 390 199 378 159 c 128,-1,22
 366 119 366 119 348 63.5 c 128,-1,23
 330 8 330 8 314 -25 c 1,24,25
 294 -28 294 -28 271.5 -12.5 c 128,-1,26
 249 3 249 3 220 -5 c 1,27,28
 216 51 216 51 227.5 98.5 c 128,-1,29
 239 146 239 146 260 182.5 c 128,-1,30
 281 219 281 219 304 249.5 c 128,-1,31
 327 280 327 280 351.5 317.5 c 128,-1,32
 376 355 376 355 390 391 c 1,33,34
 358 435 358 435 311.5 486.5 c 128,-1,35
 265 538 265 538 225.5 576 c 128,-1,36
 186 614 186 614 142 666.5 c 128,-1,37
 98 719 98 719 69 768 c 1,38,39
 108 791 108 791 142 792 c 128,-1,40
 176 793 176 793 203.5 774.5 c 128,-1,41
 231 756 231 756 256.5 727.5 c 128,-1,42
 282 699 282 699 305.5 663 c 128,-1,43
 329 627 329 627 350 593.5 c 128,-1,44
 371 560 371 560 396.5 530 c 128,-1,45
 422 500 422 500 446 485 c 1,46,47
 474 499 474 499 499.5 529.5 c 128,-1,48
 525 560 525 560 543.5 594.5 c 128,-1,49
 562 629 562 629 582.5 669 c 128,-1,50
 603 709 603 709 620.5 743.5 c 128,-1,51
 638 778 638 778 661.5 809.5 c 128,-1,52
 685 841 685 841 709.5 857.5 c 128,-1,53
 734 874 734 874 768.5 877.5 c 128,-1,54
 803 881 803 881 843 862 c 1,0,1
EndSplineSet
EndChar

StartChar: y
Encoding: 121 121 80
Width: 792
Flags: HW
LayerCount: 2
Fore
SplineSet
740 851 m 1,0,1
 735 777 735 777 705.5 692.5 c 128,-1,2
 676 608 676 608 637.5 532.5 c 128,-1,3
 599 457 599 457 561.5 378 c 128,-1,4
 524 299 524 299 501.5 209.5 c 128,-1,5
 479 120 479 120 483 35 c 1,6,7
 471 25 471 25 455 1.5 c 128,-1,8
 439 -22 439 -22 421.5 -37.5 c 128,-1,9
 404 -53 404 -53 378 -55 c 1,10,11
 358 -27 358 -27 355 9.5 c 128,-1,12
 352 46 352 46 363 82.5 c 128,-1,13
 374 119 374 119 392.5 163 c 128,-1,14
 411 207 411 207 430 246 c 128,-1,15
 449 285 449 285 464.5 330.5 c 128,-1,16
 480 376 480 376 483 413 c 1,17,18
 410 388 410 388 343 393.5 c 128,-1,19
 276 399 276 399 219 434 c 128,-1,20
 162 469 162 469 121 518.5 c 128,-1,21
 80 568 80 568 59.5 632 c 128,-1,22
 39 696 39 696 45 761 c 1,23,24
 56 760 56 760 66 760 c 128,-1,25
 76 760 76 760 82.5 763.5 c 128,-1,26
 89 767 89 767 91 775 c 1,27,28
 111 748 111 748 135.5 707 c 128,-1,29
 160 666 160 666 179.5 633 c 128,-1,30
 199 600 199 600 224.5 566 c 128,-1,31
 250 532 250 532 284.5 508 c 128,-1,32
 319 484 319 484 362 473 c 1,33,34
 417 476 417 476 459 498 c 128,-1,35
 501 520 501 520 524.5 553 c 128,-1,36
 548 586 548 586 569.5 629.5 c 128,-1,37
 591 673 591 673 606 713.5 c 128,-1,38
 621 754 621 754 644.5 796.5 c 128,-1,39
 668 839 668 839 695 866 c 1,40,41
 717 850 717 850 740 851 c 1,0,1
EndSplineSet
EndChar

StartChar: z
Encoding: 122 122 81
Width: 1036
Flags: HW
LayerCount: 2
Fore
SplineSet
807 852 m 1,0,1
 817 823 817 823 813 793 c 128,-1,2
 809 763 809 763 798 740 c 128,-1,3
 787 717 787 717 769.5 691 c 128,-1,4
 752 665 752 665 735.5 644 c 128,-1,5
 719 623 719 623 702.5 596 c 128,-1,6
 686 569 686 569 678 546 c 1,7,8
 689 526 689 526 712.5 522 c 128,-1,9
 736 518 736 518 765.5 525 c 128,-1,10
 795 532 795 532 824.5 540 c 128,-1,11
 854 548 854 548 884.5 547 c 128,-1,12
 915 546 915 546 936 529 c 1,13,14
 920 502 920 502 891 485 c 128,-1,15
 862 468 862 468 822.5 460 c 128,-1,16
 783 452 783 452 748 448 c 128,-1,17
 713 444 713 444 662 440.5 c 128,-1,18
 611 437 611 437 582 433 c 1,19,20
 397 224 397 224 291 94 c 1,21,22
 345 90 345 90 427.5 100.5 c 128,-1,23
 510 111 510 111 584 123 c 128,-1,24
 658 135 658 135 733 141.5 c 128,-1,25
 808 148 808 148 870.5 133.5 c 128,-1,26
 933 119 933 119 968 78 c 1,27,28
 881 82 881 82 779.5 68 c 128,-1,29
 678 54 678 54 597.5 33 c 128,-1,30
 517 12 517 12 425 -8.5 c 128,-1,31
 333 -29 333 -29 263.5 -37.5 c 128,-1,32
 194 -46 194 -46 114 -35 c 1,33,34
 130 16 130 16 158.5 63.5 c 128,-1,35
 187 111 187 111 221.5 148.5 c 128,-1,36
 256 186 256 186 290.5 221.5 c 128,-1,37
 325 257 325 257 360.5 300 c 128,-1,38
 396 343 396 343 420 384 c 1,39,40
 414 397 414 397 394 402 c 128,-1,41
 374 407 374 407 354.5 407.5 c 128,-1,42
 335 408 335 408 320 417.5 c 128,-1,43
 305 427 305 427 307 449 c 1,44,45
 305 476 305 476 317.5 490.5 c 128,-1,46
 330 505 330 505 350.5 508.5 c 128,-1,47
 371 512 371 512 397 513 c 128,-1,48
 423 514 423 514 449.5 512 c 128,-1,49
 476 510 476 510 501 513 c 1,50,51
 556 552 556 552 595 609.5 c 128,-1,52
 634 667 634 667 678 755 c 1,53,54
 671 755 671 755 623 754 c 128,-1,55
 575 753 575 753 557 752.5 c 128,-1,56
 539 752 539 752 490 750 c 128,-1,57
 441 748 441 748 414.5 745.5 c 128,-1,58
 388 743 388 743 343.5 740 c 128,-1,59
 299 737 299 737 268.5 732.5 c 128,-1,60
 238 728 238 728 201.5 722 c 128,-1,61
 165 716 165 716 135.5 708 c 128,-1,62
 106 700 106 700 81 690 c 1,63,64
 81 712 81 712 69.5 731 c 128,-1,65
 58 750 58 750 50.5 770.5 c 128,-1,66
 43 791 43 791 49 819 c 1,67,68
 116 820 116 820 395.5 839 c 128,-1,69
 675 858 675 858 807 852 c 1,0,1
EndSplineSet
EndChar

StartChar: dieresis
Encoding: 168 168 83
Width: 442
Flags: HW
LayerCount: 2
Fore
SplineSet
34 678 m 4,0,1
 34 701 34 701 52 715.5 c 132,-1,2
 70 730 70 730 98 730 c 4,3,4
 125 730 125 730 143 715 c 132,-1,5
 161 700 161 700 161 678 c 4,6,7
 161 654 161 654 143 639.5 c 132,-1,8
 125 625 125 625 98 625 c 4,9,10
 70 625 70 625 52 639.5 c 132,-1,11
 34 654 34 654 34 678 c 4,0,1
281 678 m 4,12,13
 281 701 281 701 299.5 715.5 c 132,-1,14
 318 730 318 730 345 730 c 4,15,16
 373 730 373 730 390.5 715 c 132,-1,17
 408 700 408 700 408 678 c 4,18,19
 408 654 408 654 391 639.5 c 132,-1,20
 374 625 374 625 345 625 c 4,21,22
 318 625 318 625 299.5 639.5 c 132,-1,23
 281 654 281 654 281 678 c 4,12,13
EndSplineSet
EndChar

StartChar: asciicircum
Encoding: 94 94 89
Width: 402
VWidth: 1048
Flags: HW
LayerCount: 2
Fore
SplineSet
23 698 m 0,0,1
 23 713 23 713 36 737 c 128,-1,2
 49 761 49 761 73.5 786 c 128,-1,3
 98 811 98 811 132.5 836 c 128,-1,4
 167 861 167 861 208 880 c 1,5,6
 236 863 236 863 257 849 c 128,-1,7
 278 835 278 835 296 818 c 128,-1,8
 314 801 314 801 333 777.5 c 128,-1,9
 352 754 352 754 376 716 c 1,10,11
 384 701 384 701 384.5 687.5 c 128,-1,12
 385 674 385 674 379 665.5 c 128,-1,13
 373 657 373 657 361 656 c 128,-1,14
 349 655 349 655 333 665 c 1,15,16
 315 678 315 678 304.5 685 c 128,-1,17
 294 692 294 692 288 696.5 c 128,-1,18
 282 701 282 701 277 706.5 c 128,-1,19
 272 712 272 712 263.5 720.5 c 128,-1,20
 255 729 255 729 240 744.5 c 128,-1,21
 225 760 225 760 199 786 c 1,22,23
 171 767 171 767 151 750.5 c 128,-1,24
 131 734 131 734 116.5 718 c 128,-1,25
 102 702 102 702 92.5 686.5 c 128,-1,26
 83 671 83 671 76 652 c 1,27,28
 52 652 52 652 37.5 658.5 c 128,-1,29
 23 665 23 665 23 698 c 0,0,1
EndSplineSet
EndChar

StartChar: cedilla
Encoding: 184 184 90
Width: 332
Flags: HW
LayerCount: 2
Fore
SplineSet
212 -128 m 4,0,1
 212 -104 212 -104 190 -93 c 132,-1,2
 168 -82 168 -82 130 -81 c 5,3,-1
 104 -81 l 5,4,-1
 167 10 l 5,5,-1
 238 10 l 5,6,-1
 204 -48 l 5,7,8
 245 -54 245 -54 271.5 -71.5 c 132,-1,9
 298 -89 298 -89 298 -128 c 4,10,11
 298 -163 298 -163 265 -191 c 132,-1,12
 232 -219 232 -219 156 -219 c 4,13,14
 132 -219 132 -219 113 -214 c 132,-1,15
 94 -209 94 -209 78.5 -202 c 132,-1,16
 63 -195 63 -195 52.5 -187.5 c 132,-1,17
 42 -180 42 -180 35 -174 c 5,18,-1
 73 -134 l 5,19,20
 84 -143 84 -143 105 -155.5 c 132,-1,21
 126 -168 126 -168 156 -168 c 260,22,23
 187 -168 187 -168 199.5 -155.5 c 132,-1,24
 212 -143 212 -143 212 -128 c 4,0,1
EndSplineSet
EndChar

StartChar: grave
Encoding: 96 96 91
Width: 351
Flags: HW
LayerCount: 2
Fore
SplineSet
165 759 m 5,0,-1
 272 640 l 5,1,-1
 215 640 l 5,2,-1
 79 759 l 5,3,-1
 165 759 l 5,0,-1
EndSplineSet
EndChar

StartChar: asciitilde
Encoding: 126 126 98
Width: 582
VWidth: 1048
Flags: HW
LayerCount: 2
Fore
SplineSet
269 673 m 1,0,1
 243 696 243 696 224 711 c 128,-1,2
 205 726 205 726 185 724.5 c 128,-1,3
 165 723 165 723 141 700 c 128,-1,4
 117 677 117 677 80 623 c 1,5,6
 76 623 76 623 68.5 624 c 128,-1,7
 61 625 61 625 54 628 c 128,-1,8
 47 631 47 631 41 636 c 128,-1,9
 35 641 35 641 33 649 c 1,10,11
 52 710 52 710 90.5 757.5 c 128,-1,12
 129 805 129 805 172 822 c 0,13,14
 189 829 189 829 205 823 c 128,-1,15
 221 817 221 817 237 804.5 c 128,-1,16
 253 792 253 792 268 775 c 128,-1,17
 283 758 283 758 298.5 742.5 c 128,-1,18
 314 727 314 727 331 717 c 128,-1,19
 348 707 348 707 367 707 c 0,20,21
 396 707 396 707 411.5 715.5 c 128,-1,22
 427 724 427 724 440.5 741 c 128,-1,23
 454 758 454 758 469.5 782.5 c 128,-1,24
 485 807 485 807 514 838 c 1,25,26
 518 838 518 838 524.5 835.5 c 128,-1,27
 531 833 531 833 537.5 828 c 128,-1,28
 544 823 544 823 548 818 c 128,-1,29
 552 813 552 813 552 808 c 0,30,31
 557 779 557 779 544.5 751 c 128,-1,32
 532 723 532 723 508.5 699.5 c 128,-1,33
 485 676 485 676 453.5 659.5 c 128,-1,34
 422 643 422 643 388.5 637.5 c 128,-1,35
 355 632 355 632 324 639.5 c 128,-1,36
 293 647 293 647 269 673 c 1,0,1
EndSplineSet
EndChar

StartChar: degree
Encoding: 176 176 99
Width: 287
VWidth: 1048
Flags: HW
LayerCount: 2
Fore
SplineSet
32 449 m 4,0,1
 32 492 32 492 47 517 c 132,-1,2
 62 542 62 542 86 552 c 132,-1,3
 110 562 110 562 137.5 559 c 132,-1,4
 165 556 165 556 189.5 541.5 c 132,-1,5
 214 527 214 527 231.5 504 c 132,-1,6
 249 481 249 481 252 453 c 5,7,8
 252 388 252 388 225.5 367 c 132,-1,9
 199 346 199 346 146 346 c 4,10,11
 130 346 130 346 110 352 c 132,-1,12
 90 358 90 358 72.5 371 c 132,-1,13
 55 384 55 384 43.5 403.5 c 132,-1,14
 32 423 32 423 32 449 c 4,0,1
191 474 m 5,15,16
 169 498 169 498 145 503 c 132,-1,17
 121 508 121 508 103.5 498 c 132,-1,18
 86 488 86 488 82 466 c 132,-1,19
 78 444 78 444 97 413 c 5,20,21
 121 394 121 394 143 391.5 c 132,-1,22
 165 389 165 389 179.5 399.5 c 132,-1,23
 194 410 194 410 198 429.5 c 132,-1,24
 202 449 202 449 191 474 c 5,15,16
EndSplineSet
EndChar

StartChar: ring
Encoding: 730 730 100
Width: 323
Flags: HW
LayerCount: 2
Fore
SplineSet
56 710 m 5,0,1
 64 669 64 669 101 640 c 132,-1,2
 138 611 138 611 183 611 c 4,3,4
 204 611 204 611 221.5 619 c 132,-1,5
 239 627 239 627 250.5 640 c 132,-1,6
 262 653 262 653 266.5 671 c 132,-1,7
 271 689 271 689 267 710 c 4,8,9
 263 729 263 729 252 746.5 c 132,-1,10
 241 764 241 764 224.5 777 c 132,-1,11
 208 790 208 790 187.5 797 c 132,-1,12
 167 804 167 804 145 804 c 4,13,14
 122 804 122 804 104 797 c 132,-1,15
 86 790 86 790 74 777 c 132,-1,16
 62 764 62 764 57 746.5 c 132,-1,17
 52 729 52 729 56 710 c 5,18,19
 52 729 52 729 57 746.5 c 132,-1,20
 62 764 62 764 74 777 c 132,-1,21
 86 790 86 790 104.5 797 c 132,-1,22
 123 804 123 804 145 804 c 4,23,24
 166 804 166 804 187 797 c 132,-1,25
 208 790 208 790 224.5 777 c 132,-1,26
 241 764 241 764 252.5 746.5 c 132,-1,27
 264 729 264 729 267 710 c 4,28,29
 271 690 271 690 266.5 671.5 c 132,-1,30
 262 653 262 653 250.5 640 c 132,-1,31
 239 627 239 627 221.5 619 c 132,-1,32
 204 611 204 611 183 611 c 4,33,34
 138 611 138 611 100.5 640 c 132,-1,35
 63 669 63 669 56 710 c 4,36,37
 52 729 52 729 57 746.5 c 132,-1,38
 62 764 62 764 74 777 c 132,-1,39
 86 790 86 790 104.5 797 c 132,-1,40
 123 804 123 804 145 804 c 4,41,42
 166 804 166 804 187 797 c 132,-1,43
 208 790 208 790 224.5 777 c 132,-1,44
 241 764 241 764 252.5 746.5 c 132,-1,45
 264 729 264 729 267 710 c 4,46,47
 271 690 271 690 266.5 671.5 c 132,-1,48
 262 653 262 653 250.5 640 c 132,-1,49
 239 627 239 627 221.5 619 c 132,-1,50
 204 611 204 611 183 611 c 4,51,52
 138 611 138 611 101 640 c 132,-1,53
 64 669 64 669 56 710 c 5,0,1
110 710 m 4,54,55
 114 690 114 690 132.5 675 c 132,-1,56
 151 660 151 660 173 660 c 4,57,58
 192 660 192 660 205 674.5 c 132,-1,59
 218 689 218 689 214 710 c 4,60,61
 211 727 211 727 192.5 741.5 c 132,-1,62
 174 756 174 756 155 756 c 4,63,64
 132 756 132 756 119.5 741.5 c 132,-1,65
 107 727 107 727 110 710 c 4,54,55
EndSplineSet
EndChar

StartChar: tilde
Encoding: 732 732 101
Width: 549
Flags: HW
LayerCount: 2
Fore
SplineSet
484 684 m 5,0,1
 472 670 472 670 456 658 c 4,2,3
 442 648 442 648 421 640 c 132,-1,4
 400 632 400 632 374 630 c 4,5,6
 351 628 351 628 324 636 c 132,-1,7
 297 644 297 644 269 654 c 4,8,9
 245 662 245 662 221.5 670.5 c 132,-1,10
 198 679 198 679 178 678 c 4,11,12
 155 676 155 676 139.5 670.5 c 132,-1,13
 124 665 124 665 113 657 c 4,14,15
 101 649 101 649 91 639 c 5,16,-1
 66 690 l 5,17,18
 78 704 78 704 94 716 c 4,19,20
 108 726 108 726 129 734 c 132,-1,21
 150 742 150 742 176 744 c 4,22,23
 199 746 199 746 226 738 c 132,-1,24
 253 730 253 730 281 720 c 4,25,26
 305 712 305 712 328.5 703.5 c 132,-1,27
 352 695 352 695 372 696 c 4,28,29
 395 697 395 697 410.5 703.5 c 132,-1,30
 426 710 426 710 437 717 c 4,31,32
 449 725 449 725 459 735 c 5,33,-1
 484 684 l 5,0,1
EndSplineSet
EndChar

StartChar: circumflex
Encoding: 710 710 102
Width: 507
Flags: HW
LayerCount: 2
Fore
SplineSet
288 774 m 5,0,-1
 447 625 l 5,1,-1
 354 625 l 5,2,-1
 254 722 l 5,3,-1
 154 625 l 5,4,-1
 60 625 l 5,5,-1
 220 774 l 5,6,-1
 288 774 l 5,0,-1
EndSplineSet
EndChar

StartChar: acute
Encoding: 180 180 117
Width: 351
Flags: HW
LayerCount: 2
Fore
SplineSet
296 774 m 5,0,-1
 126 625 l 5,1,-1
 55 625 l 5,2,-1
 189 774 l 5,3,-1
 296 774 l 5,0,-1
EndSplineSet
EndChar

StartChar: guillemotleft
Encoding: 171 171 142
Width: 918
VWidth: 1048
Flags: HW
LayerCount: 2
Fore
SplineSet
108 293 m 1,0,1
 149 325 149 325 203.5 369 c 128,-1,2
 258 413 258 413 315 457 c 128,-1,3
 372 501 372 501 424 539.5 c 128,-1,4
 476 578 476 578 513 598 c 1,5,6
 522 597 522 597 528.5 589 c 128,-1,7
 535 581 535 581 538.5 569.5 c 128,-1,8
 542 558 542 558 541.5 546.5 c 128,-1,9
 541 535 541 535 537 527 c 1,10,-1
 236 298 l 1,11,12
 255 289 255 289 290.5 272 c 128,-1,13
 326 255 326 255 370 233.5 c 128,-1,14
 414 212 414 212 461.5 186.5 c 128,-1,15
 509 161 509 161 552 132 c 1,16,17
 550 130 550 130 546.5 121.5 c 128,-1,18
 543 113 543 113 538.5 103 c 128,-1,19
 534 93 534 93 529.5 84.5 c 128,-1,20
 525 76 525 76 523 76 c 1,21,22
 498 91 498 91 462 105.5 c 128,-1,23
 426 120 426 120 384 135.5 c 128,-1,24
 342 151 342 151 298.5 167.5 c 128,-1,25
 255 184 255 184 217 203 c 128,-1,26
 179 222 179 222 150 244 c 128,-1,27
 121 266 121 266 108 293 c 1,0,1
407 322 m 1,28,29
 448 354 448 354 502.5 397.5 c 128,-1,30
 557 441 557 441 614 485 c 128,-1,31
 671 529 671 529 723 567.5 c 128,-1,32
 775 606 775 606 812 627 c 1,33,34
 821 626 821 626 827.5 617.5 c 128,-1,35
 834 609 834 609 837.5 598 c 128,-1,36
 841 587 841 587 840.5 575 c 128,-1,37
 840 563 840 563 836 556 c 1,38,-1
 535 327 l 1,39,40
 554 318 554 318 589.5 301 c 128,-1,41
 625 284 625 284 669 262.5 c 128,-1,42
 713 241 713 241 760.5 215 c 128,-1,43
 808 189 808 189 851 161 c 1,44,45
 849 159 849 159 845.5 150 c 128,-1,46
 842 141 842 141 837.5 131.5 c 128,-1,47
 833 122 833 122 828.5 113 c 128,-1,48
 824 104 824 104 822 104 c 1,49,50
 797 119 797 119 761 133.5 c 128,-1,51
 725 148 725 148 683 163.5 c 128,-1,52
 641 179 641 179 597.5 196 c 128,-1,53
 554 213 554 213 516 232 c 128,-1,54
 478 251 478 251 449 273 c 128,-1,55
 420 295 420 295 407 322 c 1,28,29
EndSplineSet
EndChar

StartChar: guillemotright
Encoding: 187 187 143
Width: 857
VWidth: 1048
Flags: HW
LayerCount: 2
Fore
SplineSet
151 61 m 1,0,1
 108 77 108 77 94.5 95.5 c 128,-1,2
 81 114 81 114 88.5 132.5 c 128,-1,3
 96 151 96 151 120.5 170 c 128,-1,4
 145 189 145 189 178 209.5 c 128,-1,5
 211 230 211 230 248 251 c 128,-1,6
 285 272 285 272 317 293 c 128,-1,7
 349 314 349 314 372.5 336 c 128,-1,8
 396 358 396 358 402 380 c 1,9,-1
 63 507 l 1,10,-1
 128 569 l 1,11,12
 170 539 170 539 207.5 522 c 128,-1,13
 245 505 245 505 279 494.5 c 128,-1,14
 313 484 313 484 346 477.5 c 128,-1,15
 379 471 379 471 411.5 462.5 c 128,-1,16
 444 454 444 454 477 439 c 128,-1,17
 510 424 510 424 546 398 c 1,18,19
 513 358 513 358 462.5 318 c 128,-1,20
 412 278 412 278 356 236 c 128,-1,21
 300 194 300 194 246 150 c 128,-1,22
 192 106 192 106 151 61 c 1,0,1
441 97 m 1,23,24
 398 113 398 113 385 131.5 c 128,-1,25
 372 150 372 150 379.5 168 c 128,-1,26
 387 186 387 186 411.5 205.5 c 128,-1,27
 436 225 436 225 469 245.5 c 128,-1,28
 502 266 502 266 538.5 287 c 128,-1,29
 575 308 575 308 607.5 329 c 128,-1,30
 640 350 640 350 663.5 372 c 128,-1,31
 687 394 687 394 693 416 c 1,32,-1
 354 543 l 1,33,-1
 419 605 l 1,34,35
 461 575 461 575 498.5 558 c 128,-1,36
 536 541 536 541 570 530.5 c 128,-1,37
 604 520 604 520 637 513.5 c 128,-1,38
 670 507 670 507 702.5 498 c 128,-1,39
 735 489 735 489 768 474.5 c 128,-1,40
 801 460 801 460 837 434 c 1,41,42
 804 394 804 394 753 353.5 c 128,-1,43
 702 313 702 313 646.5 271 c 128,-1,44
 591 229 591 229 536.5 185.5 c 128,-1,45
 482 142 482 142 441 97 c 1,23,24
EndSplineSet
EndChar

StartChar: dotlessi
Encoding: 305 305 144
Width: 983
Flags: HW
HStem: 63 82<591 851> 94 65<802 896> 700 112<133 297>
LayerCount: 2
Fore
SplineSet
745 754 m 1,0,1
 727 734 727 734 698 732 c 128,-1,2
 669 730 669 730 641.5 739 c 128,-1,3
 614 748 614 748 579.5 754 c 128,-1,4
 545 760 545 760 520 754 c 1,5,6
 497 658 497 658 504 546.5 c 128,-1,7
 511 435 511 435 533.5 337.5 c 128,-1,8
 556 240 556 240 590 163 c 1,9,10
 629 148 629 148 683.5 146 c 128,-1,11
 738 144 738 144 779 151.5 c 128,-1,12
 820 159 820 159 862.5 159 c 128,-1,13
 905 159 905 159 920 145 c 1,14,15
 901 112 901 112 867.5 93.5 c 128,-1,16
 834 75 834 75 789.5 70 c 128,-1,17
 745 65 745 65 702.5 64 c 128,-1,18
 660 63 660 63 607.5 63 c 128,-1,19
 555 63 555 63 520 59 c 1,20,21
 479 53 479 53 428.5 36.5 c 128,-1,22
 378 20 378 20 338 5.5 c 128,-1,23
 298 -9 298 -9 258 -21 c 128,-1,24
 218 -33 218 -33 182.5 -31.5 c 128,-1,25
 147 -30 147 -30 121 -10 c 1,26,27
 128 8 128 8 139.5 24 c 128,-1,28
 151 40 151 40 162 52.5 c 128,-1,29
 173 65 173 65 191.5 76.5 c 128,-1,30
 210 88 210 88 223 95.5 c 128,-1,31
 236 103 236 103 260 111.5 c 128,-1,32
 284 120 284 120 297 124.5 c 128,-1,33
 310 129 310 129 339.5 136 c 128,-1,34
 369 143 369 143 381 145.5 c 128,-1,35
 393 148 393 148 425.5 154.5 c 128,-1,36
 458 161 458 161 468 163 c 1,37,38
 440 238 440 238 425 350.5 c 128,-1,39
 410 463 410 463 397.5 570.5 c 128,-1,40
 385 678 385 678 364 736 c 1,41,42
 320 719 320 719 264.5 707.5 c 128,-1,43
 209 696 209 696 145 700.5 c 128,-1,44
 81 705 81 705 51 736 c 1,45,46
 94 783 94 783 195 812 c 128,-1,47
 296 841 296 841 403 844.5 c 128,-1,48
 510 848 510 848 608.5 824.5 c 128,-1,49
 707 801 707 801 745 754 c 1,0,1
EndSplineSet
EndChar

